<svg width="96" height="96" viewBox="0 0 96 96" fill="none" xmlns="http://www.w3.org/2000/svg">
<path d="M10 75.3294C10 80.6708 14.3298 85 19.6706 85H75.3291C80.6708 85 85 80.6702 85 75.3294V19.6709C85 14.3292 80.6702 10 75.3294 10H19.6709C14.3292 10 10 14.3298 10 19.6706V75.3291V75.3294Z" fill="#513A2D"/>
<path d="M41.101 43.1752V32.5542H50.4499C51.3405 32.5542 52.1989 32.6283 53.0257 32.7769C53.8524 32.9251 54.584 33.1899 55.22 33.5717C55.8558 33.9534 56.3647 34.4834 56.7464 35.1616C57.1278 35.8401 57.3188 36.7094 57.3188 37.769C57.3188 39.6771 56.7464 41.0553 55.6015 41.9031C54.4568 42.7513 52.994 43.1752 51.2131 43.1752H41.101ZM31.1157 24.7949V70.2051H53.1212C55.1564 70.2051 57.1387 69.9508 59.0679 69.4419C60.9971 68.933 62.7142 68.1487 64.2194 67.0888C65.7244 66.0288 66.9224 64.6612 67.8127 62.9866C68.7033 61.3117 69.1483 59.3295 69.1483 57.0399C69.1483 54.199 68.4593 51.7718 67.0814 49.7579C65.7033 47.7437 63.615 46.334 60.8166 45.5283C62.8519 44.5533 64.3891 43.3023 65.4279 41.776C66.4665 40.2496 66.9859 38.3418 66.9859 36.052C66.9859 33.932 66.6361 32.1514 65.9365 30.7097C65.2369 29.2683 64.2511 28.1128 62.979 27.2436C61.7072 26.3743 60.1809 25.7488 58.3999 25.3674C56.6192 24.9856 54.6476 24.7949 52.4852 24.7949H31.1157ZM41.101 62.4458V49.9803H51.9763C54.1387 49.9803 55.8771 50.4783 57.1917 51.475C58.506 52.4714 59.1634 54.1354 59.1634 56.4675C59.1634 57.6549 58.9618 58.6299 58.559 59.3931C58.1562 60.1562 57.6156 60.7606 56.9371 61.2057C56.2589 61.651 55.4743 61.9688 54.584 62.1599C53.6934 62.3503 52.7608 62.4458 51.7855 62.4458H41.101Z" fill="white"/>
</svg>
