<svg width="75" height="75" viewBox="0 0 75 75" fill="none" xmlns="http://www.w3.org/2000/svg">
<path d="M0 65.3294C0 70.6708 4.32978 75 9.6706 75H65.3291C70.6708 75 75 70.6702 75 65.3294V9.6709C75 4.3292 70.6702 0 65.3294 0H9.6709C4.3292 0 0 4.32978 0 9.6706V65.3291V65.3294Z" fill="#513A2D"/>
<path d="M31.101 33.1752V22.5542H40.4499C41.3405 22.5542 42.1989 22.6283 43.0257 22.7769C43.8524 22.9251 44.584 23.1899 45.22 23.5717C45.8558 23.9534 46.3647 24.4834 46.7464 25.1616C47.1278 25.8401 47.3188 26.7094 47.3188 27.769C47.3188 29.6771 46.7464 31.0553 45.6015 31.9031C44.4568 32.7513 42.994 33.1752 41.2131 33.1752H31.101ZM21.1157 14.7949V60.2051H43.1212C45.1564 60.2051 47.1387 59.9508 49.0679 59.4419C50.9971 58.933 52.7142 58.1487 54.2194 57.0888C55.7244 56.0288 56.9224 54.6612 57.8127 52.9866C58.7033 51.3117 59.1483 49.3295 59.1483 47.0399C59.1483 44.199 58.4593 41.7718 57.0814 39.7579C55.7033 37.7437 53.615 36.334 50.8166 35.5283C52.8519 34.5533 54.3891 33.3023 55.4279 31.776C56.4665 30.2496 56.9859 28.3418 56.9859 26.052C56.9859 23.932 56.6361 22.1514 55.9365 20.7097C55.2369 19.2683 54.2511 18.1128 52.979 17.2436C51.7072 16.3743 50.1809 15.7488 48.3999 15.3674C46.6192 14.9856 44.6476 14.7949 42.4852 14.7949H21.1157ZM31.101 52.4458V39.9803H41.9763C44.1387 39.9803 45.8771 40.4783 47.1917 41.475C48.506 42.4714 49.1634 44.1354 49.1634 46.4675C49.1634 47.6549 48.9618 48.6299 48.559 49.3931C48.1562 50.1562 47.6156 50.7606 46.9371 51.2057C46.2589 51.651 45.4743 51.9688 44.584 52.1599C43.6934 52.3503 42.7608 52.4458 41.7855 52.4458H31.101Z" fill="white"/>
</svg>
