<svg width="96" height="96" viewBox="0 0 96 96" fill="none" xmlns="http://www.w3.org/2000/svg">
<path d="M32.9 5C29.4787 5 26.1975 6.3591 23.7783 8.77832C21.3591 11.1975 20 14.4787 20 17.9C20 21.3213 21.3591 24.6025 23.7783 27.0217C26.1975 29.4409 29.4787 30.8 32.9 30.8H63C66.4213 30.8 69.7025 29.4409 72.1217 27.0217C74.5409 24.6025 75.9 21.3213 75.9 17.9C75.9 14.4787 74.5409 11.1975 72.1217 8.77832C69.7025 6.3591 66.4213 5 63 5H32.9Z" fill="#513A2D"/>
<path d="M63 35.1C59.5787 35.1 56.2975 36.4591 53.8783 38.8783C51.4591 41.2975 50.1 44.5787 50.1 48C50.1 51.4213 51.4591 54.7024 53.8783 57.1217C56.2975 59.5409 59.5787 60.9 63 60.9C66.4213 60.9 69.7024 59.5409 72.1217 57.1217C74.5409 54.7024 75.9 51.4213 75.9 48C75.9 44.5787 74.5409 41.2975 72.1217 38.8783C69.7024 36.4591 66.4213 35.1 63 35.1Z" fill="#513A2D"/>
<path d="M20 48C20 44.5787 21.3591 41.2975 23.7783 38.8783C26.1975 36.4591 29.4787 35.1 32.9 35.1H45.8V60.9H32.9C29.4787 60.9 26.1975 59.5409 23.7783 57.1217C21.3591 54.7024 20 51.4213 20 48Z" fill="#513A2D"/>
<path d="M32.9 65.2001C30.3486 65.2001 27.8545 65.9566 25.7331 67.3741C23.6118 68.7916 21.9583 70.8063 20.982 73.1635C20.0056 75.5206 19.7501 78.1144 20.2479 80.6167C20.7456 83.1191 21.9742 85.4177 23.7783 87.2218C25.5824 89.0258 27.881 90.2545 30.3833 90.7522C32.8857 91.25 35.4795 90.9945 37.8366 90.0181C40.1938 89.0417 42.2085 87.3883 43.626 85.2669C45.0434 83.1455 45.8 80.6515 45.8 78.1001V65.2001H32.9Z" fill="#513A2D"/>
</svg>
