<svg width="56" height="86" viewBox="0 0 56 86" fill="none" xmlns="http://www.w3.org/2000/svg">
<path d="M12.9 0C9.47871 0 6.19754 1.3591 3.77832 3.77832C1.3591 6.19754 0 9.47871 0 12.9C0 16.3213 1.3591 19.6025 3.77832 22.0217C6.19754 24.4409 9.47871 25.8 12.9 25.8H43C46.4213 25.8 49.7025 24.4409 52.1217 22.0217C54.5409 19.6025 55.9 16.3213 55.9 12.9C55.9 9.47871 54.5409 6.19754 52.1217 3.77832C49.7025 1.3591 46.4213 0 43 0H12.9Z" fill="#513A2D"/>
<path d="M43 30.1C39.5787 30.1 36.2975 31.4591 33.8783 33.8783C31.4591 36.2975 30.1 39.5787 30.1 43C30.1 46.4213 31.4591 49.7024 33.8783 52.1217C36.2975 54.5409 39.5787 55.9 43 55.9C46.4213 55.9 49.7024 54.5409 52.1217 52.1217C54.5409 49.7024 55.9 46.4213 55.9 43C55.9 39.5787 54.5409 36.2975 52.1217 33.8783C49.7024 31.4591 46.4213 30.1 43 30.1Z" fill="#513A2D"/>
<path d="M0 43C0 39.5787 1.3591 36.2975 3.77832 33.8783C6.19754 31.4591 9.47871 30.1 12.9 30.1H25.8V55.9H12.9C9.47871 55.9 6.19754 54.5409 3.77832 52.1217C1.3591 49.7024 0 46.4213 0 43Z" fill="#513A2D"/>
<path d="M12.9 60.2001C10.3486 60.2001 7.85454 60.9566 5.73315 62.3741C3.61175 63.7916 1.95833 65.8063 0.98196 68.1635C0.00558939 70.5206 -0.249874 73.1144 0.247876 75.6167C0.745625 78.1191 1.97423 80.4177 3.77833 82.2218C5.58242 84.0258 7.88098 85.2545 10.3833 85.7522C12.8857 86.25 15.4795 85.9945 17.8366 85.0181C20.1938 84.0417 22.2085 82.3883 23.626 80.2669C25.0434 78.1455 25.8 75.6515 25.8 73.1001V60.2001H12.9Z" fill="#513A2D"/>
</svg>
