<svg width="77" height="75" viewBox="0 0 77 75" fill="none" xmlns="http://www.w3.org/2000/svg">
<path d="M33.75 33.4295C33.4295 32.4359 33.141 31.4744 32.8205 30.4808C32.5 29.4872 32.2115 28.5577 31.9551 27.6282C31.6987 26.7308 31.4744 25.8974 31.25 25.1282H31.1859C30.8974 26.5064 30.5449 27.8846 30.0962 29.2628C29.6154 30.8013 29.1346 32.4038 28.6218 34.0064C28.1731 35.641 27.6923 37.1474 27.2115 38.4936H35.3526C35.1603 37.8173 34.9038 37.0192 34.6154 36.1827C34.3269 35.3205 34.0385 34.391 33.75 33.4295ZM63.3013 0H13.6218C6.08974 0 0 6.08974 0 13.6218V61.3782C0 68.9103 6.08974 75 13.6218 75H63.3013C70.8333 75 76.9231 68.9103 76.9231 61.3782V13.6218C76.9231 6.08974 70.8333 0 63.3013 0ZM47.1154 52.9808H40.4135C40.1923 53.0128 39.9679 52.8526 39.9038 52.6282L37.2756 45H25.3526L22.9167 52.5321C22.8526 52.8205 22.5962 53.0128 22.3077 52.984H16.282C15.9295 52.984 15.8333 52.7885 15.9295 52.407L26.25 22.6923C26.3462 22.3718 26.4423 22.0192 26.5705 21.6346C26.6987 20.9615 26.7628 20.2564 26.7628 19.5513C26.7308 19.391 26.859 19.2308 27.0192 19.1987H35.3205C35.5769 19.1987 35.7051 19.2949 35.7372 19.4551L47.4359 52.4679C47.532 52.8173 47.4359 52.9808 47.1154 52.9808ZM58.0128 52.5C58.0128 52.8526 57.8878 53.0128 57.5994 53.0128H51.3141C50.9936 53.0128 50.8333 52.8173 50.8333 52.5V27.8205C50.8333 27.5 50.9647 27.3718 51.2532 27.3718H57.5994C57.8878 27.3718 58.0128 27.532 58.0128 27.8205V52.5ZM57.3429 23.5577C56.9644 23.9421 56.508 24.2411 56.0044 24.4346C55.5008 24.6281 54.9616 24.7116 54.4231 24.6795C53.3654 24.7115 52.3397 24.2949 51.5673 23.5577C50.833 22.7548 50.4419 21.6965 50.4776 20.609C50.4455 19.5192 50.8622 18.4936 51.6282 17.7564C52.4038 17.0192 53.4295 16.6346 54.4872 16.6346C55.7404 16.6346 56.6955 17.0192 57.4038 17.7564C58.109 18.5256 58.4936 19.5513 58.4615 20.609C58.4936 21.6987 58.109 22.7564 57.3429 23.5577Z" fill="#513A2D"/>
</svg>
