<svg width="96" height="96" viewBox="0 0 96 96" fill="none" xmlns="http://www.w3.org/2000/svg">
<path d="M42.75 43.4295C42.4295 42.4359 42.141 41.4744 41.8205 40.4808C41.5 39.4872 41.2115 38.5577 40.9551 37.6282C40.6987 36.7308 40.4744 35.8974 40.25 35.1282H40.1859C39.8974 36.5064 39.5449 37.8846 39.0962 39.2628C38.6154 40.8013 38.1346 42.4038 37.6218 44.0064C37.1731 45.641 36.6923 47.1474 36.2115 48.4936H44.3526C44.1603 47.8173 43.9038 47.0192 43.6154 46.1827C43.3269 45.3205 43.0385 44.391 42.75 43.4295ZM72.3013 10H22.6218C15.0897 10 9 16.0897 9 23.6218V71.3782C9 78.9103 15.0897 85 22.6218 85H72.3013C79.8333 85 85.9231 78.9103 85.9231 71.3782V23.6218C85.9231 16.0897 79.8333 10 72.3013 10ZM56.1154 62.9808H49.4135C49.1923 63.0128 48.9679 62.8526 48.9038 62.6282L46.2756 55H34.3526L31.9167 62.5321C31.8526 62.8205 31.5962 63.0128 31.3077 62.984H25.282C24.9295 62.984 24.8333 62.7885 24.9295 62.407L35.25 32.6923C35.3462 32.3718 35.4423 32.0192 35.5705 31.6346C35.6987 30.9615 35.7628 30.2564 35.7628 29.5513C35.7308 29.391 35.859 29.2308 36.0192 29.1987H44.3205C44.5769 29.1987 44.7051 29.2949 44.7372 29.4551L56.4359 62.4679C56.532 62.8173 56.4359 62.9808 56.1154 62.9808ZM67.0128 62.5C67.0128 62.8526 66.8878 63.0128 66.5994 63.0128H60.3141C59.9936 63.0128 59.8333 62.8173 59.8333 62.5V37.8205C59.8333 37.5 59.9647 37.3718 60.2532 37.3718H66.5994C66.8878 37.3718 67.0128 37.532 67.0128 37.8205V62.5ZM66.3429 33.5577C65.9644 33.9421 65.508 34.2411 65.0044 34.4346C64.5008 34.6281 63.9616 34.7116 63.4231 34.6795C62.3654 34.7115 61.3397 34.2949 60.5673 33.5577C59.833 32.7548 59.4419 31.6965 59.4776 30.609C59.4455 29.5192 59.8622 28.4936 60.6282 27.7564C61.4038 27.0192 62.4295 26.6346 63.4872 26.6346C64.7404 26.6346 65.6955 27.0192 66.4038 27.7564C67.109 28.5256 67.4936 29.5513 67.4615 30.609C67.4936 31.6987 67.109 32.7564 66.3429 33.5577Z" fill="#513A2D"/>
</svg>
