<svg width="75" height="75" viewBox="0 0 75 75" fill="none" xmlns="http://www.w3.org/2000/svg">
<path d="M59.1064 35.1562C53.7842 35.1562 49.2432 33.2764 45.4834 29.5166C41.7236 25.7568 39.8438 21.2158 39.8438 15.8936C39.8438 12.7686 40.7227 9.80225 42.4805 6.99463C44.2383 4.18701 46.4844 1.85547 49.2188 0C49.0234 0.488281 48.7183 1.24512 48.3032 2.27051C47.8882 3.2959 47.5708 4.07715 47.3511 4.61426C47.1313 5.15137 46.8384 5.87158 46.4722 6.7749C46.106 7.67822 45.8374 8.41064 45.6665 8.97217C45.4956 9.53369 45.3125 10.1562 45.1172 10.8398C44.9219 11.5234 44.7754 12.1216 44.6777 12.6343C44.5801 13.147 44.5312 13.623 44.5312 14.0625C44.5312 18.7012 46.106 22.5952 49.2554 25.7446C52.4048 28.894 56.2988 30.4688 60.9375 30.4688C61.377 30.4688 61.853 30.4199 62.3657 30.3223C62.8784 30.2246 63.4766 30.0781 64.1602 29.8828C64.8438 29.6875 65.4663 29.5044 66.0278 29.3335C66.5894 29.1626 67.3218 28.894 68.2251 28.5278C69.1284 28.1616 69.8486 27.8687 70.3857 27.6489C70.9229 27.4292 71.7041 27.1118 72.7295 26.6968C73.7549 26.2817 74.5117 25.9766 75 25.7812C73.1445 28.5156 70.813 30.7617 68.0054 32.5195C65.1978 34.2773 62.2314 35.1562 59.1064 35.1562ZM53.9062 46.875C56.8848 46.875 59.6802 46.7041 62.2925 46.3623C64.9048 46.0205 68.3594 45.4102 72.6562 44.5312C69.9707 47.5586 66.7236 49.8779 62.915 51.4893C59.1064 53.1006 55.0293 53.9062 50.6836 53.9062C45.3125 53.9062 40.3564 52.5879 35.8154 49.9512C31.2744 47.3145 27.6855 43.7256 25.0488 39.1846C22.4121 34.6436 21.0938 29.7119 21.0938 24.3896C21.0938 19.9951 21.8994 15.8936 23.5107 12.085C25.1221 8.27637 27.4414 5.0293 30.4688 2.34375C29.5898 6.64062 28.9795 10.0952 28.6377 12.7075C28.2959 15.3198 28.125 18.1152 28.125 21.0938C28.125 25.6836 29.2969 29.9561 31.6406 33.9111C33.9844 37.8662 37.1338 41.0156 41.0889 43.3594C45.0439 45.7031 49.3164 46.875 53.9062 46.875ZM42.1875 65.625C51.123 65.625 58.9355 64.8438 65.625 63.2812C62.207 67.0898 58.0566 69.9951 53.1738 71.9971C48.291 73.999 43.0664 75 37.5 75C30.7129 75 24.4385 73.3276 18.6768 69.9829C12.915 66.6382 8.36182 62.085 5.01709 56.3232C1.67236 50.5615 0 44.2871 0 37.5C0 31.9336 1.00098 26.709 3.00293 21.8262C5.00488 16.9434 7.91016 12.793 11.7188 9.375C10.1562 16.0645 9.375 23.877 9.375 32.8125C9.375 37.2559 10.2417 41.5039 11.9751 45.5566C13.7085 49.6094 16.04 53.1006 18.9697 56.0303C21.8994 58.96 25.3906 61.2915 29.4434 63.0249C33.4961 64.7583 37.7441 65.625 42.1875 65.625Z" fill="#513A2D"/>
</svg>
