<svg width="96" height="96" viewBox="0 0 96 96" fill="none" xmlns="http://www.w3.org/2000/svg">
<path d="M71.1064 43.1562C65.7842 43.1562 61.2432 41.2764 57.4834 37.5166C53.7236 33.7568 51.8438 29.2158 51.8438 23.8936C51.8438 20.7686 52.7227 17.8022 54.4805 14.9946C56.2383 12.187 58.4844 9.85547 61.2188 8C61.0234 8.48828 60.7183 9.24512 60.3032 10.2705C59.8882 11.2959 59.5708 12.0771 59.3511 12.6143C59.1313 13.1514 58.8384 13.8716 58.4722 14.7749C58.106 15.6782 57.8374 16.4106 57.6665 16.9722C57.4956 17.5337 57.3125 18.1562 57.1172 18.8398C56.9219 19.5234 56.7754 20.1216 56.6777 20.6343C56.5801 21.147 56.5312 21.623 56.5312 22.0625C56.5312 26.7012 58.106 30.5952 61.2554 33.7446C64.4048 36.894 68.2988 38.4688 72.9375 38.4688C73.377 38.4688 73.853 38.4199 74.3657 38.3223C74.8784 38.2246 75.4766 38.0781 76.1602 37.8828C76.8438 37.6875 77.4663 37.5044 78.0278 37.3335C78.5894 37.1626 79.3218 36.894 80.2251 36.5278C81.1284 36.1616 81.8486 35.8687 82.3857 35.6489C82.9229 35.4292 83.7041 35.1118 84.7295 34.6968C85.7549 34.2817 86.5117 33.9766 87 33.7812C85.1445 36.5156 82.813 38.7617 80.0054 40.5195C77.1978 42.2773 74.2314 43.1562 71.1064 43.1562ZM65.9062 54.875C68.8848 54.875 71.6802 54.7041 74.2925 54.3623C76.9048 54.0205 80.3594 53.4102 84.6562 52.5312C81.9707 55.5586 78.7236 57.8779 74.915 59.4893C71.1064 61.1006 67.0293 61.9062 62.6836 61.9062C57.3125 61.9062 52.3564 60.5879 47.8154 57.9512C43.2744 55.3145 39.6855 51.7256 37.0488 47.1846C34.4121 42.6436 33.0938 37.7119 33.0938 32.3896C33.0938 27.9951 33.8994 23.8936 35.5107 20.085C37.1221 16.2764 39.4414 13.0293 42.4688 10.3438C41.5898 14.6406 40.9795 18.0952 40.6377 20.7075C40.2959 23.3198 40.125 26.1152 40.125 29.0938C40.125 33.6836 41.2969 37.9561 43.6406 41.9111C45.9844 45.8662 49.1338 49.0156 53.0889 51.3594C57.0439 53.7031 61.3164 54.875 65.9062 54.875ZM54.1875 73.625C63.123 73.625 70.9355 72.8438 77.625 71.2812C74.207 75.0898 70.0566 77.9951 65.1738 79.9971C60.291 81.999 55.0664 83 49.5 83C42.7129 83 36.4385 81.3276 30.6768 77.9829C24.915 74.6382 20.3618 70.085 17.0171 64.3232C13.6724 58.5615 12 52.2871 12 45.5C12 39.9336 13.001 34.709 15.0029 29.8262C17.0049 24.9434 19.9102 20.793 23.7188 17.375C22.1562 24.0645 21.375 31.877 21.375 40.8125C21.375 45.2559 22.2417 49.5039 23.9751 53.5566C25.7085 57.6094 28.04 61.1006 30.9697 64.0303C33.8994 66.96 37.3906 69.2915 41.4434 71.0249C45.4961 72.7583 49.7441 73.625 54.1875 73.625Z" fill="#513A2D"/>
</svg>
