<svg width="96" height="96" viewBox="0 0 96 96" fill="none" xmlns="http://www.w3.org/2000/svg">
<path d="M39.5719 36.0268C38.3859 35.546 37.1038 35.3536 35.7896 35.3857C34.9563 35.3857 34.2191 35.3857 33.6101 35.4177C32.969 35.3857 32.5203 35.4178 32.2959 35.4498V46.2195C32.7446 46.2515 33.1613 46.2836 33.546 46.2836H35.2448C36.4948 46.2836 37.7449 46.0913 38.9308 45.7066C39.9565 45.4182 40.854 44.8092 41.5591 44.0079C42.2322 43.2065 42.5528 42.1168 42.5528 40.7064C42.5848 39.7128 42.3284 38.7192 41.8155 37.8538C41.2811 37.0215 40.4951 36.3815 39.5719 36.0268ZM71.304 10H21.6224C14.09 10 8 16.09 8 23.6224V71.3776C8 78.91 14.09 85 21.6224 85H71.304C78.8364 85 84.9264 78.91 84.9264 71.3776V23.6224C84.9264 16.09 78.8364 10 71.304 10ZM47.6139 47.3413C46.335 49.1363 44.54 50.4825 42.4566 51.2518C40.277 52.0531 37.8731 52.3416 35.2448 52.3416C34.4755 52.3416 33.9626 52.3415 33.6421 52.3095C33.3216 52.2774 32.8729 52.2774 32.2639 52.2774V62.5631C32.2959 62.7875 32.1356 62.983 31.9113 63.0151H25.6931C25.4366 63.0151 25.3084 62.8837 25.3084 62.5952V29.6162C25.3084 29.3919 25.4046 29.2636 25.629 29.2636C26.1739 29.2636 26.6867 29.2636 27.4239 29.2316C28.1932 29.1995 28.9945 29.1995 29.8599 29.1675C30.7253 29.1354 31.6549 29.1354 32.6485 29.1034C33.6421 29.0713 34.6037 29.0713 35.5653 29.0713C38.1936 29.0713 40.3732 29.3919 42.1681 30.065C43.7708 30.6099 45.2452 31.5073 46.4632 32.6933C47.4889 33.719 48.2902 34.969 48.803 36.3473C49.2806 37.6935 49.537 39.0718 49.537 40.5141C49.5402 43.2706 48.8992 45.5464 47.6139 47.3413ZM70.3424 59.8098C69.4449 61.0919 68.1917 62.0824 66.7525 62.6657C65.1819 63.3356 63.2588 63.685 60.9478 63.685C59.4766 63.685 58.031 63.56 56.5918 63.2715C55.47 63.076 54.3481 62.7266 53.3224 62.2458C53.0981 62.1208 52.9346 61.8964 52.9667 61.64V56.0629C52.9667 55.9699 53.0019 55.8385 53.0981 55.7744C53.191 55.7103 53.2904 55.7423 53.3866 55.8064C54.6366 56.5437 55.9508 57.0597 57.3611 57.377C58.5759 57.6975 59.858 57.8578 61.1433 57.8578C62.3613 57.8578 63.2267 57.6943 63.8037 57.4059C64.3165 57.1815 64.6691 56.6366 64.6691 56.0597C64.6691 55.6077 64.4127 55.1942 63.8998 54.7776C63.387 54.3641 62.3325 53.8833 60.7619 53.2679C59.1272 52.6909 57.6239 51.9217 56.2104 50.9633C55.2074 50.2449 54.3747 49.3148 53.7712 48.2388C53.2617 47.2247 53.0097 46.1008 53.0372 44.9662C53.0372 43.588 53.4218 42.2738 54.1302 41.0879C54.9315 39.8058 56.1142 38.7801 57.4925 38.139C58.9958 37.373 60.8869 37.0204 63.1626 37.0204C64.4768 37.0204 65.823 37.1165 67.1371 37.3089C68.0987 37.4371 69.0282 37.6935 69.8937 38.0461C70.0187 38.0781 70.1501 38.2063 70.2142 38.3345C70.2462 38.4628 70.2783 38.591 70.2783 38.7192V43.9438C70.2783 44.072 70.2142 44.2002 70.118 44.2643C69.8296 44.3284 69.6693 44.3284 69.5411 44.2643C68.5795 43.7514 67.5538 43.3989 66.464 43.1745C65.2781 42.9181 64.0921 42.7578 62.8741 42.7578C62.2331 42.7258 61.56 42.8219 60.9478 42.9822C60.5343 43.0783 60.1785 43.3027 59.9541 43.6232C59.7939 43.8797 59.6977 44.2002 59.6977 44.4887C59.6977 44.7771 59.8259 45.0656 60.0215 45.322C60.3099 45.6746 60.6914 45.9631 61.1112 46.1874C61.8452 46.5721 62.6177 46.9247 63.3838 47.2452C65.1178 47.8221 66.7846 48.6234 68.3231 49.585C69.3808 50.2549 70.2462 51.1556 70.852 52.2454C71.3649 53.2647 71.6213 54.3929 71.5893 55.5436C71.6245 57.0533 71.1758 58.5566 70.3424 59.8098Z" fill="#513A2D"/>
</svg>
