<svg width="77" height="75" viewBox="0 0 77 75" fill="none" xmlns="http://www.w3.org/2000/svg">
<path d="M31.5719 26.0268C30.3859 25.546 29.1038 25.3536 27.7896 25.3857C26.9563 25.3857 26.2191 25.3857 25.6101 25.4177C24.969 25.3857 24.5203 25.4178 24.2959 25.4498V36.2195C24.7446 36.2515 25.1613 36.2836 25.546 36.2836H27.2448C28.4948 36.2836 29.7449 36.0913 30.9308 35.7066C31.9565 35.4182 32.854 34.8092 33.5591 34.0079C34.2322 33.2065 34.5528 32.1168 34.5528 30.7064C34.5848 29.7128 34.3284 28.7192 33.8155 27.8538C33.2811 27.0215 32.4951 26.3815 31.5719 26.0268ZM63.304 0H13.6224C6.09 0 0 6.09 0 13.6224V61.3776C0 68.91 6.09 75 13.6224 75H63.304C70.8364 75 76.9264 68.91 76.9264 61.3776V13.6224C76.9264 6.09 70.8364 0 63.304 0ZM39.6139 37.3413C38.335 39.1363 36.54 40.4825 34.4566 41.2518C32.277 42.0531 29.8731 42.3416 27.2448 42.3416C26.4755 42.3416 25.9626 42.3415 25.6421 42.3095C25.3216 42.2774 24.8729 42.2774 24.2639 42.2774V52.5631C24.2959 52.7875 24.1356 52.983 23.9113 53.0151H17.6931C17.4366 53.0151 17.3084 52.8837 17.3084 52.5952V19.6162C17.3084 19.3919 17.4046 19.2636 17.629 19.2636C18.1739 19.2636 18.6867 19.2636 19.4239 19.2316C20.1932 19.1995 20.9945 19.1995 21.8599 19.1675C22.7253 19.1354 23.6549 19.1354 24.6485 19.1034C25.6421 19.0713 26.6037 19.0713 27.5653 19.0713C30.1936 19.0713 32.3732 19.3919 34.1681 20.065C35.7708 20.6099 37.2452 21.5073 38.4632 22.6933C39.4889 23.719 40.2902 24.969 40.803 26.3473C41.2806 27.6935 41.537 29.0718 41.537 30.5141C41.5402 33.2706 40.8992 35.5464 39.6139 37.3413ZM62.3424 49.8098C61.4449 51.0919 60.1917 52.0824 58.7525 52.6657C57.1819 53.3356 55.2588 53.685 52.9478 53.685C51.4766 53.685 50.031 53.56 48.5918 53.2715C47.47 53.076 46.3481 52.7266 45.3224 52.2458C45.0981 52.1208 44.9346 51.8964 44.9667 51.64V46.0629C44.9667 45.9699 45.0019 45.8385 45.0981 45.7744C45.191 45.7103 45.2904 45.7423 45.3866 45.8064C46.6366 46.5437 47.9508 47.0597 49.3611 47.377C50.5759 47.6975 51.858 47.8578 53.1433 47.8578C54.3613 47.8578 55.2267 47.6943 55.8037 47.4059C56.3165 47.1815 56.6691 46.6366 56.6691 46.0597C56.6691 45.6077 56.4127 45.1942 55.8998 44.7776C55.387 44.3641 54.3325 43.8833 52.7619 43.2679C51.1272 42.6909 49.6239 41.9217 48.2104 40.9633C47.2074 40.2449 46.3747 39.3148 45.7712 38.2388C45.2617 37.2247 45.0097 36.1008 45.0372 34.9662C45.0372 33.588 45.4218 32.2738 46.1302 31.0879C46.9315 29.8058 48.1142 28.7801 49.4925 28.139C50.9958 27.373 52.8869 27.0204 55.1626 27.0204C56.4768 27.0204 57.823 27.1165 59.1371 27.3089C60.0987 27.4371 61.0282 27.6935 61.8937 28.0461C62.0187 28.0781 62.1501 28.2063 62.2142 28.3345C62.2462 28.4628 62.2783 28.591 62.2783 28.7192V33.9438C62.2783 34.072 62.2142 34.2002 62.118 34.2643C61.8296 34.3284 61.6693 34.3284 61.5411 34.2643C60.5795 33.7514 59.5538 33.3989 58.464 33.1745C57.2781 32.9181 56.0921 32.7578 54.8741 32.7578C54.2331 32.7258 53.56 32.8219 52.9478 32.9822C52.5343 33.0783 52.1785 33.3027 51.9541 33.6232C51.7939 33.8797 51.6977 34.2002 51.6977 34.4887C51.6977 34.7771 51.8259 35.0656 52.0215 35.322C52.3099 35.6746 52.6914 35.9631 53.1112 36.1874C53.8452 36.5721 54.6177 36.9247 55.3838 37.2452C57.1178 37.8221 58.7846 38.6234 60.3231 39.585C61.3808 40.2549 62.2462 41.1556 62.852 42.2454C63.3649 43.2647 63.6213 44.3929 63.5893 45.5436C63.6245 47.0533 63.1758 48.5566 62.3424 49.8098Z" fill="#513A2D"/>
</svg>
