<svg width="77" height="76" viewBox="0 0 77 76" fill="none" xmlns="http://www.w3.org/2000/svg">
<path d="M60.3686 0.212402H16.5545C12.164 0.212402 7.95326 1.95653 4.8487 5.0611C1.74413 8.16567 0 12.3764 0 16.7669L0 58.6579C0 63.0484 1.74413 67.2591 4.8487 70.3637C7.95326 73.4683 12.164 75.2124 16.5545 75.2124H60.3686C64.7591 75.2124 68.9698 73.4683 72.0744 70.3637C75.1789 67.2591 76.9231 63.0484 76.9231 58.6579V16.7669C76.9231 12.3764 75.1789 8.16567 72.0744 5.0611C68.9698 1.95653 64.7591 0.212402 60.3686 0.212402ZM40.7981 53.0682H33.4679C32.9551 53.0682 32.5897 53.0489 32.3846 52.706C31.6955 51.363 31.0064 50.0297 30.3205 48.706C29.6113 47.344 28.8804 45.9934 28.1282 44.6547C27.3467 43.269 26.5806 41.8747 25.8301 40.472H25.7788C25.0841 41.8578 24.3704 43.234 23.6378 44.6002C22.9006 45.9752 22.1667 47.3438 21.4455 48.7028C20.725 50.0628 19.9867 51.4134 19.2308 52.7541C19.0897 53.065 18.8494 53.097 18.5032 53.097H11.4359C11.2981 53.097 11.2212 53.1515 11.2051 53.0137C11.1866 52.8876 11.2139 52.7591 11.2821 52.6515L21.2404 36.2893L11.5385 19.8855C11.4327 19.7477 11.4167 19.6355 11.4872 19.5425C11.5251 19.498 11.5731 19.4632 11.6272 19.4409C11.6812 19.4186 11.7398 19.4095 11.7981 19.4143H19.0737C19.2323 19.4077 19.3905 19.4339 19.5385 19.4912C19.6613 19.5618 19.7665 19.6594 19.8462 19.7765C20.4647 21.1547 21.1538 22.5297 21.9103 23.9047C22.6667 25.2797 23.4327 26.6387 24.2051 27.9816C24.9776 29.3246 25.6923 30.6836 26.3462 32.0586H26.3974C27.0801 30.6483 27.7756 29.2733 28.4872 27.9303C29.1987 26.5874 29.9199 25.238 30.6538 23.8791C31.3942 22.5169 32.1058 21.1643 32.7949 19.8278C32.8332 19.6989 32.9038 19.5819 33 19.488C33.1279 19.4243 33.2712 19.3977 33.4135 19.4111H40.1731C40.2491 19.3926 40.3294 19.4048 40.3966 19.4449C40.4637 19.4851 40.5124 19.5501 40.532 19.6259C40.5455 19.6803 40.5434 19.7375 40.5258 19.7908C40.5082 19.8441 40.4759 19.8914 40.4327 19.9271L40.4359 19.94L30.8365 35.7829L41.1058 52.6066C41.1731 52.7252 41.1891 52.863 41.157 52.9944C41.125 53.1098 41.0064 53.0329 40.7981 53.0682ZM65.4167 51.722C63.7391 52.4208 61.9921 52.9397 60.2051 53.2701C58.5697 53.5738 56.9102 53.7293 55.2468 53.7348C52.8724 53.7697 50.5199 53.2771 48.359 52.2925C46.3457 51.3603 44.6626 49.8393 43.532 47.9303C42.2895 45.7032 41.682 43.1777 41.7756 40.6291C41.7565 38.2606 42.3624 35.929 43.532 33.8694C44.7371 31.7713 46.5088 30.0552 48.6442 28.9175C51.3427 27.5074 54.3793 26.8728 57.4167 27.0842C57.6923 27.1002 58.0192 27.1259 58.3974 27.1611V16.9945C58.3974 16.7541 58.5 16.6323 58.7083 16.6323H65.2083C65.2806 16.6222 65.3538 16.6412 65.4121 16.685C65.4704 16.7289 65.5089 16.7941 65.5192 16.8662C65.5224 16.8918 65.5224 16.9176 65.5192 16.9432V47.4464C65.5192 48.0329 65.5449 48.6675 65.5961 49.3566C65.6474 50.0425 65.6923 50.6611 65.7244 51.2124C65.731 51.3186 65.7052 51.4243 65.6502 51.5153C65.5952 51.6064 65.5137 51.6785 65.4167 51.722ZM57.5417 33.0938C57.8301 33.1227 58.1154 33.1739 58.3942 33.2477V47.3342C58.0247 47.4441 57.6442 47.5129 57.2596 47.5393C56.8129 47.5753 56.3648 47.5924 55.9167 47.5906C55.0136 47.5948 54.1156 47.4552 53.2564 47.1771C52.4441 46.9214 51.7023 46.4803 51.0897 45.8887C50.4507 45.2447 49.9577 44.4708 49.6442 43.6194C49.2602 42.5611 49.0765 41.4405 49.1026 40.315C49.035 38.8803 49.4038 37.4589 50.1603 36.238C50.8429 35.2252 51.7756 34.4079 52.8686 33.863C53.9904 33.3086 55.2276 33.0233 56.4808 33.0361C56.8365 33.0425 57.1891 33.0586 57.5417 33.0938Z" fill="#513A2D"/>
</svg>
