<svg width="96" height="96" viewBox="0 0 96 96" fill="none" xmlns="http://www.w3.org/2000/svg">
<path d="M69.3686 10.2124H25.5545C21.164 10.2124 16.9533 11.9565 13.8487 15.0611C10.7441 18.1657 9 22.3764 9 26.7669L9 68.6579C9 73.0484 10.7441 77.2591 13.8487 80.3637C16.9533 83.4683 21.164 85.2124 25.5545 85.2124H69.3686C73.7591 85.2124 77.9698 83.4683 81.0744 80.3637C84.1789 77.2591 85.9231 73.0484 85.9231 68.6579V26.7669C85.9231 22.3764 84.1789 18.1657 81.0744 15.0611C77.9698 11.9565 73.7591 10.2124 69.3686 10.2124ZM49.7981 63.0682H42.4679C41.9551 63.0682 41.5897 63.0489 41.3846 62.706C40.6955 61.363 40.0064 60.0297 39.3205 58.706C38.6113 57.344 37.8804 55.9934 37.1282 54.6547C36.3467 53.269 35.5806 51.8747 34.8301 50.472H34.7788C34.0841 51.8578 33.3704 53.234 32.6378 54.6002C31.9006 55.9752 31.1667 57.3438 30.4455 58.7028C29.725 60.0628 28.9867 61.4134 28.2308 62.7541C28.0897 63.065 27.8494 63.097 27.5032 63.097H20.4359C20.2981 63.097 20.2212 63.1515 20.2051 63.0137C20.1866 62.8876 20.2139 62.7591 20.2821 62.6515L30.2404 46.2893L20.5385 29.8855C20.4327 29.7477 20.4167 29.6355 20.4872 29.5425C20.5251 29.498 20.5731 29.4632 20.6272 29.4409C20.6812 29.4186 20.7398 29.4095 20.7981 29.4143H28.0737C28.2323 29.4077 28.3905 29.4339 28.5385 29.4912C28.6613 29.5618 28.7665 29.6594 28.8462 29.7765C29.4647 31.1547 30.1538 32.5297 30.9103 33.9047C31.6667 35.2797 32.4327 36.6387 33.2051 37.9816C33.9776 39.3246 34.6923 40.6836 35.3462 42.0586H35.3974C36.0801 40.6483 36.7756 39.2733 37.4872 37.9303C38.1987 36.5874 38.9199 35.238 39.6538 33.8791C40.3942 32.5169 41.1058 31.1643 41.7949 29.8278C41.8332 29.6989 41.9038 29.5819 42 29.488C42.1279 29.4243 42.2712 29.3977 42.4135 29.4111H49.1731C49.2491 29.3926 49.3294 29.4048 49.3966 29.4449C49.4637 29.4851 49.5124 29.5501 49.532 29.6259C49.5455 29.6803 49.5434 29.7375 49.5258 29.7908C49.5082 29.8441 49.4759 29.8914 49.4327 29.9271L49.4359 29.94L39.8365 45.7829L50.1058 62.6066C50.1731 62.7252 50.1891 62.863 50.157 62.9944C50.125 63.1098 50.0064 63.0329 49.7981 63.0682ZM74.4167 61.722C72.7391 62.4208 70.9921 62.9397 69.2051 63.2701C67.5697 63.5738 65.9102 63.7293 64.2468 63.7348C61.8724 63.7697 59.5199 63.2771 57.359 62.2925C55.3457 61.3603 53.6626 59.8393 52.532 57.9303C51.2895 55.7032 50.682 53.1777 50.7756 50.6291C50.7565 48.2606 51.3624 45.929 52.532 43.8694C53.7371 41.7713 55.5088 40.0552 57.6442 38.9175C60.3427 37.5074 63.3793 36.8728 66.4167 37.0842C66.6923 37.1002 67.0192 37.1259 67.3974 37.1611V26.9945C67.3974 26.7541 67.5 26.6323 67.7083 26.6323H74.2083C74.2806 26.6222 74.3538 26.6412 74.4121 26.685C74.4704 26.7289 74.5089 26.7941 74.5192 26.8662C74.5224 26.8918 74.5224 26.9176 74.5192 26.9432V57.4464C74.5192 58.0329 74.5449 58.6675 74.5961 59.3566C74.6474 60.0425 74.6923 60.6611 74.7244 61.2124C74.731 61.3186 74.7052 61.4243 74.6502 61.5153C74.5952 61.6064 74.5137 61.6785 74.4167 61.722ZM66.5417 43.0938C66.8301 43.1227 67.1154 43.1739 67.3942 43.2477V57.3342C67.0247 57.4441 66.6442 57.5129 66.2596 57.5393C65.8129 57.5753 65.3648 57.5924 64.9167 57.5906C64.0136 57.5948 63.1156 57.4552 62.2564 57.1771C61.4441 56.9214 60.7023 56.4803 60.0897 55.8887C59.4507 55.2447 58.9577 54.4708 58.6442 53.6194C58.2602 52.5611 58.0765 51.4405 58.1026 50.315C58.035 48.8803 58.4038 47.4589 59.1603 46.238C59.8429 45.2252 60.7756 44.4079 61.8686 43.863C62.9904 43.3086 64.2276 43.0233 65.4808 43.0361C65.8365 43.0425 66.1891 43.0586 66.5417 43.0938Z" fill="#513A2D"/>
</svg>
