<svg width="349" height="404" viewBox="0 0 349 404" fill="none" xmlns="http://www.w3.org/2000/svg">
<path d="M281.558 162.058C281.198 162.114 280.851 162.241 280.54 162.431C280.228 162.62 279.957 162.87 279.742 163.165C279.527 163.459 279.373 163.794 279.288 164.148C279.203 164.503 279.189 164.87 279.247 165.23C282.266 184.418 279.943 204.066 272.533 222.025C265.123 239.985 252.909 255.565 237.228 267.065L236.068 267.858L235.925 267.969C229.282 272.905 223.893 279.33 220.19 286.725C216.488 294.121 214.577 302.28 214.61 310.547V315.163H190.618V270.261C190.692 270.256 190.766 270.256 190.84 270.261C191.958 270.265 193.065 270.049 194.099 269.624C195.133 269.2 196.072 268.576 196.863 267.788C197.655 267.001 198.282 266.065 198.71 265.034C199.138 264.004 199.358 262.899 199.357 261.783C199.357 260.846 199.729 259.948 200.392 259.285C201.055 258.622 201.954 258.248 202.892 258.246C205.14 258.244 207.295 257.352 208.884 255.765C210.473 254.179 211.367 252.028 211.369 249.784C211.371 248.848 211.745 247.95 212.409 247.288C213.074 246.627 213.974 246.255 214.912 246.255C217.158 246.253 219.31 245.362 220.898 243.777C222.486 242.192 223.379 240.043 223.381 237.801C223.385 236.673 223.158 235.556 222.714 234.518C222.553 234.136 222.362 233.767 222.142 233.416L229.975 225.597C233.128 222.449 235.63 218.713 237.336 214.601C239.043 210.488 239.922 206.081 239.922 201.63C239.923 197.178 239.045 192.771 237.339 188.658C235.633 184.546 233.132 180.809 229.979 177.661C226.826 174.513 223.083 172.016 218.963 170.313C214.844 168.609 210.429 167.732 205.969 167.731C201.51 167.731 197.095 168.607 192.975 170.311C188.855 172.014 185.112 174.51 181.958 177.657L174.3 185.302L166.649 177.657C160.281 171.3 151.644 167.729 142.637 167.729C133.631 167.729 124.993 171.3 118.625 177.657C112.257 184.014 108.679 192.637 108.679 201.627C108.679 210.617 112.257 219.239 118.625 225.597L134.895 241.838C134.439 243.176 134.309 244.603 134.516 246.001C134.723 247.398 135.262 248.727 136.087 249.875C136.912 251.023 138 251.957 139.261 252.601C140.521 253.245 141.917 253.579 143.332 253.575C143.265 254.786 143.447 255.997 143.865 257.136C144.283 258.274 144.929 259.315 145.764 260.196C146.599 261.076 147.606 261.777 148.722 262.256C149.837 262.735 151.039 262.981 152.254 262.981H152.469C152.42 264.671 152.857 266.34 153.729 267.79C154.6 269.241 155.869 270.411 157.386 271.165V315.202H133.942V310.587C133.975 302.325 132.065 294.17 128.365 286.78C124.666 279.389 119.281 272.967 112.643 268.032C112.182 267.683 111.721 267.342 111.245 267.017C97.8661 257.131 86.9889 244.259 79.4821 229.429C71.9753 214.599 68.0469 198.222 68.0108 181.607C68.0148 176.124 68.4371 170.649 69.274 165.23C69.3867 164.505 69.206 163.764 68.7717 163.171C68.5567 162.878 68.2858 162.63 67.9746 162.441C67.6635 162.252 67.318 162.126 66.9581 162.07C66.2312 161.957 65.4893 162.138 64.8956 162.571C64.3018 163.005 63.905 163.656 63.7922 164.382C60.6291 184.563 63.0786 205.223 70.8735 224.109C78.6683 242.995 91.5092 259.382 107.995 271.482L108.075 271.537C108.496 271.831 108.869 272.132 109.322 272.442C115.266 276.866 120.087 282.62 123.399 289.242C126.71 295.865 128.419 303.17 128.389 310.571V316.21C128.391 317.407 128.869 318.555 129.718 319.401C130.567 320.247 131.718 320.722 132.917 320.722H215.627C216.827 320.722 217.977 320.247 218.826 319.401C219.675 318.555 220.153 317.407 220.156 316.21V310.571C220.126 303.162 221.841 295.849 225.161 289.222C228.481 282.595 233.314 276.839 239.27 272.418L239.381 272.331C239.72 272.077 240.062 271.831 240.406 271.593L240.477 271.537C254.057 261.543 265.217 248.635 273.137 233.765C281.316 218.407 285.742 201.336 286.055 183.946C286.189 177.393 285.745 170.841 284.728 164.366C284.672 164.006 284.546 163.662 284.356 163.351C284.166 163.041 283.917 162.77 283.623 162.556C283.328 162.342 282.994 162.187 282.64 162.102C282.286 162.017 281.918 162.002 281.558 162.058V162.058ZM177.756 188.784L185.414 181.139C188.11 178.449 191.309 176.315 194.831 174.859C198.352 173.404 202.126 172.655 205.938 172.655C209.749 172.655 213.523 173.405 217.044 174.861C220.565 176.318 223.765 178.452 226.459 181.143C229.154 183.833 231.292 187.027 232.75 190.542C234.208 194.058 234.959 197.825 234.958 201.63C234.958 205.434 234.207 209.202 232.748 212.717C231.289 216.231 229.151 219.425 226.455 222.115L218.797 229.76L186.94 197.951L165.99 218.848C164.763 220.009 163.129 220.647 161.438 220.624C159.747 220.602 158.131 219.921 156.935 218.727C155.739 217.533 155.057 215.92 155.035 214.232C155.012 212.544 155.651 210.914 156.814 209.688L177.756 188.784ZM122.081 222.091C116.766 216.631 113.818 209.302 113.873 201.69C113.928 194.077 116.982 186.791 122.374 181.408C127.767 176.025 135.066 172.976 142.692 172.921C150.318 172.867 157.66 175.81 163.13 181.115L170.781 188.76L153.303 206.207C151.162 208.345 149.959 211.245 149.959 214.268C149.959 217.291 151.162 220.191 153.303 222.329C155.305 224.328 157.977 225.515 160.805 225.661C163.632 225.808 166.413 224.903 168.612 223.122C168.906 222.873 169.187 222.608 169.454 222.329L186.932 204.882L217.121 234.978L217.415 235.28C217.752 235.599 218.022 235.981 218.209 236.406C218.392 236.837 218.484 237.301 218.479 237.77C218.477 238.705 218.104 239.601 217.441 240.263C216.779 240.924 215.881 241.297 214.944 241.299C212.699 241.301 210.546 242.192 208.958 243.777C207.37 245.362 206.477 247.511 206.475 249.753C206.473 250.691 206.098 251.591 205.432 252.254C204.766 252.917 203.864 253.29 202.924 253.29C200.677 253.292 198.523 254.184 196.935 255.771C195.347 257.357 194.455 259.509 194.455 261.751C194.453 262.687 194.08 263.583 193.417 264.244C192.755 264.906 191.857 265.278 190.92 265.28C188.872 265.284 186.895 266.031 185.359 267.382C185.362 267.366 185.362 267.35 185.359 267.334C185.391 267.021 185.407 266.706 185.406 266.391C185.41 265.222 185.183 264.064 184.737 262.983C184.291 261.903 183.636 260.921 182.808 260.094C182.559 259.849 182.294 259.621 182.014 259.412C181.933 259.344 181.848 259.281 181.76 259.222C181.569 259.079 181.378 258.952 181.18 258.825C180.981 258.698 180.973 258.698 180.862 258.643C180.667 258.529 180.465 258.425 180.258 258.333C180.163 258.286 180.06 258.23 179.956 258.191C179.653 258.06 179.343 257.947 179.027 257.85C179.027 257.802 179.075 257.747 179.106 257.691C179.249 257.445 179.384 257.191 179.504 256.898C179.543 256.827 179.575 256.747 179.615 256.676C179.754 256.345 179.873 256.006 179.972 255.661C179.972 255.589 180.012 255.51 180.036 255.431C180.107 255.145 180.163 254.86 180.211 254.574L180.258 254.273C180.302 253.904 180.326 253.534 180.33 253.163C180.333 251.992 180.105 250.833 179.657 249.751C179.21 248.669 178.553 247.686 177.724 246.858C177.405 246.544 177.062 246.255 176.699 245.994L176.485 245.835C176.138 245.595 175.774 245.381 175.396 245.193L175.158 245.082C174.765 244.896 174.359 244.739 173.942 244.614H173.895C173.463 244.489 173.022 244.399 172.576 244.344H172.473C172.473 244.162 172.536 243.963 172.56 243.773C172.584 243.583 172.56 243.583 172.56 243.488C172.576 243.194 172.576 242.901 172.56 242.607C172.576 241.262 172.281 239.932 171.696 238.72C171.112 237.508 170.255 236.447 169.192 235.621L168.937 235.43C168.747 235.295 168.556 235.161 168.365 235.042L168.056 234.859C167.865 234.748 167.674 234.653 167.476 234.558L167.166 234.415C166.943 234.32 166.705 234.233 166.475 234.154C166.402 234.125 166.328 234.101 166.252 234.082C165.941 233.987 165.626 233.908 165.307 233.844H165.148C164.878 233.805 164.616 233.765 164.353 233.749H164.044C163.824 233.737 163.604 233.737 163.384 233.749H163.043C162.828 233.749 162.606 233.749 162.391 233.82C162.317 233.817 162.243 233.817 162.169 233.82V233.82C162.137 233.561 162.097 233.297 162.05 233.027C162.05 232.94 162.05 232.853 161.994 232.766C161.938 232.678 161.907 232.401 161.859 232.226L161.764 231.925C161.708 231.766 161.652 231.608 161.589 231.449C161.525 231.291 161.509 231.243 161.462 231.148C161.398 230.993 161.327 230.843 161.247 230.696C161.2 230.601 161.152 230.498 161.096 230.402C161.041 230.307 160.921 230.109 160.834 229.966L160.667 229.705L160.334 229.252L160.167 229.038C159.989 228.823 159.801 228.616 159.603 228.42C158.982 227.792 158.272 227.258 157.497 226.834C156.201 226.146 154.755 225.789 153.287 225.795V225.795C151.525 225.791 149.803 226.31 148.337 227.286C147.848 227.608 147.392 227.981 146.979 228.396L137.692 237.675L122.081 222.091ZM180.076 275.312L182.372 273.02C182.372 273.258 182.372 273.504 182.372 273.75C182.373 274.212 182.283 274.67 182.108 275.097C181.932 275.524 181.673 275.913 181.347 276.24C180.936 276.648 180.433 276.951 179.879 277.122C179.326 277.294 178.739 277.328 178.169 277.224L180.076 275.312ZM173.291 275.114C173.124 275.28 172.943 275.431 172.751 275.566C171.986 276.139 171.04 276.417 170.086 276.349C169.132 276.282 168.235 275.873 167.559 275.198C166.883 274.523 166.473 273.627 166.405 272.675C166.337 271.723 166.616 270.778 167.19 270.015C167.323 269.819 167.475 269.635 167.643 269.468L173.545 263.575C173.733 263.387 173.941 263.22 174.165 263.076C174.311 262.986 174.463 262.904 174.618 262.83L174.848 262.719C175.828 262.317 176.927 262.317 177.907 262.719C177.959 262.738 178.01 262.762 178.058 262.79C178.242 262.873 178.42 262.968 178.59 263.076C179.079 263.406 179.489 263.839 179.792 264.345C180.095 264.851 180.282 265.418 180.342 266.004C180.401 266.59 180.33 267.183 180.134 267.739C179.939 268.295 179.623 268.801 179.21 269.222L173.291 275.114ZM145.668 247.881C145.587 247.951 145.502 248.018 145.414 248.079C144.65 248.585 143.734 248.811 142.823 248.72C141.911 248.628 141.059 248.225 140.411 247.578C139.763 246.931 139.358 246.08 139.267 245.17C139.175 244.26 139.402 243.346 139.908 242.584C140.074 242.322 140.269 242.08 140.488 241.862L150.474 231.893C150.845 231.524 151.285 231.232 151.769 231.033C152.253 230.835 152.771 230.734 153.295 230.736V230.736C154.089 230.724 154.869 230.951 155.533 231.387C156.197 231.823 156.715 232.448 157.019 233.181C157.324 233.913 157.401 234.72 157.242 235.498C157.082 236.275 156.692 236.986 156.123 237.54L146.129 247.5C145.988 247.641 145.833 247.769 145.668 247.881ZM155.043 256.882C154.879 257.052 154.698 257.203 154.502 257.334C153.737 257.907 152.791 258.185 151.837 258.117C150.884 258.05 149.986 257.641 149.31 256.966C148.634 256.291 148.224 255.395 148.157 254.443C148.089 253.491 148.367 252.546 148.941 251.783V251.783C149.074 251.596 149.223 251.42 149.386 251.259L149.632 251.014L159.634 241.021L160.85 239.808C161.038 239.62 161.246 239.452 161.47 239.308C161.623 239.213 161.782 239.128 161.946 239.055L162.153 238.943C162.638 238.75 163.156 238.65 163.678 238.65C164.206 238.65 164.729 238.75 165.219 238.943L165.291 238.991C165.502 239.076 165.705 239.182 165.895 239.308C166.115 239.454 166.32 239.622 166.506 239.808C167.252 240.561 167.67 241.576 167.67 242.635C167.67 243.694 167.252 244.71 166.506 245.462L155.043 256.882ZM158.53 266.01C157.874 265.34 157.472 264.464 157.392 263.531C157.312 262.598 157.56 261.666 158.093 260.895V260.895C158.225 260.709 158.371 260.534 158.53 260.371L168.516 250.411C168.705 250.224 168.91 250.055 169.128 249.903C169.263 249.824 169.406 249.761 169.549 249.689C169.637 249.637 169.727 249.589 169.819 249.546C170.303 249.346 170.821 249.242 171.345 249.242C171.868 249.242 172.387 249.346 172.87 249.546C172.965 249.546 173.045 249.642 173.14 249.689C173.235 249.737 173.426 249.824 173.553 249.903C173.775 250.052 173.983 250.222 174.173 250.411C174.916 251.163 175.333 252.177 175.333 253.234C175.333 254.291 174.916 255.305 174.173 256.057L164.187 266.018C164.018 266.184 163.837 266.338 163.646 266.478C162.876 267.017 161.939 267.266 161.002 267.181C160.065 267.095 159.189 266.68 158.53 266.01V266.01ZM185.7 315.179H162.288V275.788C163.186 277.944 164.904 279.656 167.065 280.548C169.227 281.44 171.654 281.44 173.815 280.546C175.443 281.756 177.452 282.342 179.477 282.196C181.501 282.051 183.405 281.184 184.842 279.753C185.154 279.435 185.441 279.093 185.7 278.73V315.179Z" fill="#231816"/>
<path d="M215.198 325.512H133.187C131.704 325.512 130.502 326.712 130.502 328.192V329.905C130.502 331.386 131.704 332.586 133.187 332.586H215.198C216.681 332.586 217.883 331.386 217.883 329.905V328.192C217.883 326.712 216.681 325.512 215.198 325.512Z" fill="#231816"/>
<path d="M134.522 343.768L186.431 336.749H133.672H133.568C133.092 336.792 132.629 336.932 132.208 337.158C131.786 337.385 131.416 337.694 131.117 338.068C130.819 338.442 130.6 338.872 130.473 339.333C130.346 339.793 130.314 340.275 130.378 340.748C130.442 341.221 130.602 341.677 130.848 342.087C131.093 342.497 131.42 342.853 131.807 343.134C132.194 343.414 132.634 343.614 133.101 343.72C133.568 343.826 134.051 343.837 134.522 343.752V343.768Z" fill="#231816"/>
<path d="M216.723 340.35C216.594 339.424 216.105 338.586 215.361 338.019C214.617 337.452 213.679 337.201 212.751 337.32L133.163 348.106C132.231 348.232 131.389 348.722 130.819 349.469C130.25 350.215 130.001 351.157 130.128 352.087C130.254 353.016 130.746 353.858 131.493 354.426C132.241 354.994 133.185 355.242 134.116 355.116L213.656 344.354C214.584 344.226 215.423 343.738 215.991 342.995C216.559 342.253 216.811 341.316 216.691 340.389L216.723 340.35Z" fill="#231816"/>
<path d="M212.735 348.693L133.163 359.454C132.231 359.58 131.389 360.071 130.819 360.817C130.25 361.564 130.001 362.505 130.128 363.435C130.254 364.365 130.746 365.206 131.493 365.774C132.241 366.343 133.185 366.591 134.116 366.465L213.656 355.695C214.133 355.652 214.596 355.513 215.017 355.286C215.438 355.059 215.809 354.75 216.107 354.376C216.405 354.002 216.625 353.572 216.752 353.112C216.879 352.651 216.911 352.17 216.847 351.696C216.782 351.223 216.622 350.767 216.377 350.357C216.131 349.947 215.805 349.591 215.418 349.311C215.03 349.03 214.59 348.83 214.124 348.724C213.657 348.618 213.174 348.607 212.703 348.693H212.735Z" fill="#231816"/>
<path d="M212.735 359.914L133.163 370.676C132.231 370.802 131.389 371.292 130.819 372.039C130.25 372.785 130.001 373.727 130.128 374.657C130.254 375.586 130.746 376.428 131.493 376.996C132.241 377.564 133.185 377.812 134.116 377.686L213.656 366.917C214.133 366.873 214.596 366.734 215.017 366.508C215.438 366.281 215.809 365.971 216.107 365.598C216.405 365.224 216.625 364.794 216.752 364.333C216.879 363.873 216.911 363.391 216.847 362.918C216.782 362.444 216.622 361.989 216.377 361.579C216.131 361.169 215.805 360.813 215.418 360.532C215.03 360.251 214.59 360.052 214.124 359.946C213.657 359.84 213.174 359.829 212.703 359.914H212.735Z" fill="#231816"/>
<path d="M137.508 381.54C141.316 388.824 147.281 394.759 154.591 398.535C161.901 402.311 170.199 403.746 178.355 402.643C186.511 401.54 194.128 397.953 200.168 392.372C206.208 386.79 210.377 379.485 212.106 371.453L137.508 381.54Z" fill="#231816"/>
<path d="M52.3833 145.063C53.0417 145.064 53.6789 144.831 54.1808 144.405C54.6827 143.98 55.0165 143.39 55.1226 142.741C55.2287 142.093 55.1 141.427 54.7597 140.865C54.4194 140.302 53.8896 139.879 53.2651 139.67L3.69159 123.136C3.34463 123.014 2.97687 122.962 2.60975 122.984C2.24263 123.005 1.8835 123.1 1.55322 123.261C1.22294 123.423 0.928101 123.648 0.68594 123.924C0.443779 124.201 0.259118 124.522 0.142666 124.87C0.0262147 125.219 -0.0196643 125.586 0.00767229 125.953C0.0350088 126.319 0.135024 126.676 0.301905 127.003C0.468786 127.33 0.69917 127.621 0.979688 127.858C1.26021 128.095 1.58524 128.275 1.93585 128.385L51.5015 144.92C51.786 145.014 52.0837 145.062 52.3833 145.063Z" fill="#231816"/>
<path d="M18.6757 91.176L50.5649 110.645C51.0015 110.908 51.5011 111.047 52.0108 111.05C52.6157 111.05 53.2042 110.853 53.6866 110.489C54.169 110.125 54.5188 109.613 54.6826 109.031C54.8464 108.45 54.8153 107.831 54.5939 107.269C54.3726 106.707 53.9732 106.233 53.4566 105.919L21.5675 86.4495C20.9354 86.0667 20.1769 85.9502 19.4587 86.1257C18.7406 86.3012 18.1218 86.7543 17.7383 87.3853C17.3548 88.0163 17.2381 88.7734 17.414 89.4903C17.5898 90.2071 18.0436 90.8249 18.6757 91.2077V91.176Z" fill="#231816"/>
<path d="M80.9835 95.5377C81.241 95.7953 81.5469 95.9996 81.8836 96.139C82.2203 96.2784 82.5812 96.3501 82.9457 96.3501C83.3103 96.3501 83.6712 96.2784 84.0079 96.139C84.3447 95.9996 84.6505 95.7953 84.9081 95.5377C85.4271 95.0175 85.7186 94.3132 85.7186 93.579C85.7186 92.8447 85.4271 92.1403 84.9081 91.6201L47.283 54.7516C46.7563 54.2374 46.0464 53.9531 45.3097 53.9612C44.5729 53.9694 43.8696 54.2694 43.3545 54.7952C42.8393 55.321 42.5545 56.0296 42.5627 56.765C42.5709 57.5005 42.8714 58.2026 43.3981 58.7168L80.9835 95.5377Z" fill="#231816"/>
<path d="M111.665 90.3036C112.062 90.9199 112.688 91.3547 113.405 91.5135C114.121 91.6724 114.872 91.5426 115.494 91.1522C115.802 90.9563 116.068 90.7017 116.277 90.403C116.486 90.1043 116.634 89.7674 116.712 89.4115C116.79 89.0556 116.797 88.6878 116.733 88.3292C116.668 87.9706 116.533 87.6282 116.336 87.3218L79.3465 29.5328C78.9457 28.9249 78.3212 28.499 77.6082 28.3474C76.8951 28.1957 76.1509 28.3305 75.5367 28.7226C74.9225 29.1146 74.4878 29.7324 74.3265 30.4421C74.1652 31.1519 74.2905 31.8964 74.6751 32.5146L111.665 90.3036Z" fill="#231816"/>
<path d="M134.252 78.987C134.445 79.5249 134.8 79.9903 135.267 80.3196C135.735 80.6489 136.293 80.826 136.866 80.8269C137.183 80.829 137.497 80.7753 137.795 80.6682C138.139 80.5466 138.455 80.3585 138.725 80.1148C138.996 79.8712 139.215 79.5767 139.372 79.2482C139.528 78.9197 139.618 78.5637 139.637 78.2004C139.655 77.8372 139.602 77.4739 139.479 77.1313L116.329 12.205C116.083 11.513 115.571 10.9471 114.906 10.6318C114.242 10.3165 113.479 10.2776 112.786 10.5237C112.093 10.7698 111.526 11.2807 111.21 11.944C110.894 12.6073 110.855 13.3687 111.102 14.0607L134.252 78.987Z" fill="#231816"/>
<path d="M158.744 73.0946C158.82 73.769 159.143 74.3917 159.65 74.8437C160.157 75.2958 160.813 75.5455 161.493 75.5451H161.819C162.549 75.4596 163.215 75.0883 163.671 74.5129C164.126 73.9374 164.335 73.2047 164.25 72.476L156.305 3.64793C156.263 3.28655 156.151 2.93692 155.974 2.619C155.797 2.30107 155.559 2.02108 155.273 1.795C154.988 1.56892 154.66 1.40119 154.31 1.30138C153.959 1.20158 153.593 1.17163 153.231 1.21329C152.869 1.25495 152.518 1.36739 152.2 1.54417C151.881 1.72095 151.601 1.95861 151.374 2.2436C151.148 2.52859 150.98 2.85533 150.88 3.20514C150.78 3.55495 150.75 3.921 150.792 4.28238L158.744 73.0946Z" fill="#231816"/>
<path d="M186.423 74.7679H186.733C187.416 74.7681 188.075 74.5164 188.584 74.0613C189.093 73.6061 189.415 72.9795 189.49 72.3016L197.117 4.17136C197.157 3.80998 197.125 3.44425 197.024 3.09504C196.922 2.74582 196.753 2.41998 196.525 2.13609C196.298 1.85221 196.016 1.61585 195.697 1.44051C195.378 1.26517 195.028 1.15427 194.666 1.11417C194.304 1.07408 193.937 1.10557 193.587 1.20682C193.238 1.30807 192.911 1.4771 192.627 1.70428C192.342 1.93147 192.106 2.21234 191.93 2.53087C191.754 2.8494 191.643 3.19935 191.603 3.56072L183.976 71.6909C183.933 72.0536 183.962 72.4212 184.062 72.7725C184.162 73.1238 184.331 73.4519 184.558 73.7379C184.785 74.024 185.067 74.2622 185.388 74.439C185.708 74.6158 186.06 74.7276 186.423 74.7679V74.7679Z" fill="#231816"/>
<path d="M210.614 79.9148C210.91 80.0206 211.222 80.0743 211.536 80.0734C212.11 80.0725 212.67 79.8945 213.14 79.5638C213.609 79.233 213.964 78.7656 214.157 78.2256L236.791 13.9179C237.036 13.2248 236.994 12.4633 236.676 11.8007C236.358 11.1381 235.789 10.6288 235.095 10.3849C234.401 10.1409 233.638 10.1822 232.974 10.4997C232.31 10.8173 231.8 11.385 231.556 12.078L208.89 76.3858C208.77 76.7304 208.72 77.0954 208.741 77.4596C208.763 77.8239 208.857 78.1803 209.017 78.5083C209.177 78.8363 209.401 79.1294 209.675 79.3708C209.949 79.6122 210.268 79.797 210.614 79.9148V79.9148Z" fill="#231816"/>
<path d="M232.636 91.1523C233.077 91.4329 233.59 91.5815 234.113 91.5805C234.587 91.5869 235.055 91.4723 235.472 91.2474C235.889 91.0226 236.242 90.695 236.497 90.2958L273.24 32.2927C273.634 31.6722 273.765 30.9209 273.604 30.2041C273.443 29.4872 273.003 28.8636 272.382 28.4702C271.76 28.0769 271.008 27.9462 270.289 28.1068C269.571 28.2674 268.947 28.7062 268.553 29.3267L231.778 87.3694C231.395 87.9864 231.271 88.7285 231.432 89.436C231.592 90.1434 232.025 90.7597 232.636 91.1523V91.1523Z" fill="#231816"/>
<path d="M251.948 106.498C252.205 106.755 252.511 106.959 252.848 107.099C253.185 107.238 253.546 107.31 253.91 107.31C254.275 107.31 254.636 107.238 254.972 107.099C255.309 106.959 255.615 106.755 255.872 106.498L304.667 58.352C305.194 57.8356 305.494 57.1316 305.501 56.3946C305.507 55.6577 305.22 54.9483 304.703 54.4225C304.186 53.8967 303.481 53.5975 302.742 53.5908C302.004 53.5841 301.293 53.8704 300.767 54.3868L251.972 102.524C251.705 102.781 251.492 103.089 251.346 103.429C251.2 103.77 251.123 104.136 251.121 104.506C251.119 104.876 251.191 105.243 251.333 105.585C251.475 105.927 251.684 106.237 251.948 106.498Z" fill="#231816"/>
<path d="M291.806 110.82C292.193 111.445 292.813 111.891 293.529 112.06C294.246 112.23 295 112.109 295.627 111.724L329.399 90.835C329.709 90.6439 329.978 90.3938 330.191 90.0988C330.404 89.8039 330.557 89.47 330.641 89.1162C330.724 88.7623 330.738 88.3955 330.679 88.0366C330.621 87.6777 330.492 87.3338 330.301 87.0244C330.11 86.7151 329.859 86.4465 329.564 86.2339C329.268 86.0212 328.934 85.8688 328.579 85.7852C327.863 85.6164 327.11 85.7384 326.484 86.1243L292.712 107.013C292.086 107.398 291.639 108.015 291.47 108.729C291.3 109.443 291.421 110.195 291.806 110.82Z" fill="#231816"/>
<path d="M347.918 124.5C347.682 123.804 347.178 123.231 346.518 122.905C345.859 122.58 345.096 122.528 344.399 122.763L302.579 136.879C301.954 137.087 301.424 137.512 301.084 138.075C300.743 138.638 300.615 139.305 300.722 139.954C300.83 140.603 301.165 141.193 301.668 141.618C302.172 142.042 302.81 142.274 303.469 142.272C303.772 142.272 304.073 142.221 304.359 142.121L346.179 128.013C346.524 127.896 346.843 127.713 347.118 127.474C347.393 127.234 347.617 126.943 347.779 126.616C347.94 126.29 348.036 125.935 348.06 125.572C348.084 125.209 348.036 124.844 347.918 124.5V124.5Z" fill="#231816"/>
<path d="M30.4717 154.707C31.0302 154.699 31.5665 154.487 31.9788 154.111C32.3912 153.735 32.6509 153.221 32.7087 152.666C32.7665 152.112 32.6183 151.555 32.2924 151.103C31.9664 150.65 31.4854 150.332 30.9404 150.21L24.0526 148.743C23.7547 148.666 23.4443 148.651 23.1403 148.697C22.8363 148.744 22.5448 148.851 22.2834 149.013C22.022 149.175 21.7962 149.388 21.6194 149.639C21.4426 149.89 21.3185 150.175 21.2547 150.475C21.1909 150.775 21.1886 151.085 21.248 151.387C21.3074 151.688 21.4272 151.974 21.6003 152.228C21.7733 152.482 21.9961 152.698 22.255 152.864C22.514 153.029 22.8039 153.141 23.1072 153.192L29.995 154.651C30.151 154.689 30.3111 154.708 30.4717 154.707Z" fill="#231816"/>
<path d="M35.6208 115.974C35.0773 115.748 34.4669 115.739 33.9175 115.952C33.3681 116.164 32.9224 116.581 32.6738 117.114C32.4253 117.647 32.3931 118.256 32.584 118.812C32.775 119.368 33.1743 119.829 33.6982 120.098L40.0538 123.064C40.5973 123.291 41.2078 123.299 41.7571 123.087C42.3065 122.874 42.7522 122.458 43.0008 121.925C43.2494 121.392 43.2816 120.783 43.0906 120.227C42.8996 119.67 42.5003 119.209 41.9764 118.94L35.6208 115.974Z" fill="#231816"/>
<path d="M9.48338 108.829L20.9473 114.158C21.2493 114.296 21.5767 114.369 21.9086 114.372C22.4246 114.37 22.9244 114.192 23.3263 113.869C23.7281 113.545 24.0082 113.096 24.1207 112.593C24.2333 112.09 24.1716 111.564 23.9458 111.101C23.7201 110.637 23.3435 110.264 22.8778 110.043L11.4059 104.705C10.8624 104.478 10.252 104.47 9.7026 104.683C9.15322 104.895 8.70758 105.312 8.459 105.845C8.21042 106.378 8.17823 106.987 8.3692 107.543C8.56017 108.099 8.95946 108.56 9.48338 108.829V108.829Z" fill="#231816"/>
<path d="M30.3931 73.8085L40.3634 81.5723C40.8417 81.9144 41.434 82.0587 42.0163 81.9749C42.5987 81.8912 43.1261 81.5859 43.4883 81.123C43.8504 80.6601 44.0193 80.0754 43.9596 79.4911C43.8999 78.9067 43.6162 78.3681 43.1678 77.9878L33.1896 70.2239C32.9538 70.0406 32.6841 69.9054 32.396 69.8262C32.1079 69.7469 31.807 69.7251 31.5104 69.7619C31.2139 69.7987 30.9275 69.8935 30.6676 70.0408C30.4077 70.1881 30.1795 70.385 29.9959 70.6204C29.8122 70.8558 29.6768 71.1249 29.5974 71.4125C29.518 71.7001 29.4961 72.0005 29.533 72.2965C29.5699 72.5926 29.6649 72.8785 29.8124 73.1379C29.96 73.3973 30.1573 73.6252 30.3931 73.8085V73.8085Z" fill="#231816"/>
<path d="M91.3584 81.0251C90.8974 81.4047 90.6042 81.9498 90.5418 82.5431C90.4794 83.1364 90.6528 83.7304 91.0247 84.1973L95.5054 89.59C95.7202 89.852 95.9904 90.0633 96.2968 90.2087C96.6031 90.354 96.9379 90.4298 97.277 90.4306C97.7075 90.4295 98.1289 90.3068 98.4924 90.0767C98.8559 89.8465 99.1468 89.5183 99.3313 89.13C99.5158 88.7418 99.5864 88.3093 99.535 87.8827C99.4835 87.456 99.3122 87.0526 99.0407 86.7192L94.56 81.3265C94.1746 80.8641 93.6214 80.5729 93.0215 80.5164C92.4215 80.4599 91.8236 80.6428 91.3584 81.0251Z" fill="#231816"/>
<path d="M75.8361 61.897C75.3734 62.2754 75.0788 62.8207 75.0163 63.4146C74.9539 64.0085 75.1285 64.603 75.5024 65.0691L79.9355 70.5253C80.1167 70.7771 80.3477 70.9894 80.614 71.1489C80.8804 71.3085 81.1766 71.412 81.4846 71.4532C81.7925 71.4944 82.1056 71.4723 82.4046 71.3883C82.7037 71.3044 82.9824 71.1602 83.2237 70.9649C83.4649 70.7695 83.6637 70.527 83.8077 70.2522C83.9517 69.9774 84.0379 69.6761 84.061 69.3668C84.0841 69.0576 84.0437 68.7468 83.9422 68.4537C83.8407 68.1606 83.6803 67.8914 83.4708 67.6624L79.0377 62.2063C78.8481 61.9758 78.6147 61.785 78.351 61.6447C78.0874 61.5044 77.7986 61.4174 77.5012 61.3887C77.2038 61.36 76.9037 61.3901 76.618 61.4773C76.3323 61.5645 76.0666 61.7071 75.8361 61.897Z" fill="#231816"/>
<path d="M66.6285 54.1806C67.0146 54.6314 67.5616 54.9139 68.1532 54.9681C68.7448 55.0222 69.3343 54.8438 69.796 54.4707C70.2578 54.0976 70.5554 53.5593 70.6256 52.9704C70.6958 52.3815 70.533 51.7885 70.1718 51.3177L62.2273 41.5078C61.8351 41.0791 61.2935 40.8163 60.7136 40.773C60.1336 40.7298 59.559 40.9095 59.1073 41.2752C58.6556 41.641 58.3611 42.1652 58.2839 42.7406C58.2067 43.3161 58.3527 43.8992 58.692 44.3707L66.6285 54.1806Z" fill="#231816"/>
<path d="M114.54 61.199C114.213 61.3588 113.921 61.5814 113.68 61.854C113.439 62.1266 113.254 62.444 113.136 62.7879C113.018 63.1318 112.969 63.4956 112.992 63.8584C113.015 64.2213 113.109 64.576 113.269 64.9025L122.691 84.1258C122.914 84.5989 123.267 84.9991 123.708 85.2798C124.15 85.5606 124.662 85.7105 125.186 85.7119C125.654 85.7118 126.115 85.5929 126.525 85.3663C126.935 85.1398 127.28 84.8129 127.529 84.4165C127.777 84.0201 127.921 83.5671 127.946 83.1001C127.971 82.6331 127.877 82.1674 127.672 81.7467L118.25 62.5234C118.095 62.192 117.876 61.8947 117.605 61.6484C117.334 61.4022 117.017 61.212 116.672 61.0889C116.327 60.9657 115.961 60.912 115.595 60.9309C115.229 60.9498 114.871 61.041 114.54 61.199V61.199Z" fill="#231816"/>
<path d="M103.038 43.9821L103.833 45.6396C104.057 46.1115 104.41 46.5106 104.851 46.7912C105.293 47.0717 105.804 47.2224 106.327 47.2257C106.748 47.2273 107.164 47.1324 107.543 46.9481C108.205 46.6252 108.712 46.0528 108.952 45.3568C109.192 44.6608 109.145 43.8982 108.822 43.2367L108.027 41.5792C107.704 40.9198 107.131 40.4157 106.436 40.1778C105.74 39.9398 104.978 39.9875 104.317 40.3104C103.657 40.6332 103.152 41.2048 102.913 41.8993C102.675 42.5939 102.723 43.3545 103.046 44.0139L103.038 43.9821Z" fill="#231816"/>
<path d="M97.9447 33.5932C98.2908 34.2144 98.8624 34.6794 99.5417 34.8923C100.221 35.1053 100.956 35.05 101.596 34.7378C102.236 34.4257 102.731 33.8804 102.98 33.2145C103.229 32.5486 103.212 31.8127 102.934 31.1586L97.3727 19.8102C97.0267 19.189 96.4551 18.724 95.7757 18.5111C95.0964 18.2981 94.3612 18.3534 93.7215 18.6656C93.0818 18.9777 92.5865 19.5229 92.3376 20.1889C92.0887 20.8548 92.1051 21.5907 92.3836 22.2448L97.9447 33.5932Z" fill="#231816"/>
<path d="M138.247 28.3274C137.892 28.4087 137.556 28.5593 137.259 28.7705C136.962 28.9818 136.71 29.2495 136.518 29.5583C136.325 29.8671 136.195 30.211 136.136 30.57C136.077 30.929 136.09 31.2961 136.173 31.6503L136.594 33.4426C136.739 34.0502 137.084 34.5917 137.573 34.9801C138.063 35.3684 138.67 35.5811 139.295 35.5838C139.509 35.5836 139.722 35.5596 139.931 35.5124C140.286 35.4302 140.621 35.279 140.917 35.0675C141.213 34.856 141.465 34.5883 141.657 34.2797C141.85 33.9712 141.98 33.6278 142.039 33.2691C142.099 32.9105 142.087 32.5437 142.005 32.1896L141.591 30.4369C141.515 30.077 141.366 29.7361 141.156 29.4342C140.945 29.1323 140.676 28.8756 140.364 28.679C140.053 28.4825 139.705 28.3501 139.341 28.2897C138.977 28.2294 138.605 28.2422 138.247 28.3274Z" fill="#231816"/>
<path d="M141.434 54.2441L146.288 75.0932C146.43 75.7022 146.774 76.2453 147.264 76.6341C147.755 77.0229 148.363 77.2345 148.989 77.2343C149.2 77.2341 149.411 77.2102 149.617 77.163C150.334 76.9951 150.955 76.5502 151.344 75.9257C151.732 75.3013 151.857 74.5483 151.69 73.8322L146.844 52.9911C146.648 52.307 146.196 51.7243 145.581 51.3634C144.967 51.0024 144.237 50.8908 143.543 51.0517C142.848 51.2125 142.242 51.6335 141.85 52.2276C141.457 52.8217 141.309 53.5436 141.434 54.2441V54.2441Z" fill="#231816"/>
<path d="M133.544 20.3336C133.684 20.9441 134.028 21.489 134.519 21.8794C135.009 22.2697 135.618 22.4824 136.245 22.4827C136.457 22.4821 136.667 22.4582 136.873 22.4114C137.59 22.2435 138.211 21.7985 138.6 21.1741C138.988 20.5496 139.113 19.7967 138.946 19.0806L136.086 6.78052C135.89 6.0964 135.438 5.51368 134.824 5.15276C134.209 4.79184 133.479 4.68028 132.785 4.84112C132.091 5.00195 131.484 5.42289 131.092 6.017C130.7 6.61111 130.551 7.33299 130.676 8.03351L133.544 20.3336Z" fill="#231816"/>
<path d="M174.046 47.4398C173.682 47.4398 173.321 47.5117 172.984 47.6514C172.648 47.7911 172.342 47.9958 172.085 48.2537C171.829 48.5117 171.625 48.8178 171.487 49.1545C171.349 49.4911 171.279 49.8517 171.281 50.2155V71.6276C171.281 72.3616 171.573 73.0656 172.093 73.5847C172.613 74.1037 173.319 74.3953 174.054 74.3953C174.79 74.3932 175.495 74.0998 176.015 73.5795C176.535 73.0592 176.827 72.3544 176.827 71.6197V50.2075C176.827 49.8434 176.755 49.4828 176.615 49.1465C176.475 48.8102 176.27 48.5047 176.012 48.2476C175.753 47.9905 175.447 47.7868 175.109 47.6482C174.772 47.5096 174.411 47.4388 174.046 47.4398V47.4398Z" fill="#231816"/>
<path d="M174.005 23.7357C173.641 23.7357 173.28 23.8076 172.943 23.9473C172.607 24.087 172.301 24.2917 172.044 24.5496C171.787 24.8076 171.584 25.1137 171.446 25.4504C171.308 25.787 171.238 26.1476 171.24 26.5114V28.8112C171.24 29.5452 171.532 30.2492 172.052 30.7683C172.572 31.2873 173.278 31.5789 174.013 31.5789C174.749 31.5768 175.454 31.2834 175.974 30.7631C176.494 30.2428 176.786 29.538 176.786 28.8033V26.5034C176.786 26.1393 176.714 25.7787 176.574 25.4424C176.434 25.1061 176.229 24.8007 175.971 24.5436C175.712 24.2864 175.406 24.0828 175.068 23.9441C174.731 23.8055 174.37 23.7347 174.005 23.7357Z" fill="#231816"/>
<path d="M173.981 18.1686C174.718 18.1665 175.423 17.8731 175.942 17.3528C176.462 16.8325 176.754 16.1277 176.754 15.3929V2.75979C176.752 2.02712 176.459 1.32519 175.939 0.807853C175.419 0.29052 174.715 -3.00764e-06 173.981 0V0C173.618 -1.49906e-06 173.258 0.0716575 172.922 0.210845C172.586 0.350033 172.281 0.554034 172.024 0.811145C171.767 1.06825 171.563 1.37342 171.425 1.70917C171.287 2.04492 171.216 2.40464 171.217 2.76773V15.4009C171.219 16.1329 171.511 16.8345 172.028 17.3528C172.546 17.8712 173.248 18.1644 173.981 18.1686V18.1686Z" fill="#231816"/>
<path d="M208.095 35.4332C208.298 35.4804 208.506 35.5043 208.714 35.5045C209.342 35.5024 209.951 35.288 210.442 34.8963C210.932 34.5046 211.275 33.9587 211.415 33.3475L211.852 31.4283C211.992 30.7227 211.85 29.9907 211.458 29.3873C211.066 28.7839 210.454 28.3565 209.752 28.1957C209.05 28.0349 208.312 28.1532 207.696 28.5257C207.08 28.8982 206.633 29.4955 206.45 30.1912L206.005 32.1103C205.841 32.8275 205.969 33.5803 206.361 34.2034C206.753 34.8264 207.376 35.2687 208.095 35.4332Z" fill="#231816"/>
<path d="M198.562 77.155C198.766 77.1957 198.973 77.217 199.182 77.2185C199.809 77.2182 200.418 77.0054 200.908 76.6151C201.399 76.2247 201.742 75.6798 201.883 75.0693L206.649 54.2123C206.731 53.8577 206.741 53.4906 206.681 53.1319C206.62 52.7732 206.489 52.4299 206.295 52.1217C205.904 51.4993 205.281 51.0575 204.564 50.8934C203.846 50.7294 203.093 50.8565 202.47 51.2469C201.846 51.6373 201.403 52.259 201.239 52.9752L196.472 73.8322C196.311 74.5492 196.44 75.301 196.831 75.9235C197.222 76.546 197.845 76.9887 198.562 77.155Z" fill="#231816"/>
<path d="M211.114 22.3399C211.317 22.3871 211.525 22.4111 211.734 22.4113C212.361 22.4096 212.969 22.1963 213.459 21.8062C213.949 21.416 214.293 20.8719 214.435 20.2622L217.255 7.94623C217.349 7.58767 217.37 7.21388 217.317 6.84703C217.264 6.48019 217.137 6.12774 216.945 5.81064C216.753 5.49355 216.499 5.21825 216.198 5.00107C215.897 4.7839 215.555 4.62928 215.193 4.54639C214.831 4.46351 214.456 4.45405 214.091 4.51856C213.725 4.58308 213.376 4.72027 213.064 4.92198C212.753 5.12369 212.485 5.38582 212.277 5.69281C212.069 5.99979 211.925 6.34539 211.853 6.70908L209.025 19.025C208.943 19.3796 208.933 19.7467 208.994 20.1053C209.056 20.4639 209.187 20.8069 209.381 21.1148C209.575 21.4227 209.828 21.6893 210.125 21.8996C210.423 22.1098 210.759 22.2594 211.114 22.3399V22.3399Z" fill="#231816"/>
<path d="M240.484 46.8291C240.86 47.0149 241.273 47.1125 241.692 47.1146C242.215 47.1112 242.727 46.9607 243.168 46.6801C243.609 46.3995 243.962 46.0004 244.187 45.5285L244.981 43.9424C245.219 43.2936 245.205 42.5796 244.944 41.9401C244.682 41.3005 244.191 40.7813 243.567 40.4839C242.942 40.1865 242.229 40.1323 241.566 40.3319C240.904 40.5315 240.339 40.9706 239.984 41.5633L239.189 43.1494C238.873 43.8088 238.831 44.5667 239.074 45.2567C239.317 45.9466 239.824 46.5122 240.484 46.8291V46.8291Z" fill="#231816"/>
<path d="M233.517 61.1039C233.189 60.9445 232.833 60.8513 232.469 60.8296C232.104 60.8079 231.74 60.8582 231.395 60.9776C231.05 61.0969 230.733 61.283 230.46 61.5251C230.188 61.7672 229.966 62.0607 229.807 62.3886L220.488 81.6437C220.329 81.9705 220.235 82.3256 220.214 82.6885C220.192 83.0514 220.243 83.415 220.362 83.7584C220.482 84.1018 220.668 84.4183 220.911 84.6895C221.153 84.9608 221.447 85.1816 221.775 85.3392C222.103 85.4984 222.458 85.5915 222.822 85.6131C223.185 85.6346 223.55 85.5842 223.894 85.4649C224.238 85.3455 224.555 85.1595 224.826 84.9174C225.098 84.6754 225.319 84.3821 225.477 84.0545L234.836 64.8074C234.993 64.4778 235.084 64.1205 235.103 63.7559C235.122 63.3913 235.069 63.0265 234.946 62.6824C234.824 62.3384 234.635 62.0219 234.389 61.751C234.144 61.4801 233.848 61.2602 233.517 61.1039Z" fill="#231816"/>
<path d="M246.349 34.767C246.726 34.9467 247.138 35.0414 247.556 35.0445C248.079 35.0412 248.591 34.8906 249.032 34.61C249.474 34.3294 249.827 33.9303 250.051 33.4584L255.612 22.0941C255.771 21.7671 255.864 21.412 255.886 21.0491C255.907 20.6862 255.857 20.3226 255.738 19.9791C255.619 19.6356 255.433 19.3188 255.191 19.047C254.95 18.7751 254.657 18.5534 254.329 18.3946C254.001 18.2358 253.646 18.1429 253.282 18.1213C252.919 18.0998 252.554 18.1498 252.21 18.2688C251.866 18.3877 251.549 18.5731 251.276 18.8145C251.004 19.0558 250.782 19.3484 250.623 19.6754L245.062 31.0397C244.899 31.3685 244.804 31.7261 244.781 32.0919C244.758 32.4577 244.808 32.8245 244.927 33.171C245.047 33.5176 245.234 33.837 245.478 34.1109C245.722 34.3848 246.018 34.6078 246.349 34.767V34.767Z" fill="#231816"/>
<path d="M269.658 60.5408L269.038 61.3338C268.62 61.9097 268.44 62.6237 268.534 63.3284C268.628 64.0332 268.99 64.675 269.544 65.1215C270.098 65.568 270.803 65.7851 271.513 65.7282C272.223 65.6712 272.884 65.3444 273.36 64.8153L273.972 64.0222C274.214 63.7412 274.398 63.4143 274.511 63.061C274.625 62.7077 274.666 62.3353 274.632 61.9658C274.599 61.5963 274.491 61.2373 274.316 60.9101C274.14 60.583 273.901 60.2944 273.612 60.0615C273.322 59.8286 272.989 59.6561 272.632 59.5543C272.274 59.4525 271.9 59.4234 271.531 59.4688C271.162 59.5143 270.806 59.6333 270.485 59.8188C270.163 60.0044 269.882 60.2526 269.658 60.5487V60.5408Z" fill="#231816"/>
<path d="M244.291 99.1381C244.706 99.1396 245.115 99.0476 245.49 98.8691C245.864 98.6906 246.193 98.4301 246.452 98.1071L259.902 81.4532C260.145 81.1722 260.328 80.8453 260.442 80.492C260.555 80.1387 260.596 79.7663 260.563 79.3968C260.529 79.0273 260.422 78.6683 260.246 78.3412C260.071 78.0141 259.832 77.7254 259.542 77.4925C259.253 77.2596 258.92 77.0871 258.562 76.9853C258.205 76.8835 257.831 76.8544 257.462 76.8999C257.093 76.9453 256.737 77.0643 256.415 77.2498C256.093 77.4353 255.812 77.6835 255.588 77.9797L242.138 94.6336C241.807 95.0388 241.598 95.5297 241.535 96.049C241.473 96.5683 241.559 97.0947 241.785 97.5667C242.011 98.0388 242.366 98.4371 242.81 98.7153C243.253 98.9935 243.767 99.1402 244.291 99.1381V99.1381Z" fill="#231816"/>
<path d="M277.888 54.7516C278.377 55.1496 278.989 55.368 279.62 55.3702C280.035 55.37 280.446 55.2773 280.821 55.099C281.196 54.9207 281.527 54.6611 281.789 54.3392L289.733 44.4976C289.962 44.2143 290.132 43.8889 290.234 43.5399C290.337 43.1909 290.37 42.8252 290.331 42.4636C290.291 42.102 290.181 41.7517 290.007 41.4326C289.832 41.1135 289.596 40.8318 289.312 40.6037C289.028 40.3757 288.702 40.2056 288.353 40.1033C288.003 40.001 287.637 39.9684 287.275 40.0075C286.912 40.0465 286.561 40.1563 286.242 40.3308C285.922 40.5052 285.64 40.7408 285.411 41.024L277.467 50.8578C277.237 51.1405 277.066 51.4659 276.963 51.815C276.859 52.1642 276.826 52.5302 276.866 52.8922C276.905 53.2541 277.015 53.6047 277.191 53.9238C277.366 54.243 277.603 54.5243 277.888 54.7516V54.7516Z" fill="#231816"/>
<path d="M277.156 98.932L267.202 106.728C266.623 107.182 266.249 107.847 266.162 108.576C266.075 109.306 266.282 110.04 266.737 110.618C267.192 111.195 267.858 111.568 268.589 111.655C269.32 111.742 270.055 111.536 270.634 111.081L280.588 103.286C281.166 102.832 281.54 102.166 281.627 101.437C281.715 100.707 281.508 99.9733 281.053 99.3959C280.598 98.8186 279.931 98.4454 279.201 98.3584C278.47 98.2714 277.734 98.4777 277.156 98.932Z" fill="#231816"/>
<path d="M294.825 92.1911L299.854 88.2259C300.144 88.0028 300.387 87.7245 300.569 87.4071C300.751 87.0897 300.868 86.7395 300.913 86.3767C300.959 86.0139 300.932 85.6457 300.834 85.2934C300.736 84.9411 300.569 84.6116 300.343 84.324C300.117 84.0364 299.836 83.7964 299.516 83.6179C299.197 83.4393 298.845 83.3257 298.481 83.2837C298.117 83.2417 297.749 83.272 297.396 83.373C297.044 83.474 296.716 83.6436 296.43 83.8721L291.401 87.8373C291.111 88.0604 290.868 88.3386 290.686 88.656C290.504 88.9734 290.387 89.3236 290.342 89.6864C290.296 90.0492 290.323 90.4174 290.421 90.7697C290.519 91.122 290.686 91.4515 290.912 91.7391C291.138 92.0267 291.419 92.2667 291.739 92.4452C292.059 92.6238 292.41 92.7374 292.774 92.7794C293.138 92.8214 293.507 92.791 293.859 92.6901C294.211 92.5891 294.539 92.4195 294.825 92.1911V92.1911Z" fill="#231816"/>
<path d="M304.121 81.3105C304.38 81.6396 304.71 81.9055 305.087 82.0883C305.465 82.271 305.878 82.3657 306.298 82.3653C306.921 82.3681 307.526 82.1583 308.014 81.7705L317.96 73.9749C318.54 73.5216 318.915 72.8572 319.003 72.1277C319.092 71.3982 318.887 70.6634 318.433 70.085C317.979 69.5066 317.313 69.132 316.582 69.0435C315.852 68.955 315.115 69.1599 314.536 69.6132L304.582 77.4167C304.004 77.8726 303.631 78.5385 303.545 79.2685C303.458 79.9985 303.665 80.7329 304.121 81.3105V81.3105Z" fill="#231816"/>
<path d="M315.069 114.055L304.129 119.305C303.557 119.573 303.094 120.027 302.817 120.592C302.539 121.158 302.462 121.802 302.6 122.416C302.738 123.031 303.082 123.581 303.576 123.974C304.069 124.367 304.682 124.58 305.313 124.579C305.722 124.582 306.127 124.492 306.496 124.317L317.428 119.091C318.094 118.776 318.607 118.209 318.854 117.516C319.101 116.823 319.063 116.06 318.747 115.396C318.431 114.731 317.863 114.219 317.169 113.972C316.475 113.725 315.711 113.764 315.045 114.079L315.069 114.055Z" fill="#231816"/>
<path d="M323.703 113.064C323.928 113.538 324.283 113.939 324.728 114.22C325.172 114.501 325.687 114.65 326.213 114.65C326.62 114.65 327.022 114.558 327.389 114.38L338.845 109.012C339.511 108.696 340.023 108.129 340.271 107.436C340.518 106.743 340.48 105.981 340.163 105.316C339.847 104.651 339.28 104.139 338.586 103.892C337.891 103.646 337.127 103.684 336.461 104L325.005 109.368C324.343 109.687 323.834 110.255 323.589 110.948C323.345 111.64 323.386 112.401 323.703 113.064V113.064Z" fill="#231816"/>
<path d="M294.308 157.26C294.442 157.878 294.784 158.433 295.276 158.831C295.769 159.229 296.383 159.447 297.017 159.449C297.215 159.448 297.412 159.427 297.605 159.385L304.842 157.879C305.199 157.802 305.536 157.656 305.836 157.449C306.136 157.243 306.392 156.979 306.59 156.673C306.787 156.368 306.923 156.026 306.988 155.668C307.054 155.31 307.048 154.943 306.971 154.588C306.895 154.232 306.749 153.895 306.541 153.595C306.334 153.296 306.07 153.041 305.764 152.843C305.458 152.646 305.116 152.511 304.757 152.445C304.399 152.38 304.031 152.386 303.674 152.462L296.437 153.985C295.722 154.141 295.097 154.572 294.698 155.186C294.299 155.799 294.159 156.544 294.308 157.26V157.26Z" fill="#231816"/>
<path d="M330.886 146.594L324.626 147.942C323.958 148.087 323.367 148.474 322.967 149.027C322.567 149.581 322.386 150.263 322.459 150.941C322.532 151.62 322.854 152.248 323.362 152.704C323.87 153.161 324.53 153.413 325.214 153.414C325.411 153.415 325.608 153.396 325.801 153.358L332.054 152.002C332.419 151.936 332.767 151.796 333.077 151.592C333.388 151.389 333.654 151.125 333.86 150.817C334.066 150.508 334.208 150.162 334.278 149.798C334.347 149.434 334.343 149.059 334.265 148.697C334.186 148.334 334.036 147.991 333.822 147.688C333.609 147.385 333.336 147.128 333.021 146.931C332.706 146.735 332.355 146.604 331.988 146.546C331.621 146.488 331.246 146.504 330.886 146.594V146.594Z" fill="#231816"/>
<path d="M77.8066 126.887C79.8378 123.696 82.1452 120.69 84.7024 117.901C87.8087 114.626 91.3519 110.962 95.5625 109.123C96.4568 108.672 97.4337 108.408 98.4334 108.347C99.4332 108.286 100.435 108.428 101.378 108.766H101.426C101.344 109.317 101.301 109.874 101.298 110.431C99.7731 123.207 95.9439 135.967 91.3202 147.934C90.4281 150.417 90.0628 153.058 90.2476 155.69C90.2874 156.435 90.7879 160.044 91.8365 157.871C95.8247 149.285 100.141 140.855 104.786 132.581C107.964 126.91 111.285 121.208 115.32 116.093C117.203 113.701 119.393 111.568 121.835 109.749C123.813 108.274 127.023 105.784 129.779 106.656C130.067 106.74 130.337 106.877 130.574 107.061C128.905 113.175 127.023 119.234 125.275 125.301C123.527 131.367 121.748 137.331 120.818 143.541C120.198 147.688 119.928 152.343 121.12 156.412C121.914 159.124 124.163 162.169 127.412 161.313C129.668 160.718 131.813 158.735 133.561 157.3C136.628 154.786 139.527 152.058 142.371 149.306C145.001 146.76 147.575 144.167 150.133 141.542C149.148 144.84 148.603 148.253 148.512 151.693C148.512 154.072 148.457 159.179 151.69 159.758C153.66 160.115 156.068 158.83 157.768 158.022C160.924 156.462 163.976 154.701 166.904 152.748C171.845 149.576 176.628 146.094 181.339 142.541C181.029 144.433 180.909 146.351 180.982 148.267C181.109 151.534 181.855 154.77 184.525 156.895C186.711 158.499 189.41 159.249 192.112 159.005C198.912 158.719 205.617 155.523 211.512 152.438C215.187 150.677 218.712 148.622 222.055 146.292C223.572 145.222 225.574 138.481 226.027 136.776C226.384 135.436 227.759 129.75 227.719 128.655C227.719 128.417 227.044 131.629 225.955 132.509C224.867 133.39 223.786 134.206 222.777 134.888C215.492 139.869 207.318 144.405 198.825 146.633C194.241 147.847 187.774 148.735 184.525 144.357C184.478 144.292 184.435 144.223 184.398 144.151C185.828 141.629 187.568 139.295 189.577 137.204C191.452 135.16 193.438 133.222 195.528 131.399C196.799 130.368 198.078 129.345 199.333 128.29C200.128 127.624 200.477 126.197 200.636 124.745C200.771 123.477 200.755 122.184 200.771 121.359C200.771 120.78 200.771 116.355 199.54 117.259C198.15 118.306 196.799 119.432 195.48 120.59C188.386 126.387 181.117 131.994 173.633 137.244C168.35 140.971 162.82 145.031 156.767 147.426C155.456 147.942 153.367 148.83 152 148.132C151.892 148.084 151.799 148.007 151.73 147.91L151.817 147.633C153.271 143.652 155.068 139.804 157.188 136.134C157.982 134.698 158.777 133.271 159.627 131.867C159.881 131.455 160.985 129.678 160.421 130.59C161.661 128.623 161.819 125.927 161.859 123.651C161.859 123.199 161.597 118.504 160.628 119.551C155.527 125.102 150.3 130.558 144.961 135.856C140.33 140.448 135.555 145.539 129.978 149.013C127.841 150.345 125.211 150.408 123.726 147.942C123.424 147.442 123.36 146.689 123.082 146.197L123.344 144.905C124.6 139.203 126.522 132.827 128.357 126.712C130.034 121.042 131.877 115.356 133.124 109.567C133.918 105.903 135.507 98.7654 131.964 95.9025C130.208 94.475 127.992 95.2363 126.141 96.1246C122.863 97.7757 119.923 100.024 117.473 102.754C113.334 107.283 110.109 112.723 107.003 117.989C104.81 121.69 102.691 125.454 100.647 129.282C101.537 125.42 102.315 121.542 102.959 117.64C103.886 112.737 104.28 107.749 104.135 102.762C103.992 100.336 103.968 97.5045 101.155 96.9493C98.3431 96.3942 95.5387 97.9723 93.3142 99.4474C89.1343 102.327 85.4277 105.837 82.327 109.852C77.5603 115.84 73.6358 122.541 69.9257 129.29C70.7239 123.904 71.0429 118.458 70.879 113.016C70.7281 107.814 70.0846 89.7644 60.3446 93.0158C58.8193 93.5313 58.7557 97.3379 58.6286 98.6147C58.6286 99.035 58.9782 103.976 58.9782 103.976C59.145 105.03 59.4707 106.355 59.9315 106.355C60.3923 106.355 59.6614 103.873 62.3864 104.253C63.2686 104.4 64.0932 104.787 64.7697 105.371C65.6706 106.089 66.328 107.067 66.6526 108.171C67.6328 111.167 68.1681 114.29 68.2415 117.442C68.3414 119.507 68.291 121.577 68.0905 123.635C67.8225 126.112 67.4006 128.57 66.8273 130.995C65.9234 134.751 64.6981 138.423 63.1649 141.97C61.576 145.087 59.9871 148.22 58.4697 151.376C57.3734 153.644 57.2622 156.65 57.3972 159.124C57.4449 160.012 57.7865 163.335 58.9861 161.305C60.7668 158.205 62.3586 155 63.7528 151.709C67.9693 143.179 72.6612 134.892 77.8066 126.887V126.887ZM183.587 142.589C183.587 142.589 183.587 142.684 183.627 142.819C183.571 142.684 183.548 142.581 183.579 142.589H183.587ZM151.071 150.02V149.972C151.071 149.972 151.071 149.853 151.118 149.774C151.119 149.755 151.119 149.737 151.118 149.718C151.1 149.804 151.076 149.889 151.047 149.972L151.071 150.02ZM122.884 146.848C122.931 146.53 122.971 146.372 122.884 146.848V146.848ZM122.828 147.347C122.836 147.209 122.852 147.071 122.876 146.935C122.876 146.752 122.947 146.578 122.979 146.403C122.955 146.681 122.852 147.054 122.828 147.363V147.347ZM131.44 108.211C131.543 108.401 131.511 108.393 131.44 108.211V108.211ZM101.457 108.766C101.457 108.964 101.457 109.202 101.457 109.265C101.457 109.103 101.447 108.942 101.426 108.782L101.457 108.766Z" fill="#231816"/>
<path d="M151.07 149.957V149.948H151.079L151.07 149.957Z" fill="#231816"/>
<path d="M260.434 133.405C260.966 133.469 262.817 131.819 263.437 130.416C264.891 127.244 265.86 119.948 263.644 119.472C255.064 117.616 245.522 122.358 239.294 127.83C236.806 130.039 234.515 132.459 232.446 135.063L235.02 126.974C235.843 124.372 236.063 121.616 235.663 118.917C235.345 117.037 234.551 116.72 233.892 118.782L224.779 147.26C224.052 149.679 223.814 152.219 224.08 154.73C224.168 155.523 224.612 158.251 225.582 156.316C228.944 149.705 233.526 143.786 239.087 138.87C244.41 134.191 252.124 130.21 259.568 130.463C263.175 130.59 259.91 133.366 260.434 133.405Z" fill="#231816"/>
<path d="M290.09 123.397C289.498 121.863 288.469 120.535 287.129 119.579C285.788 118.624 284.197 118.082 282.551 118.02C277.458 117.767 272.699 121.002 269.045 124.182C267.551 125.491 267.639 129.321 267.607 131.122C267.607 131.336 267.607 132.248 267.726 133.168C266.328 136.38 265.474 139.803 265.2 143.295C264.938 146.562 264.604 151.717 267.416 154.144C272.437 158.466 281.208 150.876 284.41 147.411C286.986 144.737 288.892 141.492 289.971 137.942C291.226 133.485 291.814 127.815 290.09 123.397ZM267.679 141.296C267.679 141.257 267.679 141.217 267.631 141.209C267.583 141.201 267.679 141.225 267.679 141.296ZM267.679 141.471C267.682 141.423 267.682 141.375 267.679 141.328C267.703 141.366 267.725 141.405 267.742 141.447L267.679 141.471ZM284.926 138.433C281.748 141.796 275.75 144.651 270.689 143.882C269.861 143.793 269.086 143.43 268.489 142.851C268.34 142.674 268.214 142.48 268.115 142.272C267.777 140.076 268.218 137.832 269.363 135.927C269.814 135.045 270.369 134.22 271.015 133.469C272.567 132.297 274.249 131.307 276.028 130.519L277.013 130.186C277.145 130.138 277.271 130.074 277.387 129.995C280.199 129.068 283.131 128.988 285.72 130.701C286.53 131.249 287.211 131.966 287.714 132.803C287.864 133.085 287.997 133.377 288.112 133.675C288.048 133.913 287.977 134.167 287.873 134.468C287.15 135.94 286.174 137.274 284.99 138.41L284.926 138.433ZM288.334 134.191C288.363 134.264 288.379 134.342 288.382 134.421C288.382 134.421 288.406 134.302 288.398 134.159L288.334 134.191ZM288.334 132.668C288.334 132.279 288.374 131.875 288.406 131.534C288.424 131.904 288.416 132.275 288.382 132.644L288.334 132.668Z" fill="#231816"/>
<path d="M161.842 107.283C163.235 108.048 164.502 109.021 165.6 110.169C166.577 111.145 171.606 116.625 164.091 119.448C164.091 119.448 170.557 117.973 172.71 113.159C174.506 109.146 174.45 106.244 172.909 103.976L172.806 103.817L172.663 103.603V103.563C171.172 101.639 169.307 100.034 167.181 98.8447C165.584 97.9168 160.611 106.656 161.842 107.283Z" fill="#231816"/>
</svg>
