<svg width="27" height="22" viewBox="0 0 27 22" fill="none" xmlns="http://www.w3.org/2000/svg">
<path d="M27 6.35124V18.2696C27 20.3301 25.3303 21.9999 23.2697 21.9999H3.73026C2.74094 21.9999 1.79213 21.6069 1.09257 20.9073C0.393009 20.2077 0 19.2589 0 18.2696V6.35124L13.0723 13.5418C13.3387 13.6881 13.662 13.6881 13.9277 13.5418L27 6.35124ZM23.2697 0.684082C24.2435 0.684173 25.1786 1.06503 25.8754 1.74531C26.5721 2.42558 26.9752 3.35134 26.9986 4.32482L13.5 11.7498L0.00142095 4.32411L0.00284224 4.26016C0.0426335 3.29829 0.452752 2.38905 1.14744 1.72257C1.84212 1.05609 2.76757 0.683993 3.73026 0.684082H23.2697Z" fill="white"/>
</svg>
