<svg width="24" height="24" viewBox="0 0 24 24" fill="none" xmlns="http://www.w3.org/2000/svg">
<path d="M23.5591 18.8L18.0827 13.8207C17.8238 13.5854 17.4836 13.4599 17.134 13.4707C16.7843 13.4815 16.4526 13.6278 16.2087 13.8786L12.9848 17.1941C12.2088 17.0459 10.6488 16.5595 9.04288 14.9577C7.437 13.3505 6.95066 11.7864 6.8065 11.0158L10.1193 7.79052C10.3704 7.54685 10.5169 7.21502 10.5277 6.86527C10.5385 6.51551 10.4128 6.17527 10.1772 5.91655L5.19928 0.441471C4.96357 0.18194 4.63598 0.0245144 4.28607 0.00262948C3.93617 -0.0192554 3.59151 0.0961242 3.3253 0.324264L0.40185 2.83143C0.168931 3.06519 0.0299102 3.37631 0.0111576 3.70577C-0.00905063 4.04257 -0.394354 12.0208 5.79205 18.2099C11.189 23.6055 17.9493 24.0002 19.8112 24.0002C20.0833 24.0002 20.2503 23.9921 20.2948 23.9894C20.6242 23.971 20.9352 23.8313 21.1678 23.5974L23.6736 20.6726C23.9027 20.4072 24.0189 20.0628 23.9975 19.713C23.9761 19.3631 23.8188 19.0354 23.5591 18.8Z" fill="white"/>
</svg>
