<svg xmlns="http://www.w3.org/2000/svg" viewBox="0 0 1106.67 749.3"><defs><style>.cls-1{fill:#fff;}</style></defs><g id="圖層_9" data-name="圖層 9"><path class="cls-1" d="M854.79,1859.91a97.36,97.36,0,0,0,13.2-14.17c8.66-11.1,1.94-19-7.86-22.66a17.12,17.12,0,0,1-9.79-8.32c-1.54-2.75-3.18-5.45-4.74-8.19-4.94-8.67-16-12.35-25.25-10-14.06,3.53-27.34,8.94-40.56,14.64-1,.43-1.18.17-1.23-.47-.5-6.56-7-8.39-10.22-12.87-4.07-5.68-9.23-5.52-13.12-.31-7.54,10.12-9.45,23.3-11.15,35.46a331.4,331.4,0,0,0-2.68,46.49c0,13.72,1.12,28.29,7.71,40.61A52,52,0,0,0,761.53,1936c13.3,11.08,33.59,12,50.23,11.34a127.6,127.6,0,0,0,52.37-13.49,54.78,54.78,0,0,0,12.5-8.8,76.71,76.71,0,0,0,8.71-9.78,40.4,40.4,0,0,0,6.33-10.89,1.89,1.89,0,0,0-1.18-2.44,1.75,1.75,0,0,0-1.61.5c-8.13,14.17-29.63,20.3-44.52,23a149.81,149.81,0,0,1-55.68-.8c-6.74-1.39-13.71-4.39-15.81-11.56a32.71,32.71,0,0,1-.87-9.72c.13-7,.48-13.89.93-20.82.42-6.5.54-13.2,1.52-19.63s1.91-12.86,3-19.27c.33-1.88,1.43-4.4,4-4.1,8.52,1,17.08-2.53,25.24-4.93,8.66-2.56,15.43-4.58,23.38-6,10.56-1.92,17.34,10.66,13.89,20.39a28.58,28.58,0,0,1-10.29,14.14c-1,.67-1.69,1.52-3.06,1.32-4.6-.65-8.57,1.76-12.28,3.6-8.38,4.15-16.29,9.25-24.41,13.91-7.05,4-8.19,11.19-2.05,14.49,3.61,1.94,7.77,1,11.72.53,12-1.4,22.8-6.73,34.28-9.87,6.51-1.77,12.65-4.92,18.91-7.57,1.66-.7,3.52-1.64,3.58-3.78.07-2.38-2.32-1.28-3.46-1.88C851.43,1870.91,850.09,1864,854.79,1859.91Z" transform="translate(-372.56 -1519.56)"/><path class="cls-1" d="M619,1860.9c-5.08-1.83-7.19-5.94-8.77-10.13-1.4-3.67-2.49-3.28-4.42-.93-6.37,7.73-13.17,15.17-18.89,23.36-11.11,15.9-24.68,29.72-37.39,44.17a252.09,252.09,0,0,0-23.79,32.5c-6.5,10.31-11.39,21.6-19.06,31.29-6.41,8.08-13.31,15.75-20,23.63-6.32,7.5-11.58,15.68-17.49,23.36-32.82,42.63-65.34,85-94.8,130.13-1.46,2.23-2.85,5.38-1,7.29,1.3,1.34,3.61,1.14,5.14.07a12.18,12.18,0,0,0,3.36-4.42,364.2,364.2,0,0,1,50.9-71.27c10.57-11.54,21.84-22.43,32.1-34.26a180.19,180.19,0,0,0,14.17-18.39c2.44-3.69,4.41-7.52,6.77-11.14a41.05,41.05,0,0,1,4.47-5.81c14.27-15.23,28.75-32.42,46.66-43.56,9.79-6.1,20.44-10.92,28.91-19.11,10.76-10.42,20.25-22,30.25-33.08,11.77-13.06,21.56-27.37,26.57-44.44C625.08,1872.25,623.23,1862.41,619,1860.9Z" transform="translate(-372.56 -1519.56)"/><path class="cls-1" d="M1103.09,1809.19c14.87,6.07,33.62,6.15,48.7,2.11,15.93-4.26,31-11.18,45.41-19.21,24.53-13.7,45.26-33.42,70-46.69,15.91-8.52,32.53-15.18,48.57-18.49a119.24,119.24,0,0,1,25.63-2.46c3.18,0,6.17-.89,9.27-.83,4.51.1,9.19,1.93,13.5,3.1,1.71.46,3.46.5,2.45-1.58-.71-1.45-4.43-2.76-5.84-3.37a51,51,0,0,0-13.88-3.38c-27.84-3.5-56.21,2.38-82.33,12.62-17.41,6.83-34,15.56-50.19,24.86-15.75,9.05-30.78,18.7-48.1,24.59-1.68.57-6,1.66-7.79,2,1.57-1.4,4.94-3.74,6.46-4.85,20.14-14.68,32.29-37.46,25.68-62.63-2.82-10.75-8.51-20.55-15.67-29s-15.88-16.91-25.79-21.73c-3.26-1.59-7.06-1.75-9.26.7-2.38,2.64.85,5,2.5,7.22,2.65,3.58,6,7.09,8,11,2.55,4.83,4.22,10.48,6.08,15.61,3.77,10.43,6.87,21.2,7.9,32.28,1.75,18.84-3.52,37.76-17.23,51.18-1.86,1.82-3.52,3.43-6.59,3.76-7.2.79-14.29,3.28-21.46,3.39-10.76.17-21.52-1.33-28.51-11.23-2.05-2.9-3.44-1.15-4.28.46a12.76,12.76,0,0,0-1.24,5.77C1085.18,1793.48,1094.63,1805.73,1103.09,1809.19Z" transform="translate(-372.56 -1519.56)"/><path class="cls-1" d="M1232,2248.6l-16.45-3.33-18.11-3.65-22-4.45c-3.24-.66-6.65-1.71-9.91-2.06a27.32,27.32,0,0,0-10.07,1.34,274.41,274.41,0,0,1-76.82,11.48,289.45,289.45,0,0,1-31.71-1.53c-9-.94-18.28-3.7-27-.18-5.65,2.29-9.73,7.16-16.09,8.58a185.49,185.49,0,0,1-20.35,3.45l-5.88.62-2.72.27a53,53,0,0,1-5.34.38c-1.7,0-3.4-.14-5.1-.29-11.75-1-23.48-2.95-35.21-2.91-1.55,0-4.58,0-4.83,2.38-.19,1.88,2.44,1.82,3.82,2.5a45.72,45.72,0,0,0,7.87,3.08c10.21,2.79,20.83,2.57,31.25,3.77,20.87,2.41,40.93-.33,59.27-11.66,3.49-2.16,7.53-2.41,11.89-1.71,10.69,1.7,21.47,2.92,32.26,3.89,14.84,1.34,29.56-.8,44.22-2.59a266,266,0,0,0,47.14-10.27c5.65-1.77,11.22-4.24,17.78-2.2,4.85,1.52,11.56.45,15.25,2.09,10.63,4.74,23,6.54,34.87,6.69,1.52,0,7.38.83,7.91-.88C1238.71,2249,1233.28,2248.85,1232,2248.6Z" transform="translate(-372.56 -1519.56)"/><path class="cls-1" d="M1007,1806.29c3.8-2.13,5.89-6.72,10.38-7.68,5.78-1.24,10.66-4.43,15.55-7.24,11.56-6.64,19.83-17.94,21.11-31.25q.12-1.32.15-2.67a33.81,33.81,0,0,0-8.76-24.16c-5.47-6.07-8.76-13.83-14.76-19.47-3.26-3.07-7.71-4.37-11.66-1.69-3.11,2.11,1,3.93,1.94,5.8,1.72,3.34,4.66,5.94,5.36,10,2.25,12.84.44,25-3.61,37.43a141.65,141.65,0,0,1-20.27,40.54c-.65.89-1.38,1.71-2.08,2.56a25.72,25.72,0,0,0,4.15-.5C1005.4,1807.65,1006.12,1806.78,1007,1806.29Z" transform="translate(-372.56 -1519.56)"/><path class="cls-1" d="M572,2108.08c-10.79,2.51-20.93,6.36-32.1,7.66-11.71,1.36-23.52,1.35-35.29,1.31l-22-.08c-3.42,0-8-.83-11.28,0-1.86.44-4.21,3.44-1,4.22,17.16,4.16,35.92,5.73,53.71,5.7,13.54,0,27.23-1.82,39.78-6.9a79.94,79.94,0,0,0,11-5.44c1.62-1.69,3.84-2.95,2-5.27C575.67,2107.76,573.66,2107.68,572,2108.08Z" transform="translate(-372.56 -1519.56)"/><path class="cls-1" d="M758.81,2206.9a8.91,8.91,0,0,1-1.24.41l-6.24,1.39a103.86,103.86,0,0,1-20.54,2.39c-7,.19-14,0-20.93-.38-14-.82-27.83-2.64-41.63-4.8-3.31-.52-6.61-1.06-9.92-1.61-2.76-.45-5.52-.92-8.28-1.39-1.86-.31-5.14-1.59-6.92-.78-1,.46-2.13,2.13-1.43,3.24.91,1.44,5.49,1.89,7.08,2.31,10.65,2.8,21.52,4.76,32.34,6.69,26.78,5,53.52,5.06,80.13-1.39,2.8-.67,3.57-2.76,3.9-5.1C765.71,2203.6,761.55,2205.83,758.81,2206.9Z" transform="translate(-372.56 -1519.56)"/><path class="cls-1" d="M1404.22,2139l-.08,0v.06A.81.81,0,0,0,1404.22,2139Z" transform="translate(-372.56 -1519.56)"/><path class="cls-1" d="M1400.33,2136.88c-1.95.73-3.32,2.68-5.13,3.63-2.82,1.48-6.47,2.11-9.5,3.09-10.92,3.53-20.86,8.16-32.7,7.28-4.69-.35-9.34-1.37-14-1.24-3.29.09-9.66,1-11.56,4.21-2.56,4.33,2.23,1.31,4.57,2.11,10.55,3.76,24.81,2.75,35.8,1.7a77.23,77.23,0,0,0,32-9.83c1.07-1.77,2.73-8.06,4.41-8.83.22-1.33.44-2.66.65-4A23.87,23.87,0,0,0,1400.33,2136.88Z" transform="translate(-372.56 -1519.56)"/><path class="cls-1" d="M1028.4,1985c4.33,5.94,11.47,9.53,13.09,17.43.51,2.46,1.06,7.07,1.49,10.51.18,1.45,1.41,1.15,1.64-.61a60.25,60.25,0,0,0,.13-9.07,19.21,19.21,0,0,0-1.1-6.52c-1.69-4.73-2.06-8.69-4.74-12.94-.53-.84-1.53-3.07-2.1-3.88a63.5,63.5,0,0,0-8.17-10.22c-3.44-3.32-9-7.8-14.53-8.74-4.78-.81-10-.28-11.33,5.29-1.59,6.84,4.11,11.3,9.27,11.37C1019.67,1977.7,1025.22,1980.61,1028.4,1985Z" transform="translate(-372.56 -1519.56)"/><path class="cls-1" d="M1477.74,2130.12c-1.14-.39-2.27.49-3.17,1.27a51.71,51.71,0,0,1-24.24,11.6,54.71,54.71,0,0,1-13.16.73,69.61,69.61,0,0,1-13.26-1.66.89.89,0,0,0,1-.71,1.45,1.45,0,0,0-.41-1.25,13.44,13.44,0,0,0-4.29-2.72,14.59,14.59,0,0,0-15.45,2c-.19.15-.37.32-.55.48,10.4,3.26,20.62,6.29,31.42,7.95q7.92,1.21,15.92,1.67c4.91.28,9.48.73,14-1.41,6.73-3.18,13.61-6.32,13.65-14.89C1479.24,2132,1478.9,2130.52,1477.74,2130.12Z" transform="translate(-372.56 -1519.56)"/><path class="cls-1" d="M637.42,2113.12c-4.6-2.09-13-.26-17.63,1-3.5.95-7.5,2.27-10.51.25a30.38,30.38,0,0,0-2.42-1.85c-3.56-2-4.59,4-1,4.72a96.58,96.58,0,0,0,17.28,2.2c3.53-.36,7.8-.71,12-1.29,1.94-.26,4.09-1.4,4.3-2.7C639.57,2114.67,639,2113.85,637.42,2113.12Z" transform="translate(-372.56 -1519.56)"/><path class="cls-1" d="M1423.92,1975.27c9.36-23.93,5-52.72-11.12-72.76s-43.23-30.58-68.62-26.63c-2.87.45-5.87,1.14-8,3.09s-3.07,5.55-1.25,7.82c2.12,2.64,6.21,2,9.54,1.41,13.81-2.56,28.55-.69,40.84,6.1s21.89,18.65,25.07,32.33c3.52,15.17-1,31.45-9.62,44.4s-21.12,22.93-34.34,31.17a205.34,205.34,0,0,1-104,30.87c-7.11.14-14.47-.15-20.87-3.25-8.17-4-13.44-12.51-14.2-21.44-2.12-24.88-.66-50,3-74.63,1.85-12.36,4.27-24.63,7.11-36.8,2.16-9.25,8.45-22,4-31.21a32.91,32.91,0,0,0-4.06-6c-6.17-7.81-11.88-18.29-23.19-18.25a144.92,144.92,0,0,0-33.16,3.73c-13.66,3.27-27.52,6.37-40.49,12.12-1.62.72-2.87.94-3.69-.9-2.95-6.64-10.62-10-12.28-17.59-.14-.67-1.54-1.49-2.35-1.49-1.37,0-1,1.41-1.11,2.33-.93,7.15,2.33,14,1.28,21.22-.18,1.28.37,3.2-1.1,3.52-4.53,1-7.88,4.17-12,6-5.43,2.43-11.64,2.82-16.51,6.84-1.77,1.46-3.09-.92-2.88-2.42,1-7,1.76-14,3.59-20.77,1.42-5.2.73-8.53-4.31-10.83s-10.8-4.43-13.2-9.34c-2.51-5.12-5.31-9.12-10-12.52-11.33-8.23-19.4-13.88-34.51-3.5-4.4,3-8.38,6.91-13.17,9-6.21,2.73-11.32,7-16.48,10.94-2.46,1.89-4.3,2-5,.3-2.34-5.52-8.19-8.44-9.85-14.39-1.51-5.44-7.08-5.64-11-6.1-3.32-.4-3,4.33-3.32,7.17-.7,6.25-1.45,12.49-1.9,18.75-1.26,17.44-3.36,34.84-2.63,52.39.27,8.51-1.79,16.88-1.82,25.31,0,7.75-2.84,11.81-10.71,12.92s-15.19,4.23-23.48,4.36c-5.08.08-7.18-2.79-7.07-5.07.5-9.53,2.44-18.86,7.69-27.23,1.26-2,3.59-5.41,1.84-6.93s-5.08-.34-7.14,2.31a59.93,59.93,0,0,1-7.25,7.08c-6.12,5.59-9.79,20.42-6.85,28,5.4,13.9,13.77,19.63,28.66,19.17,5.07-.16,10.11-1.1,15.17-1.57,1.63-.15,4.26-1.09,3.76,2.1-1.35,8.57-2.89,17.11-4.53,25.63-.45,2.29-1.56,4.14-4.42,4.73-8.18,1.69-17,1.58-25.3,1.9q-13.35.51-26.72.41a595.62,595.62,0,0,1-117.8-12.71,552.45,552.45,0,0,1-55.5-14.49c-17.68-5.69-36.62-11.91-53-20.74-1.36-.73-5.41-2.57-5.41-2.57s-.63-21.67-.8-31.79c-.32-18.59.68-34.55,1.53-54.15.8-18.5,2.53-38.89,1.68-57.38-.07-1.6-.08-2.66-.08-2.66s4.42-2.09,7.41-3.43c5.38-2.42,11-4.14,16.09-7q8.12-4.51,16.61-8.24a201.7,201.7,0,0,1,35.16-11.69c13.15-3.06,27.59-6.81,41.08-7.19s26.71-2.81,40.09-2.5c6.86.16,13.72.26,20.58.22-16.55-2.11-43.11-6.27-67.92-6.73-34.34-.64-71.09,7.17-102.51,21.28-1.35.6-3.32,1.51-3.56-.77-1-9.47,0-27.31,0-27.31s2.24-2,2.78-2.4c12.75-8.76,27.85-17.22,44.58-19.08,7.49-.83,18.64-1.37,29.19,1.1-7.92-5.54-22.21-9.63-28.85-10.13-13-1-26.14-.13-38.6,4-2.15.71-4.3,1.49-6.45,2.28a397.74,397.74,0,0,0-2.82-51.43l-1.14-8.32c-.46-2.75-.88-5.52-1.38-8.26q-1.49-8.25-3.33-16.37c-2.43-10.82-5.23-21.48-8-32-.66-2.61-1.29-5.11-1.84-7.51s-1-4.71-1.27-6.91a38.68,38.68,0,0,1-.14-11.33,14.94,14.94,0,0,1,1.13-3.82,11.57,11.57,0,0,1,1.61-2.75A20,20,0,0,1,664,1562a23.27,23.27,0,0,1,3.73-2.1,34.54,34.54,0,0,1,4.9-1.72,63.13,63.13,0,0,1,12-1.9c2.15-.14,4.36-.19,6.58-.15s4.59.15,6.87.35a103.46,103.46,0,0,1,13.7,2.06c18.17,3.9,35.8,12.84,51.89,24.88s30.73,26.94,45,42.4c3.6,3.85,7.16,7.78,10.74,11.71l10.82,11.84,5.49,5.9,2.77,3c1,1,1.95,2.11,2.95,3.13a162.74,162.74,0,0,0,12.37,11.38,204.77,204.77,0,0,0,27,19,148.1,148.1,0,0,0,14.64,7.6c2.51,1.13,5.05,2.19,7.65,3.1a69.93,69.93,0,0,0,7.88,2.36l.39-.92c-9-6-17-12.89-24.72-20s-15.1-14.66-22.05-22.38c-1.72-1.94-3.43-3.88-5.09-5.84s-3.25-3.94-4.8-5.92c-.78-1-1.51-2-2.25-3l-2.33-3.25-4.66-6.54-9.51-13q-4.83-6.5-9.85-12.93c-6.72-8.56-13.74-17-21.21-25.2a300.58,300.58,0,0,0-24-23.64c-4.27-3.77-8.7-7.41-13.33-10.87s-9.43-6.79-14.44-9.87a152.24,152.24,0,0,0-32.49-15.12,138.13,138.13,0,0,0-17.72-4.52c-3-.57-6-1-9.09-1.4s-6.26-.62-9.46-.73a90.53,90.53,0,0,0-19.87,1.33,75.64,75.64,0,0,0-10.51,2.76,59.57,59.57,0,0,0-10.69,4.91,46,46,0,0,0-14.07,12.92c-.62.86-1.22,1.74-1.79,2.66s-1.11,1.83-1.63,2.78a48.56,48.56,0,0,0-4.59,12,53.62,53.62,0,0,0-1.37,12,75.27,75.27,0,0,0,3,20.53c.84,3,1.73,5.9,2.67,8.65s1.82,5.38,2.7,7.9a396,396,0,0,1,15.57,60,390.58,390.58,0,0,1,5.29,56.89,193.83,193.83,0,0,1-24.91,6.23c-13.15,2.41-29.06,2.23-41.59-2.8-1.3-.52-2.18,0-3.26.46-7.4,3.36-9.46,8-6,16,2.41,5.45,7.72,13.83,14.78,14.86a92.52,92.52,0,0,0,23.82.59,140,140,0,0,0,35.75-8.34c1.58-.56,4.78-1.62,4.78-1.62s.14,4,.2,5.87c.19,6.36-.09,10.81,0,16.7,0,3.4-1.9,4.87-4.3,5.72-17.75,6.24-34.95,14-53.18,18.83a224.46,224.46,0,0,1-55.83,7.55c-11,.09-19.88-3.33-29.27-8.8-5.37-3.12-7.31,0-10.35,5.16-4,6.74-.29,11.33,1.92,16.16s4.61,10,11.23,11.54c21.82,5.07,43.37,6.55,64.54.35a471.71,471.71,0,0,0,71.23-26.81c3.76-1.8,4.43-4,4.34,0-.22,9.94.69,18.49,1.07,27.7.74,18,0,36.56,2.38,54.43,2,14.76,3.24,30,6.53,44.28.5,2.15,1.45,8.78,1.45,8.78s-6.29-2.81-8.46-3.74c-12-5.12-20.89-14.18-29.32-23.77-.85-1-1.46-2.87-2.91-2s-.46,2.77.1,3.9c9,18,18.62,26.58,37.52,40.17a237,237,0,0,0,21.65,13.6c33,17.12,57,32,93.61,38.13a358.11,358.11,0,0,0,55.47,4.91c18.45.18,44.07-4.39,63.34-7,16.85-2.24,35-4.16,51.9-6.19,2.05-.25,5.47-.4,5.47-.4s-.93,2.35-1.85,5.4c-3.2,10.63-7,20.84-11,31.1-5.56,14.49-18.39,39.13-24.27,53.49-.71,1.73-5.91,7.63-3.92,8.85,1.23.76,3.78-2.24,4.6-3.06,3.4-3.4,6.14-6,9-9.28,4.38-4.95,19.35-22.92,22.6-28.67,2.55-4.5,5.18-8.89,7-13.72s5.94-9.16,8.65-13.41c6-9.43,11.41-19.4,14.46-30.22,2.71-9.62,3.51-19.64,5.93-29.33,1.15-4.58,4-8.41,4.79-13,1-5.65.92-7.49,5-8.92,20.82-7.21,42-13.43,62.11-22.58,2.66-1.21,3.89-.7,4.07,2.53,1,18.31,3.94,36.4,4.38,54.82a460.23,460.23,0,0,1-2,55.07c-.74,7.6-1.7,15.31-4.28,22.54-1,2.71-7.12,15.43-12.1,9.72-7.7-8.88-15.27-17.85-23-26.71-2.16-2.48-4.68-4.64-6.92-7.06a2.45,2.45,0,0,0-3.13-.68c-1.56,1.19.48,1.7.93,2.46,3.06,5.18,8.32,8.29,12,13,6.47,8.34,10,18.29,16.12,26.75s17.44,11.34,26.14,5.34a35.62,35.62,0,0,0,14.54-23.37,729,729,0,0,0,7.28-83.07q.63-20.85.08-41.72c-.25-9.17-5.24-26.3,7.13-29.2a58.63,58.63,0,0,0,7-2.2c5.66-2.1,11.61-3.41,17.44-5,.41,6,1,11.9,1.18,17.86.65,24.83.57,49.64-1.35,74.43-.89,11.57-1.76,23.12-2.94,34.68-1.24,12.18-4.88,23.69-7.54,35.48a189.92,189.92,0,0,1-17,46.64,176.26,176.26,0,0,1-25.15,35.5c-9.11,10.09-20.26,20.19-33.27,24.77-10.82,3.81-22.47,3.58-33.61,5.86a159.05,159.05,0,0,1-35.47,2.65c-6.51-.18-10.37,1.76-14.33,6.33-8.19,9.45-24,13.2-35.74,16a179.35,179.35,0,0,1-41.9,4.42,335.81,335.81,0,0,1-43.76-3.51c-7.26-1-14.51-2.11-21.75-3.26-6.9-1.09-13.84-.66-20.82-.6-1.4,0-3.11.2-3.68,1.48a5.27,5.27,0,0,0-.18,2.21,2,2,0,0,1-.92,1.89c-.68.3-1.6-.62-1.08-1.16a4.19,4.19,0,0,0-3.74-.57c-6.17,2.07,1.82,6.84,4.73,4.36,4.09-3.51,8.51-1.83,12.54-1.51,15.58,1.26,30.43,6.86,45.88,8.67,22.69,2.66,45.54,4,68.2-.2,14-2.61,28-5.34,40.3-14,8.7-6.13,17-13.49,30.14-11,16.42,3.14,33.27,1.29,49.68-2.19,12.08-2.55,23.31-7.14,33.2-14.88,6.44-5,12.26-10.75,18.47-16,34.52-29.43,58.21-69.5,65.25-114.57,2.62-16.75,4.54-33,4.84-50,.46-26.33,2-52.75,1.07-79.18-.2-5.76-1.23-11.89-.91-17.62.22-4.11,2.43-4.54,6.23-5.86,6.4-2.22,13.11-3.29,19.55-5.31,10.59-3.3,21.3-6.47,32.37-7.62,2.1-.21,3.18-.7,2.32,2.17-3.66,12.19-5.38,24.75-7.36,37.3a320.14,320.14,0,0,0-3.68,49.4c0,11.07-.18,22.21.84,33.37,1.77,19.17,6.23,36.34,21.32,50.07,10.9,9.93,23.52,14,37.28,15,19.88,1.39,41.17-2.23,60.4-7.29a207.72,207.72,0,0,0,55.17-23.4C1396.7,2013.78,1415.34,1997.21,1423.92,1975.27ZM1058.71,1878a66.83,66.83,0,0,0-.08,7.75,49.25,49.25,0,0,1-.29,7.74s-2.64,1.16-3.9,1.58c-4,1.33-10.52,4-10.52,4s-11.17-21.32-24.7-27.22c-4.76-2-9.63-3.32-13.77.82s-1.17,10.85,5.09,13.68c7,3.16,14,5.63,19.68,11a54.4,54.4,0,0,1,5.06,6.08,48.53,48.53,0,0,1-7.13,3.56c-4.9,1.79-9.51,4.43-14.34,6.5q-4.06,1.74-8.22,3.24c-2.65,1-5.51,1.61-8.07,2.75-.88.39-3,1.44-3,1.44s0-2.67.16-3.78c1.19-10.79,2.55-21.56,3.45-32.38.29-3.42.52-6.85.71-10.29.17-3.17-.17-6.74.68-9.79.52-1.87.55-3.38,3-3.77,16.11-2.57,30.42-9.4,43.67-18.7,1.77-1.24,3.53-1.82,5.44-.2,2.93,2.48,7,3.9,6.76,9C1057.87,1860.32,1058.9,1868.76,1058.71,1878Z" transform="translate(-372.56 -1519.56)"/><path class="cls-1" d="M681.66,2120.56q-11,7.55-12.4,9a22.09,22.09,0,0,0-6.65,13.57h45.28l2.34-17.07h-3.77q-1.53,4.13-2.25,6.11a5.14,5.14,0,0,1-3.23,3.32,16.58,16.58,0,0,1-4.77.45H675.1c.3-2.52,1.68-5,4.13-7.46a26,26,0,0,1,7.1-4.85q12.23-5.57,14.82-7.46,7.74-5.47,7.73-13.56a15.64,15.64,0,0,0-7.55-13.84q-6.55-4.22-16.08-4.22-9.07,0-15,4.4a16.09,16.09,0,0,0-6.65,13.66,5,5,0,0,0,1.53,3.68,5.46,5.46,0,0,0,3.77,1.35,5.93,5.93,0,0,0,3.77-1.26,4.45,4.45,0,0,0,1.53-3.5,4.2,4.2,0,0,0-1.53-3.42l-1.52-1.35a6.46,6.46,0,0,1,1.43-3.68q3.87-5.84,11.68-5.84,12.86,0,12.85,12.67Q697.11,2110,681.66,2120.56Z" transform="translate(-372.56 -1519.56)"/><path class="cls-1" d="M748.86,2084.53q-12.3,0-19.85,9-7.11,8.53-7.1,21t7.1,20.93q7.54,9.08,19.85,9.07t19.86-9.07q7.1-8.44,7.09-20.93t-7.09-21Q761.18,2084.52,748.86,2084.53Zm11.86,47.35q-4.31,8.63-11.86,8.62T737,2131.88a43.89,43.89,0,0,1,0-34.77q4.32-8.54,11.86-8.54t11.86,8.54a43.89,43.89,0,0,1,0,34.77Z" transform="translate(-372.56 -1519.56)"/><path class="cls-1" d="M806.54,2120.56q-11,7.55-12.4,9a22.09,22.09,0,0,0-6.65,13.57h45.29l2.33-17.07h-3.77q-1.53,4.13-2.25,6.11a5.14,5.14,0,0,1-3.23,3.32,16.55,16.55,0,0,1-4.76.45H800c.3-2.52,1.68-5,4.14-7.46a25.83,25.83,0,0,1,7.09-4.85q12.22-5.57,14.83-7.46,7.73-5.47,7.72-13.56a15.65,15.65,0,0,0-7.54-13.84q-6.57-4.22-16.08-4.22-9.09,0-15,4.4a16.09,16.09,0,0,0-6.65,13.66,5,5,0,0,0,1.53,3.68,5.5,5.5,0,0,0,3.77,1.35,6,6,0,0,0,3.78-1.26,4.48,4.48,0,0,0,1.52-3.5,4.22,4.22,0,0,0-1.52-3.42l-1.53-1.35a6.41,6.41,0,0,1,1.44-3.68q3.85-5.84,11.68-5.84,12.84,0,12.84,12.67Q822,2110,806.54,2120.56Z" transform="translate(-372.56 -1519.56)"/><path class="cls-1" d="M863.86,2139.87H860v3.24h27.58v-3.24h-4.13c-2.88,0-4.31-1.26-4.31-3.77v-47.89a7.64,7.64,0,0,1,.09-1.08c0-.59.08-.92.08-1,0-1-.77-1.53-2.33-1.53a1.8,1.8,0,0,0-1,.54q-5.84,4.66-15.63,6.29v2.6h5.75c1.37,0,2.06.63,2.06,1.89v40.16C868.17,2138.61,866.74,2139.87,863.86,2139.87Z" transform="translate(-372.56 -1519.56)"/></g></svg>