<svg id="圖層_1" data-name="圖層 1" xmlns="http://www.w3.org/2000/svg" viewBox="0 0 1270.54 351.47"><path d="M1893.92,899.45h17.75a5.92,5.92,0,0,0,5.91-5.91v-93c18.08-16.5,27.52-36.28,30.9-44.73a34,34,0,1,0-63.18-25.2c-7,17.44-22,79.39-57.79,93.81,24.3,4.35,44.26,1.5,60.5-5.08v74.23A5.92,5.92,0,0,0,1893.92,899.45Z" transform="translate(-920.17 -557.58)" style="fill:#94303a"/><path d="M2040.28,563.5v53.41h-85.17V573.6a5.8,5.8,0,0,0-1-3.28c-2.1-3.14-8-9.73-21.43-12.61a5.93,5.93,0,0,0-7.15,5.79v53.41h-83.4a5,5,0,0,0-5,5v.21a5,5,0,0,0,5,5h83.4v44.26a5.91,5.91,0,0,0,5.92,5.91h17.74a5.9,5.9,0,0,0,5.91-5.91V627.08h85.17v44.26a5.91,5.91,0,0,0,5.91,5.91h17.75a5.91,5.91,0,0,0,5.91-5.91V627.08h56a5,5,0,0,0,1.29-.18,4.9,4.9,0,0,0,1.29.18h41.72a5,5,0,0,0,3.68-8.43l-21.39-17.07a9.41,9.41,0,0,0-12.78,1l-.15.17-.12.13-13.06,14.1a3.87,3.87,0,0,0-.48,0h-56V573.6a5.88,5.88,0,0,0-1-3.28c-2.11-3.14-8-9.73-21.43-12.61A5.93,5.93,0,0,0,2040.28,563.5Z" transform="translate(-920.17 -557.58)" style="fill:#94303a"/><path d="M2023.36,712.27V795.8a150,150,0,0,1-23.77,1.23,243.39,243.39,0,0,0,23.77,7.51V869.1h.17a32.73,32.73,0,0,0,32.57,36.06H2158c18,0,32.75-21.36,32.75-39.37a32.84,32.84,0,0,0-21.15-30.57v21.32a18.85,18.85,0,0,1-18.85,18.84h-78.46v0A18.83,18.83,0,0,1,2054,856.54V810.2c63.43,6.77,103-20.47,112.12-29.66a29.49,29.49,0,1,0-42-41.43c-8.15,8.25-31.49,35.11-70.14,49.19V722.73a6.07,6.07,0,0,0-1-3.41c-2.19-3.25-8.27-10.07-22.2-13.06A6.15,6.15,0,0,0,2023.36,712.27Z" transform="translate(-920.17 -557.58)" style="fill:#94303a"/><path d="M1025.23,684.69a4,4,0,0,0-4-4H966.33a4,4,0,0,0-4,4v.16a4,4,0,0,0,4,4h54.93a4,4,0,0,0,4-4Z" transform="translate(-920.17 -557.58)" style="fill:#94303a"/><path d="M1027.77,718.13V718a4,4,0,0,0-4-4h-60a4,4,0,0,0-4,4v.17a4,4,0,0,0,4,4h60A4,4,0,0,0,1027.77,718.13Z" transform="translate(-920.17 -557.58)" style="fill:#94303a"/><path d="M1147.11,684.69a4,4,0,0,0-4-4h-54.93a4,4,0,0,0-4,4v.16a4,4,0,0,0,4,4h54.93a4,4,0,0,0,4-4Z" transform="translate(-920.17 -557.58)" style="fill:#94303a"/><path d="M1149.66,718a4,4,0,0,0-4-4h-60a4,4,0,0,0-4,4v.17a4,4,0,0,0,4,4h60a4,4,0,0,0,4-4Z" transform="translate(-920.17 -557.58)" style="fill:#94303a"/><path d="M1066.4,747.44V656.59h90.43c1.4,9,2.72,20.39-7.17,30.06,39.09-8.48,39.23-29.72,39.13-38.83a16.49,16.49,0,1,0-33,.36c0,.1,0,.21,0,.31H1066.4V614.86h71a2.4,2.4,0,0,0,.28,0h34.22a4.75,4.75,0,0,0,3.49-8l-20.27-16.18a8.91,8.91,0,0,0-12.11.91l-.15.16-.11.12L1129,606.76H950.21a4,4,0,0,0-4,4v.16a4,4,0,0,0,4,4h92.64v33.63H953a86.63,86.63,0,0,0-9.36-13.84c2.28,18.57-13.46,26.83-19.23,33.87A16.49,16.49,0,1,0,950,689.41c4.23-5.16,12.41-15.48,6.59-32.82h86.3v90.85a4.71,4.71,0,0,0,4.71,4.71h14.13A4.71,4.71,0,0,0,1066.4,747.44Z" transform="translate(-920.17 -557.58)" style="fill:#94303a"/><path d="M1152.79,776.11h19.12a4.75,4.75,0,0,0,3.49-8l-20.27-16.18a8.91,8.91,0,0,0-12.11.91l-.15.16-.11.12L1129,768H950.21a4,4,0,0,0-4,4v.16a4,4,0,0,0,4,4h187.2c.1,0,.19,0,.28,0Z" transform="translate(-920.17 -557.58)" style="fill:#94303a"/><path d="M947.3,852.78c.07-.08.13-.17.21-.25C947.16,852.79,947.11,852.85,947.3,852.78Z" transform="translate(-920.17 -557.58)" style="fill:#94303a"/><path d="M1165.51,858.65c-4.37-11.09-25-52.86-76.55-43.89,11.69,4.78,19.83,17.56,25.59,30.33-39.53-2.78-70.63-2.76-104.15-.48,8.73-4.54,18.1-9.78,28-16.19,7.17-4.63,9.33-9.08,9-9.89-.83-2.08-8.39-8.7-16.13-13.43h123.28a2.4,2.4,0,0,0,.28,0h34.22a4.76,4.76,0,0,0,3.49-8L1172.3,780.9a8.93,8.93,0,0,0-12.11.91l-.15.17-.11.12c-5.86,6.33-13.13,14.16-13.81,14.91h-222a4,4,0,0,0-4,4v.17a4,4,0,0,0,4,4h95.23c-1.6,3.44-.58,2.24-9.21,12.16C999.71,829.26,988,839,977,847.48c-5.45.56-11,1.15-16.79,1.8a44.18,44.18,0,0,0-12.89,3.5,4.59,4.59,0,0,0-1,2.2c-.49,3,1.17,13,7.41,22,1.7,2.46,1.17,4.21,7.49,2.33,3.93-1.17,2.06-.59,16.51-3.88,69.07-15.69,115.86-17.9,142-17.5,2.52,7,4.33,13.12,5.67,16.52a21.58,21.58,0,1,0,40.16-15.8Z" transform="translate(-920.17 -557.58)" style="fill:#94303a"/><path d="M1321.22,672.89a20.55,20.55,0,0,0-28.58-5.34c-9.37,6.41-37.79,32.44-60.61,27.64,15,14.51,30.56,19.09,44.2,19v30.36h-52.4a3.61,3.61,0,0,0-3.61,3.61v.14a3.61,3.61,0,0,0,3.61,3.61h44c-2,5.87-14.63,43.12-24.31,64.14-11,23.81-36.31,55.52-36.31,55.52s33.92-25.25,53.44-50.47c5.62-7.26,11-17.54,15.63-28v73.54a4.27,4.27,0,0,0,4.27,4.28h12.84a4.28,4.28,0,0,0,4.28-4.28V774.77c11,8.64,10.28,22.9,12.79,30.32a16.2,16.2,0,0,0,30.68-10.41c-2.73-8.06-9.27-26.2-43.47-23.75V752h15.85a4,4,0,0,0,.91-.13,3.63,3.63,0,0,0,.95.13h30.18a3.63,3.63,0,0,0,2.67-6.1L1332.7,733.5a6.81,6.81,0,0,0-9.24.7l-.11.12-.09.09-9.46,10.22c-.11,0-.22,0-.33,0h-15.85V710.5a77.44,77.44,0,0,0,18.25-9A20.55,20.55,0,0,0,1321.22,672.89Z" transform="translate(-920.17 -557.58)" style="fill:#94303a"/><path d="M1380.75,728a16.2,16.2,0,0,0,30.68-10.41c-2.87-8.47-9.92-28.1-48.9-23.23C1379.19,702.08,1377.88,719.49,1380.75,728Z" transform="translate(-920.17 -557.58)" style="fill:#94303a"/><path d="M1380.75,797.33a16.2,16.2,0,1,0,30.68-10.4c-2.87-8.47-9.92-28.1-48.9-23.23C1379.19,771.45,1377.88,788.86,1380.75,797.33Z" transform="translate(-920.17 -557.58)" style="fill:#94303a"/><path d="M1450.87,889V835.76h7.43a3.84,3.84,0,0,0,.91-.13,3.71,3.71,0,0,0,1,.13h30.18a3.63,3.63,0,0,0,2.66-6.1l-15.47-12.35a6.82,6.82,0,0,0-9.25.69l-.11.13-.09.09c-3.44,3.72-7.52,8.13-9.46,10.21l-.33,0h-7.43V645.16a4.29,4.29,0,0,0-.72-2.38c-1.53-2.27-5.77-7-15.51-9.12a4.29,4.29,0,0,0-5.17,4.19V828.4H1326.62a3.6,3.6,0,0,0-3.6,3.6v.15a3.61,3.61,0,0,0,3.6,3.61h102.85V889a4.28,4.28,0,0,0,4.28,4.27h12.84A4.28,4.28,0,0,0,1450.87,889Z" transform="translate(-920.17 -557.58)" style="fill:#94303a"/><path d="M1697.14,673.58A18.1,18.1,0,0,0,1731.42,662c-3.21-9.47-11.09-31.41-54.65-26C1695.39,644.66,1693.93,664.11,1697.14,673.58Z" transform="translate(-920.17 -557.58)" style="fill:#94303a"/><path d="M1809.77,767.73c-6-19.32-37.87-54.35-82.71-44.17,20.29,7.11,43.85,50.3,48.18,59.83a19,19,0,0,0,25.09,9.44C1809.87,788.5,1812.85,777.74,1809.77,767.73Z" transform="translate(-920.17 -557.58)" style="fill:#94303a"/><path d="M1618.58,706l-.1.11-10.57,11.41c-.13,0-.25,0-.37,0h-17.71V664.56a4.68,4.68,0,0,0-.81-2.66c-1.7-2.53-6.45-7.86-17.32-10.19a4.79,4.79,0,0,0-5.78,4.69v61.08h-50.81a4,4,0,0,0-4,4v.17a4,4,0,0,0,4,4h41.37c-2.21,6.56-16.35,48.19-27.17,71.68-12.26,26.61-40.58,62-40.58,62s37.91-28.21,59.73-56.41c6.28-8.11,12.26-19.6,17.46-31.34V884.87a4.78,4.78,0,0,0,4.78,4.78h14.35a4.78,4.78,0,0,0,4.78-4.78V751.2c12.25,9.66,11.49,25.6,14.3,33.89a18.1,18.1,0,1,0,34.28-11.63c-3.06-9-10.34-29.31-48.58-26.56V725.7h17.71a3.93,3.93,0,0,1,2.08,0h33.73a4.06,4.06,0,0,0,3-6.81l-17.3-13.8a7.6,7.6,0,0,0-10.32.77Z" transform="translate(-920.17 -557.58)" style="fill:#94303a"/><path d="M1777.68,677l-.13.13-.1.11-10.53,11.38H1646.56a4,4,0,0,0-4,4v.17a4,4,0,0,0,4,4h155.76a4.06,4.06,0,0,0,3-6.82L1788,676.2A7.6,7.6,0,0,0,1777.68,677Z" transform="translate(-920.17 -557.58)" style="fill:#94303a"/><path d="M1819.42,887.43a19.51,19.51,0,0,0-15.12-18.53h0l-.17,0a18,18,0,0,0-2.46-.39c-8.79-1.46-41.91-6.87-66.33-17.32C1745.7,837,1751.62,819,1760,791.26c2.68-8.91,2.92-12.13,2.24-12.79-2.19-2.14-15.71-7.76-26.83-7.83-3,0-4.15,1.41-4.9,4.35-1,4-.56,2.91-3.6,17.65a127.75,127.75,0,0,1-17.4,42.56c-18.27-15.41-28-34-32.54-45,14.73-16.64,22.28-34.1,22-50.06-.19-10.75-8.13-19.72-18.88-20s-18.49,8.24-20,18.88c-7.12,48.52-19.82,71.4-53,98.4,27.78-11.69,49.63-26.35,65-42a230.08,230.08,0,0,0,25,56.58c-34,40.08-82.2,57.41-80.36,57,0,0,21-.5,61.66-18.74,14.23-6.38,25.35-12.17,34.3-18.12,26.76,24.32,80.42,34.05,80.42,34.05h0a19.51,19.51,0,0,0,26.31-18.79Z" transform="translate(-920.17 -557.58)" style="fill:#94303a"/></svg>