<svg id="圖層_1" data-name="圖層 1" xmlns="http://www.w3.org/2000/svg" viewBox="0 0 529.59 366.85"><path d="M716.25,336.05h-.08l-.34-.08c-1.6-.37-7.49-2-11.69-6.18,5.52-11.37,6.26-23.49,6.3-28.47h8.22a1.14,1.14,0,0,0,.84-1.92l-4.88-3.89a2.14,2.14,0,0,0-2.91.22l0,0,0,0-2.93,3.16H703c4.67-6,5.2-13.22,5.2-15.8a7.55,7.55,0,1,0-15.09,0c0,4.17,2,18.17-4.2,24.09a23.87,23.87,0,0,0,12-6h3.26a76.62,76.62,0,0,1-3.89,22.57,42.11,42.11,0,0,1-2.8-11.72,58,58,0,0,0,.7,16.89c-5.34,11.38-13.88,18.68-24.17,24,12.56-2.44,20.81-8.91,26.21-16.55,4.08,9.95,12.08,11.73,12.08,11.73h0a6.39,6.39,0,1,0,4-12.12Z" transform="translate(-634.41 -257.22)" style="fill:#94303a"/><path d="M655.35,294.25a6.48,6.48,0,1,0-11.28-6.37c-1.75,3.11-2.54,10.05-9.66,11.86C649.37,304.55,653.59,297.36,655.35,294.25Z" transform="translate(-634.41 -257.22)" style="fill:#94303a"/><path d="M654,302.18a6.48,6.48,0,0,0-8.42,3.61c-1.32,3.33-4.19,15.12-11,17.87A20.84,20.84,0,0,0,645.3,323v18.58a1.35,1.35,0,0,0,1.35,1.35h4a1.35,1.35,0,0,0,1.35-1.35V318.79a24.25,24.25,0,0,0,5.54-8.2A6.48,6.48,0,0,0,654,302.18Z" transform="translate(-634.41 -257.22)" style="fill:#94303a"/><path d="M657.1,313.1v0a1.14,1.14,0,0,0,1.14,1.14H677.6a.93.93,0,0,0,.29-.05,1,1,0,0,0,.3.05h9.5a1.15,1.15,0,0,0,.84-1.93l-4.87-3.89a2.15,2.15,0,0,0-2.91.22l0,0,0,0-3,3.22H658.24A1.14,1.14,0,0,0,657.1,313.1Z" transform="translate(-634.41 -257.22)" style="fill:#94303a"/><path d="M661.39,306.6h4.15a.77.77,0,0,0,.77-.76V304h16.63V305a1.14,1.14,0,0,0,1.14,1.14h3.4a1.14,1.14,0,0,0,1.14-1.14V289.15a1.19,1.19,0,0,0-.19-.63,6.33,6.33,0,0,0-4.12-2.42,1.14,1.14,0,0,0-1.37,1.11v14.5h-6.18a1.15,1.15,0,0,0,.08-.41v-23a1.07,1.07,0,0,0-.19-.63,6.29,6.29,0,0,0-4.11-2.43,1.15,1.15,0,0,0-1.38,1.12V301.3a1.15,1.15,0,0,0,.08.41h-4.93V288.39a1.1,1.1,0,0,0-.2-.63,6.29,6.29,0,0,0-4.11-2.42,1.13,1.13,0,0,0-1.37,1.11v19.39A.76.76,0,0,0,661.39,306.6Z" transform="translate(-634.41 -257.22)" style="fill:#94303a"/><path d="M677.83,325.41v8.34A7.63,7.63,0,0,0,693,335a4.63,4.63,0,0,1-8.42-2.66v-10.8a1.32,1.32,0,0,0-.23-.74,7.46,7.46,0,0,0-4.88-2.88,1.35,1.35,0,0,0-1.63,1.32v1.34H668.9a7.72,7.72,0,0,0-4.73-2.66,1.36,1.36,0,0,0-1.63,1.32v6.15c-.29,23.57-8,27.84-7.26,27.84,0,0,7.73-5.64,10.9-12.25s3.1-14.84,3.1-15.59v-2.49h8.55v2.49Z" transform="translate(-634.41 -257.22)" style="fill:#94303a"/><path d="M702.51,556.61a8,8,0,1,0-5.15-15.18c-4.2,1.43-20.06,8.34-17.64,27.64C683.55,560.82,698.32,558,702.51,556.61Z" transform="translate(-634.41 -257.22)" style="fill:#94303a"/><path d="M665.06,555.26a2.13,2.13,0,0,0-2.91.22l0,0,0,0-3,3.21h-3.71V544.5a1.32,1.32,0,0,0-.23-.74,7.49,7.49,0,0,0-4.88-2.88,1.35,1.35,0,0,0-1.63,1.32v16.55H636a1.13,1.13,0,0,0-1.13,1.14v0a1.13,1.13,0,0,0,1.13,1.14h12.67v20c-3.54.8-6.73,1.19-8.35,1.55a7.55,7.55,0,1,0,3.28,14.73,27.54,27.54,0,0,0,5.07-1.7v2.93h0v6.88a7,7,0,0,1-11.22,5.58,9.32,9.32,0,0,0,18-3.51v0h0V591.43c4.14-3.64,7.66-9.32,7.51-18.11-1.57,2.61-4.37,4.42-7.51,5.72v-18H669.1a1.14,1.14,0,0,0,.84-1.92Z" transform="translate(-634.41 -257.22)" style="fill:#94303a"/><path d="M708.08,570.13a1.35,1.35,0,0,0-1.62,1.32v2.19H679.08a1.35,1.35,0,0,0-.21-.64,7.54,7.54,0,0,0-4.89-2.87,1.36,1.36,0,0,0-1.63,1.32v44.76a1.35,1.35,0,0,0,1.35,1.35h4a1.34,1.34,0,0,0,1.34-1.35v-2.56h27.37v2.56a1.34,1.34,0,0,0,1.34,1.35h4.05a1.34,1.34,0,0,0,1.34-1.35V573.75A1.34,1.34,0,0,0,713,573,7.54,7.54,0,0,0,708.08,570.13Zm-1.62,41.2H679.09v-17h27.37Zm0-19.32H679.09V576h27.37Z" transform="translate(-634.41 -257.22)" style="fill:#94303a"/><path d="M702.51,469a8,8,0,1,0-5.15-15.18c-4.2,1.42-20.06,8.34-17.64,27.64C683.55,473.24,698.32,470.46,702.51,469Z" transform="translate(-634.41 -257.22)" style="fill:#94303a"/><path d="M665.06,467.67a2.15,2.15,0,0,0-2.91.22l0,0,0,0c-1.08,1.17-2.36,2.54-3,3.21h-3.71V456.92a1.33,1.33,0,0,0-.23-.75,7.54,7.54,0,0,0-4.88-2.87,1.35,1.35,0,0,0-1.63,1.32v16.55H636a1.12,1.12,0,0,0-1.13,1.13v.05a1.12,1.12,0,0,0,1.13,1.13h12.67v20c-3.54.8-6.73,1.19-8.35,1.55a7.55,7.55,0,1,0,3.28,14.73,28.34,28.34,0,0,0,5.07-1.7V511h0v6.87a7,7,0,0,1-11.22,5.59,9.32,9.32,0,0,0,18-3.51v0h0V503.85c4.14-3.64,7.66-9.32,7.51-18.11-1.57,2.6-4.37,4.42-7.51,5.72v-18H669.1a1.14,1.14,0,0,0,.84-1.92Z" transform="translate(-634.41 -257.22)" style="fill:#94303a"/><path d="M708.08,482.55a1.34,1.34,0,0,0-1.62,1.32v2.19H679.08a1.31,1.31,0,0,0-.21-.64,7.46,7.46,0,0,0-4.89-2.87,1.35,1.35,0,0,0-1.63,1.32v44.76A1.36,1.36,0,0,0,673.7,530h4a1.35,1.35,0,0,0,1.34-1.35v-2.56h27.37v2.56A1.35,1.35,0,0,0,707.8,530h4.05a1.35,1.35,0,0,0,1.34-1.35V486.17a1.32,1.32,0,0,0-.22-.75A7.46,7.46,0,0,0,708.08,482.55Zm-1.62,41.2H679.09v-17h27.37Zm0-19.32H679.09V488.37h27.37Z" transform="translate(-634.41 -257.22)" style="fill:#94303a"/><path d="M712.62,428.49h0l-.09,0-.36.08c-1.89.43-9.42,1.83-15.89-1.14C688.82,424,683.06,414,683.06,414a63.63,63.63,0,0,0,11.25,19.4c9.51,11.24,20.17,8.71,20.17,8.71h0a6.7,6.7,0,0,0,2.51-.67,6.9,6.9,0,0,0-4.37-13Z" transform="translate(-634.41 -257.22)" style="fill:#94303a"/><path d="M657.19,377.7h.49c4.38,3.38,3.16,8.61,3.62,11.38a5.25,5.25,0,0,0,10.36-1.7c-.42-2.57-1.45-8.21-10.91-9.68h7.47a1.55,1.55,0,0,0,.31,0H678a1.14,1.14,0,0,0,.84-1.92L674,371.93a2.14,2.14,0,0,0-2.91.22l0,0,0,0-2.92,3.16H658.05c.26-.82.44-1.51.56-2A7.55,7.55,0,0,0,643.9,370c-.93,4.06-2.13,18.16-9.49,22.54C648.47,392.84,654.65,383.76,657.19,377.7Z" transform="translate(-634.41 -257.22)" style="fill:#94303a"/><path d="M691.66,364.32a7.53,7.53,0,0,0-9,5.66c-.94,4.06-2.14,18.16-9.49,22.54,14.06.32,20.24-8.76,22.78-14.82h.49c4.38,3.38,3.16,8.61,3.61,11.38a5.25,5.25,0,1,0,10.36-1.7c-.42-2.57-1.45-8.21-10.9-9.68h8.92a1.55,1.55,0,0,0,.31,0h9.51a1.15,1.15,0,0,0,.84-1.92l-4.88-3.89a2.14,2.14,0,0,0-2.91.22l0,0,0,0-2.93,3.16h-11.5c.26-.82.44-1.51.56-2A7.55,7.55,0,0,0,691.66,364.32Z" transform="translate(-634.41 -257.22)" style="fill:#94303a"/><path d="M635.05,441s22.18-.89,33.48-10.79a26.09,26.09,0,0,0,8.77-17.78h39.13a1.36,1.36,0,0,0,1-2.28l-5.81-4.63a2.54,2.54,0,0,0-3.46.26l0,0,0,0c-1.68,1.81-3.76,4.05-4,4.27h-26.7c0-.47,0-.91,0-1.32V406c9.18-.45,16.63-3.09,20.42-6.83a6.6,6.6,0,0,0,.49-9.15,6.37,6.37,0,0,0-9.15-.48c-10.64,10.51-30.63,11.91-44.13,9.41a67.9,67.9,0,0,0,24.18,6.89v2.95c0,.45,0,.88,0,1.32H639.13a1.12,1.12,0,0,0-1.13,1.13v.05a1.13,1.13,0,0,0,1.13,1.13H669C665.76,434,634.34,441,635.05,441Z" transform="translate(-634.41 -257.22)" style="fill:#94303a"/><path d="M1020.27,489.17a13.58,13.58,0,0,0-17.63,7.58c-2.77,7-8.78,31.68-23.06,37.43a43.59,43.59,0,0,0,22.55-1.42v64.79a2.83,2.83,0,0,0,2.83,2.83h8.47a2.83,2.83,0,0,0,2.82-2.83V525.42a2.88,2.88,0,0,0-.26-1.2,50.75,50.75,0,0,0,11.86-17.42A13.56,13.56,0,0,0,1020.27,489.17Z" transform="translate(-634.41 -257.22)" style="fill:#94303a"/><path d="M1163.9,586.36c-1-9-7.69-43.53-47.08-47.27,14.68,11.27,13.67,41.84,14.64,50.8a16.32,16.32,0,0,0,32.44-3.53Z" transform="translate(-634.41 -257.22)" style="fill:#94303a"/><path d="M1154.31,495.13a13.57,13.57,0,0,0-27-.42h-39.37a59.49,59.49,0,0,0,3.61-16.87,15.81,15.81,0,0,0-31.57-1.79c-.49,8.72,2,38.25-11.63,49.89,21.13-3.11,32-15,37.51-26.38h41.72c1.41,7.65,6,19.24-3.23,29.62C1156,520,1154.89,502.6,1154.31,495.13Z" transform="translate(-634.41 -257.22)" style="fill:#94303a"/><path d="M1082.64,556.32a11.53,11.53,0,1,0-21.42-8.54c-2.36,5.92-7.46,26.92-19.59,31.81C1069.16,584.51,1080.28,562.24,1082.64,556.32Z" transform="translate(-634.41 -257.22)" style="fill:#94303a"/><path d="M1110.61,524.17a3.42,3.42,0,0,0-.57-1.91c-1.23-1.83-4.65-5.67-12.49-7.35a3.46,3.46,0,0,0-4.17,3.38v9.79h0v66.81a17.9,17.9,0,0,1-28.72,14.29,23.87,23.87,0,0,0,46-9s0-.07,0-.1h0v-72h0Z" transform="translate(-634.41 -257.22)" style="fill:#94303a"/><path d="M822.62,488.11c10.39,2.28,11.84,12.28,14.53,16.7a9.37,9.37,0,1,0,16-9.74C850.48,490.65,844,480.44,822.62,488.11Z" transform="translate(-634.41 -257.22)" style="fill:#94303a"/><path d="M887.08,547.33a9.88,9.88,0,0,0,7.35-11.9c-1.26-5.31-4.4-17.65-28.38-16.95,9.68,5.68,7.87,16.19,9.13,21.5A9.88,9.88,0,0,0,887.08,547.33Z" transform="translate(-634.41 -257.22)" style="fill:#94303a"/><path d="M959.19,510.39a9.89,9.89,0,0,0-19.78.21v.19H905.18c4.62-9.1,18.78-15.12,23-17.62a9.84,9.84,0,0,0-10.09-16.89c-4.44,2.65-20.27,14-15,34.51H817.8a51.89,51.89,0,0,0-5.61-8.3c1.36,11.13-8.08,16.09-11.53,20.31A9.89,9.89,0,1,0,816,535.33c2.53-3.09,7.43-9.29,3.95-19.69H940c.84,5.39,1.63,12.23-4.3,18C959.16,528.58,959.25,515.85,959.19,510.39Z" transform="translate(-634.41 -257.22)" style="fill:#94303a"/><path d="M809.87,549a10.37,10.37,0,1,0,11.25,17.43c4.82-3.1,22.56-16.78,13.45-40.24C832.35,537.74,814.69,545.88,809.87,549Z" transform="translate(-634.41 -257.22)" style="fill:#94303a"/><path d="M924.83,541.94c11.56,2.19,19.74,19.84,22.86,24.64A10.37,10.37,0,1,0,965.1,555.3C962,550.49,948.27,532.78,924.83,541.94Z" transform="translate(-634.41 -257.22)" style="fill:#94303a"/><path d="M925.92,449.08c-5-5.57-13.83-6.28-19.16-1-22.29,22-64.18,25-92.47,19.72A142.16,142.16,0,0,0,863.7,482.1c5.81,6.19,3.71,14.52,4.33,19.14a9.38,9.38,0,0,0,18.59-2.49c-.53-3.93-1.73-11.85-12.43-16.05,22.84.37,41.71-5.55,50.71-14.45C930.23,463,930.93,454.66,925.92,449.08Z" transform="translate(-634.41 -257.22)" style="fill:#94303a"/><path d="M940,598.06h0a217.41,217.41,0,0,1-32.83-1.35A72.48,72.48,0,0,0,917.48,579c1.77-4.18,3-6.11,3.27-5.94a2.7,2.7,0,0,0-.45-1.19c-1-1.5-6.86-4.64-13.28-6a2.84,2.84,0,0,0-3.41,2.77,22.06,22.06,0,0,1-.72,2.71H858.71a10.85,10.85,0,0,0-21.51-.16h0s0,0,0,.14,0,.39-.06.58c-.37,3-2.24,14.92-10,22.94-9,9.25-26.83,12.54-26.83,12.54A100.26,100.26,0,0,0,834.91,601c19.29-7.3,22.86-21.68,23.41-24.73h42.74c-.55,1.3-1.22,2.76-2,4.39a53.71,53.71,0,0,1-8.36,12.13A147.6,147.6,0,0,1,863.88,579a204.65,204.65,0,0,0,20.31,19.92c-31.16,25.74-87.11,24.85-90.88,24.72,3.61.2,58,2.92,86.29-8.16a80.69,80.69,0,0,0,15.71-8l.55.38c15.07,10.34,44.63,9.1,44.63,9.1h0a9.49,9.49,0,1,0-.46-18.94Z" transform="translate(-634.41 -257.22)" style="fill:#94303a"/><path d="M920.75,573.1a2.34,2.34,0,0,1,0,.38C920.82,573.26,920.8,573.13,920.75,573.1Z" transform="translate(-634.41 -257.22)" style="fill:#94303a"/><path d="M793.31,623.64h0Z" transform="translate(-634.41 -257.22)" style="fill:#94303a"/><path d="M858.6,560.36h43.91a15.08,15.08,0,0,0,5.34-29.19V541a8.69,8.69,0,0,1-8.68,8.69H866.05v0a8.68,8.68,0,0,1-8.42-8.67V530.22h0v-1.66a2.72,2.72,0,0,0-.48-1.57c-1-1.5-3.81-4.65-10.23-6a2.82,2.82,0,0,0-3.41,2.76v20h.08c-.05.5-.08,1-.08,1.53A15.13,15.13,0,0,0,858.6,560.36Z" transform="translate(-634.41 -257.22)" style="fill:#94303a"/><path d="M822.62,300.84c10.39,2.29,11.84,12.29,14.53,16.71a9.37,9.37,0,1,0,16-9.74C850.48,303.38,844,293.18,822.62,300.84Z" transform="translate(-634.41 -257.22)" style="fill:#94303a"/><path d="M887.08,360.07a9.88,9.88,0,0,0,7.35-11.9c-1.26-5.31-4.4-17.65-28.38-16.95,9.68,5.68,7.87,16.19,9.13,21.5A9.88,9.88,0,0,0,887.08,360.07Z" transform="translate(-634.41 -257.22)" style="fill:#94303a"/><path d="M816,348.07c2.53-3.1,7.43-9.29,3.95-19.69H940c.84,5.38,1.63,12.23-4.3,18,23.44-5.09,23.53-17.82,23.47-23.29a9.89,9.89,0,0,0-19.78.22v.19H905.18c4.62-9.1,18.78-15.12,23-17.63A9.83,9.83,0,1,0,918.07,289c-4.44,2.65-20.27,14-15,34.51H817.8a52.38,52.38,0,0,0-5.61-8.31c1.36,11.14-8.08,16.09-11.53,20.32A9.89,9.89,0,1,0,816,348.07Z" transform="translate(-634.41 -257.22)" style="fill:#94303a"/><path d="M868,314a9.38,9.38,0,0,0,18.59-2.49c-.53-3.93-1.73-11.84-12.43-16,22.84.37,41.71-5.55,50.71-14.45,5.33-5.27,6-13.6,1-19.17s-13.83-6.28-19.16-1c-22.29,22-64.18,25-92.47,19.72a142.16,142.16,0,0,0,49.41,14.31C869.51,301,867.41,309.36,868,314Z" transform="translate(-634.41 -257.22)" style="fill:#94303a"/><path d="M809.87,361.72a10.38,10.38,0,0,0,11.25,17.44c4.82-3.11,22.56-16.78,13.45-40.24C832.35,350.48,814.69,358.62,809.87,361.72Z" transform="translate(-634.41 -257.22)" style="fill:#94303a"/><path d="M924.83,354.67c11.56,2.2,19.74,19.84,22.86,24.65A10.38,10.38,0,0,0,965.1,368C962,363.22,948.27,345.52,924.83,354.67Z" transform="translate(-634.41 -257.22)" style="fill:#94303a"/><path d="M793.12,436.37h0Z" transform="translate(-634.41 -257.22)" style="fill:#94303a"/><path d="M879.6,428.21a80.13,80.13,0,0,0,15.71-7.95l.55.38c15.07,10.33,44.63,9.1,44.63,9.1h0a9.27,9.27,0,0,0,3.54-.53,9.49,9.49,0,0,0-4-18.4h0a218.19,218.19,0,0,1-32.83-1.34,72.48,72.48,0,0,0,10.28-17.67c1.77-4.18,3-6.12,3.27-5.95a2.71,2.71,0,0,0-.45-1.18c-1-1.5-6.86-4.64-13.28-6a2.83,2.83,0,0,0-3.41,2.77,22.06,22.06,0,0,1-.72,2.71H858.71A10.85,10.85,0,0,0,837.2,384h0s0,.05,0,.14a5.7,5.7,0,0,0-.06.58c-.37,3-2.24,14.91-10,22.94-9,9.25-26.83,12.54-26.83,12.54a100.26,100.26,0,0,0,34.66-6.46c19.29-7.3,22.86-21.69,23.41-24.73h42.74c-.55,1.3-1.22,2.76-2,4.39a53.94,53.94,0,0,1-8.36,12.13,147.29,147.29,0,0,1-26.79-13.75,204.06,204.06,0,0,0,20.31,19.93c-31.16,25.74-87.11,24.85-90.88,24.72C796.92,436.57,851.27,439.3,879.6,428.21Z" transform="translate(-634.41 -257.22)" style="fill:#94303a"/><path d="M920.75,385.83a2.56,2.56,0,0,1,0,.39C920.82,386,920.8,385.87,920.75,385.83Z" transform="translate(-634.41 -257.22)" style="fill:#94303a"/><path d="M858.6,373.1h43.91a15.08,15.08,0,0,0,5.34-29.19v9.83a8.68,8.68,0,0,1-8.68,8.68H866.05a8.68,8.68,0,0,1-8.42-8.67V343h0v-1.67a2.77,2.77,0,0,0-.48-1.57c-1-1.49-3.81-4.64-10.23-6a2.84,2.84,0,0,0-3.41,2.77v20h.08c-.05.5-.08,1-.08,1.52A15.14,15.14,0,0,0,858.6,373.1Z" transform="translate(-634.41 -257.22)" style="fill:#94303a"/><path d="M1114.61,351.83c14.68,11.27,13.67,41.84,14.65,50.79a16.32,16.32,0,0,0,32.44-3.52C1160.72,390.14,1154,355.57,1114.61,351.83Z" transform="translate(-634.41 -257.22)" style="fill:#94303a"/><path d="M1083.65,312.3h41.71c1.41,7.65,6,19.24-3.23,29.62,31.62-9.14,30.56-26.58,30-34.05a13.57,13.57,0,0,0-27-.43h-39.37a59.89,59.89,0,0,0,3.62-16.87,15.82,15.82,0,1,0-31.58-1.78c-.49,8.72,2,38.25-11.63,49.89C1067.26,335.57,1078.1,323.7,1083.65,312.3Z" transform="translate(-634.41 -257.22)" style="fill:#94303a"/><path d="M1080.44,369.06a11.53,11.53,0,1,0-21.42-8.54c-2.36,5.91-7.47,26.91-19.6,31.81C1067,397.24,1078.08,375,1080.44,369.06Z" transform="translate(-634.41 -257.22)" style="fill:#94303a"/><path d="M1041.23,403.49a11.61,11.61,0,0,0-.79-1.43c-3.14-4.9-8.63-7.67-13.85-10.23,12.53-21.76,16-47.71,15-72.8a6.12,6.12,0,0,0-.68-3.06,5.79,5.79,0,0,0-2.34-1.86,47.71,47.71,0,0,0-9.19-3.69,5.06,5.06,0,0,0-2.4-.27c-2.65.56-2.84,4.24-2.4,6.91l-6.91,0a182.8,182.8,0,0,0,1.55-19.71,13,13,0,0,0-.76-5.77c-1.43-3.13-4.92-4.67-8.11-5.94-1.66-.66-4.9-1.72-6.29.08-.63.83-.49,2.43-.51,3.4-.14,7.32-.92,14.65-1.4,20.78-.13,1.65-.67,5.52-.8,7.18L988.91,317c-1.86,0-4.33.53-4.39,2.39S987.07,322,989,322l11.65-.06a482.36,482.36,0,0,1-10.15,59.84,2.64,2.64,0,0,0-.06,1.52,2.69,2.69,0,0,0,1.42,1.25l19,9.83A147.57,147.57,0,0,1,982,437.62,187.81,187.81,0,0,0,1019,403.11c1.66,4.22,3.41,8.58,6.67,11.74s8.48,4.79,12.45,2.58C1042.71,414.87,1043.47,408.34,1041.23,403.49Zm-16.72-77.69a173,173,0,0,1-10,59.18h0c-.12.31-.23.62-.34.93l-.79-.4-.26-.13c-2.06-1-4.17-1.92-6.31-2.75-1.67-.64-3.35-1.22-5.06-1.73.34.1,2.77-8.17,2.94-8.72q1.89-6.19,3.7-12.41c2.17-7.44,4-15,5.66-22.55.32-1.49.63-3,.93-4.48.67-3.39,1.3-6.8,1.84-10.22l.09-.59h7.56Z" transform="translate(-634.41 -257.22)" style="fill:#94303a"/><path d="M1107.83,335c-1.23-1.83-4.65-5.67-12.49-7.35a3.45,3.45,0,0,0-4.16,3.38v9.79h0v66.8a17.91,17.91,0,0,1-28.72,14.3,23.87,23.87,0,0,0,46-9v-.1h0v-72h0v-3.91A3.43,3.43,0,0,0,1107.83,335Z" transform="translate(-634.41 -257.22)" style="fill:#94303a"/><path d="M761.87,481.51a11.35,11.35,0,0,0-7.08,2.12,6.59,6.59,0,0,0-2.85,5.43,7.29,7.29,0,0,0,.67,3,7.74,7.74,0,0,0,1.87,2.51,10.46,10.46,0,0,0,7.27,2.43,11.84,11.84,0,0,0,4.85-.89,8.42,8.42,0,0,0,3.86-3.24,7.08,7.08,0,0,0,1.1-3.81,6.48,6.48,0,0,0-2.4-5.05A10.56,10.56,0,0,0,761.87,481.51Zm7.17,7.81-7.32.05-8.87-.06c0-.26,0-.46,0-.58a4.89,4.89,0,0,1,.63-2.33,6.66,6.66,0,0,1,1.72-2.07,10.17,10.17,0,0,1,6.59-2,11.4,11.4,0,0,1,4.24.74,8.15,8.15,0,0,1,3.15,2.13,5.84,5.84,0,0,1,1.5,4.09Z" transform="translate(-634.41 -257.22)" style="fill:#94303a"/><path d="M770.47,568.32h0a.44.44,0,0,0-.44.44v8l-.2-.14-2.84-1.9c-2.48-1.67-4.86-3.14-7.14-4.39a20,20,0,0,0-3.35-1.53,8.83,8.83,0,0,0-2.74-.45,6.39,6.39,0,0,0-3.13.76,6.2,6.2,0,0,0-2.58,2.64,11.64,11.64,0,0,0-1.21,5.51,12,12,0,0,0,1.06,5.2,6.73,6.73,0,0,0,.33.6h0c0,.05.07.09.1.15.15.24.3.48.47.7l.06.09c.15.19.3.39.46.57,2.87,3.35,6.11,2.44,7.21,1.88a2.53,2.53,0,0,0-2.32-4.49c-.77.4-2.48,3.2-4.29,1.57a8.49,8.49,0,0,1-1.34-2.54,9.45,9.45,0,0,1-.53-3,3.92,3.92,0,0,1,.51-2.22,1.8,1.8,0,0,1,1.57-.74,6.91,6.91,0,0,1,2.72.93c1.22.62,3.06,1.7,5.54,3.24q3.38,2.11,6.13,4.05,2.47,1.74,5.72,4.23a.44.44,0,0,0,.71-.35V568.76A.44.44,0,0,0,770.47,568.32Z" transform="translate(-634.41 -257.22)" style="fill:#94303a"/><path d="M761.87,304.18a11.35,11.35,0,0,0-7.08,2.12,6.59,6.59,0,0,0-2.85,5.43,7.29,7.29,0,0,0,.67,3,7.64,7.64,0,0,0,1.87,2.51,10.46,10.46,0,0,0,7.27,2.43,12,12,0,0,0,4.85-.88,8.54,8.54,0,0,0,3.86-3.24,7.11,7.11,0,0,0,1.1-3.82,6.5,6.5,0,0,0-2.4-5.05A10.61,10.61,0,0,0,761.87,304.18ZM769,312l-7.32.05-8.87-.06c0-.26,0-.46,0-.58a4.89,4.89,0,0,1,.63-2.33,6.74,6.74,0,0,1,1.72-2.06,10.12,10.12,0,0,1,6.59-2,11.6,11.6,0,0,1,4.24.74,8.26,8.26,0,0,1,3.15,2.13,5.84,5.84,0,0,1,1.5,4.09Z" transform="translate(-634.41 -257.22)" style="fill:#94303a"/><path d="M748.21,405.73h0l.1.15c.15.25.3.48.47.71l.06.08c.15.2.3.39.46.57,2.87,3.35,6.11,2.45,7.21,1.88a2.53,2.53,0,0,0-2.32-4.49c-.77.4-2.48,3.21-4.29,1.57a8.43,8.43,0,0,1-1.34-2.53,9.56,9.56,0,0,1-.53-3.05,3.92,3.92,0,0,1,.51-2.22,1.8,1.8,0,0,1,1.57-.73,7,7,0,0,1,2.72.92c1.22.62,3.06,1.7,5.54,3.25q3.38,2.1,6.13,4,2.47,1.74,5.72,4.23a.44.44,0,0,0,.71-.35V391.44a.45.45,0,0,0-.44-.45h0a.45.45,0,0,0-.44.45v8l-.2-.13L767,397.38q-3.72-2.5-7.14-4.39a21.75,21.75,0,0,0-3.35-1.53,8.83,8.83,0,0,0-2.74-.45,6.29,6.29,0,0,0-3.13.77,6.12,6.12,0,0,0-2.58,2.63,11.69,11.69,0,0,0-1.21,5.52,12,12,0,0,0,1.06,5.2C748,405.34,748.1,405.53,748.21,405.73Z" transform="translate(-634.41 -257.22)" style="fill:#94303a"/></svg>