<svg id="圖層_1" data-name="圖層 1" xmlns="http://www.w3.org/2000/svg" viewBox="0 0 1085.59 136.33"><path d="M805.11,489.85a4.11,4.11,0,0,0,8.21-.23c-.06-2.27-1.05-11.08-10.86-12.81C805.92,479.93,805.05,487.58,805.11,489.85Z" transform="translate(-251.58 -430.06)" style="fill:#94303a"/><path d="M677.64,456.51h25.05v2.54c-.43,34.83-25.61,48-25.61,48s22.48-6.71,31-24.95c4.51-9.66,4.59-21.93,4.59-23v-2.46s0,0,0-.08h13.49c0,3.81,0,9.06-.11,13.16-.16,6.67-.42,13.09-1.24,17.2a12.58,12.58,0,0,1-12.25,9.91,10.32,10.32,0,0,1-6.23-2.1,13.79,13.79,0,0,0,12.77,8.6c7.5,0,13.94-6.29,15.13-13.66a139.22,139.22,0,0,0,1.53-16c.59-11.55.34-18.75.34-18.75a2,2,0,0,0-.33-1.11c-.71-1.05-2.69-3.27-7.22-4.24a2,2,0,0,0-2.41,1.95s0,.59,0,1.59H677.64a1.67,1.67,0,0,0-1.67,1.67v.07A1.68,1.68,0,0,0,677.64,456.51Z" transform="translate(-251.58 -430.06)" style="fill:#94303a"/><path d="M908.78,469.46a8.94,8.94,0,0,0-11.6,5c-1.83,4.57-5.78,20.83-15.17,24.62a28.66,28.66,0,0,0,14.84-.94v42.62a1.85,1.85,0,0,0,1.85,1.86h5.58a1.85,1.85,0,0,0,1.85-1.86V493.3a1.74,1.74,0,0,0-.17-.78,33.2,33.2,0,0,0,7.8-11.46A8.92,8.92,0,0,0,908.78,469.46Z" transform="translate(-251.58 -430.06)" style="fill:#94303a"/><path d="M972.28,502.3c9.66,7.41,9,27.52,9.64,33.41a10.73,10.73,0,0,0,21.34-2.32C1002.62,527.5,998.2,504.76,972.28,502.3Z" transform="translate(-251.58 -430.06)" style="fill:#94303a"/><path d="M1080.38,534.58c9.36-.37,35,23.37,38.27,26.54a8.26,8.26,0,0,0,11.48-11.87C1126.85,546.08,1103.63,531.14,1080.38,534.58Z" transform="translate(-251.58 -430.06)" style="fill:#94303a"/><path d="M1057.57,534c-3.52,2.91-32,24.6-41.36,23.51,22.92,5.23,48.37-7.88,51.89-10.78A8.26,8.26,0,0,0,1057.57,534Z" transform="translate(-251.58 -430.06)" style="fill:#94303a"/><path d="M951.92,476.29h27.44c.93,5,4,12.66-2.13,19.49,20.8-6,20.1-17.48,19.72-22.4a8.93,8.93,0,0,0-17.77-.28h-25.9a39.36,39.36,0,0,0,2.38-11.1,10.4,10.4,0,1,0-20.77-1.17c-.32,5.73,1.33,25.16-7.65,32.82C941.14,491.6,948.27,483.8,951.92,476.29Z" transform="translate(-251.58 -430.06)" style="fill:#94303a"/><path d="M949.81,513.63A7.58,7.58,0,0,0,935.72,508c-1.56,3.89-4.91,17.71-12.89,20.93C940.94,532.17,948.25,517.52,949.81,513.63Z" transform="translate(-251.58 -430.06)" style="fill:#94303a"/><path d="M968.2,492.49a2.17,2.17,0,0,0-.38-1.26c-.8-1.21-3.05-3.73-8.21-4.84a2.28,2.28,0,0,0-2.74,2.22v6.45h0V539A11.77,11.77,0,0,1,938,548.4a15.69,15.69,0,0,0,30.24-5.9v-.07h0V495.06h0Z" transform="translate(-251.58 -430.06)" style="fill:#94303a"/><path d="M770.71,470.57a6.88,6.88,0,0,0,13-4.42c-1.22-3.6-4.22-11.95-20.79-9.88C770,459.57,769.49,467,770.71,470.57Z" transform="translate(-251.58 -430.06)" style="fill:#94303a"/><path d="M776.93,483.55h6.17a1.67,1.67,0,0,0,.39-.05,1.75,1.75,0,0,0,.4.05h12.84a1.54,1.54,0,0,0,1.13-2.59l-6.58-5.25a2.89,2.89,0,0,0-3.93.29l-.05.05,0,0-4,4.35-.14,0H756a1.53,1.53,0,0,0-1.53,1.54V482a1.53,1.53,0,0,0,1.53,1.53h20.95Z" transform="translate(-251.58 -430.06)" style="fill:#94303a"/><path d="M790.91,494.64l-6.58-5.25a2.89,2.89,0,0,0-3.93.29l0,.05,0,0-4,4.33H763.44a1.54,1.54,0,0,0-1.54,1.54v.06a1.54,1.54,0,0,0,1.54,1.53h26.33A1.54,1.54,0,0,0,790.91,494.64Z" transform="translate(-251.58 -430.06)" style="fill:#94303a"/><path d="M780.4,502.16l0,.06,0,0-4,4.32H763.76a1.53,1.53,0,0,0-1.53,1.54v.06a1.52,1.52,0,0,0,1.53,1.53h26a1.54,1.54,0,0,0,1.14-2.59l-6.58-5.25A2.89,2.89,0,0,0,780.4,502.16Z" transform="translate(-251.58 -430.06)" style="fill:#94303a"/><path d="M785.23,514.7a1.83,1.83,0,0,0-2.2,1.78v3H769.1a1.77,1.77,0,0,0-.29-.86c-.65-1-2.46-3-6.59-3.88a1.83,1.83,0,0,0-2.2,1.78v30.94a1.82,1.82,0,0,0,1.82,1.82h5.45a1.82,1.82,0,0,0,1.82-1.82v-1.76H783v1.76a1.83,1.83,0,0,0,1.82,1.82h5.46a1.82,1.82,0,0,0,1.82-1.82V519.59a1.81,1.81,0,0,0-.3-1C791.18,517.61,789.37,515.59,785.23,514.7ZM783,542.53H769.11v-20H783Z" transform="translate(-251.58 -430.06)" style="fill:#94303a"/><path d="M633,464.35a7.54,7.54,0,0,0,14.28-4.84c-1.34-3.94-4.62-13.08-22.77-10.82C632.29,452.3,631.69,460.41,633,464.35Z" transform="translate(-251.58 -430.06)" style="fill:#94303a"/><path d="M655.55,470a3.17,3.17,0,0,0-4.3.33l-.06.05,0,0-4.4,4.75H616.9a1.68,1.68,0,0,0-1.68,1.68v.06a1.68,1.68,0,0,0,1.68,1.68h29.69a1.54,1.54,0,0,0,.43-.06,1.56,1.56,0,0,0,.44.06h14a1.69,1.69,0,0,0,1.24-2.84Z" transform="translate(-251.58 -430.06)" style="fill:#94303a"/><path d="M655.14,490.7l-7.2-5.75a3.18,3.18,0,0,0-4.31.33l0,.05,0,.05-4.39,4.74H625.06a1.68,1.68,0,0,0-1.68,1.67v.07a1.68,1.68,0,0,0,1.68,1.68H653.9A1.69,1.69,0,0,0,655.14,490.7Z" transform="translate(-251.58 -430.06)" style="fill:#94303a"/><path d="M643.63,498.94l0,.06,0,0-4.39,4.74H625.42a1.68,1.68,0,0,0-1.68,1.68v.07a1.68,1.68,0,0,0,1.68,1.68H653.9a1.69,1.69,0,0,0,1.24-2.84l-7.2-5.75A3.17,3.17,0,0,0,643.63,498.94Z" transform="translate(-251.58 -430.06)" style="fill:#94303a"/><path d="M648.93,512.67a2,2,0,0,0-2.41,2v3.24H631.27a2,2,0,0,0-.33-1c-.7-1-2.68-3.27-7.21-4.24a2,2,0,0,0-2.41,2v33.87a2,2,0,0,0,2,2h6a2,2,0,0,0,2-2v-1.93h15.24v1.93a2,2,0,0,0,2,2h6a2,2,0,0,0,2-2V518a2,2,0,0,0-.33-1.11C655.44,515.86,653.46,513.64,648.93,512.67Zm-2.41,30.47H631.28V521.28h15.24Z" transform="translate(-251.58 -430.06)" style="fill:#94303a"/><path d="M850.39,476.46a10.27,10.27,0,0,0,19.45-6.6c-1.82-5.37-6.29-17.82-31-14.73C849.4,460,848.57,471.08,850.39,476.46Z" transform="translate(-251.58 -430.06)" style="fill:#94303a"/><path d="M808.89,462.83a5.56,5.56,0,1,0,10.54-3.57c-1-2.91-3.41-9.65-16.8-8C808.35,453.94,807.91,459.92,808.89,462.83Z" transform="translate(-251.58 -430.06)" style="fill:#94303a"/><path d="M1132.82,517.86a4.23,4.23,0,0,0-5.74.44l-.07.07-.06.06-6.58,7.11a.64.64,0,0,0-.1.13h-5.69V470.15a2.39,2.39,0,0,0-.4-1.33c-.86-1.27-3.23-3.94-8.67-5.1a2.4,2.4,0,0,0-2.9,2.34v4h-23.82l1.39-21.3h56a2.25,2.25,0,0,0,1.65-3.79l-9.62-7.68a4.23,4.23,0,0,0-5.74.44l-.08.07-.05.06-6.58,7.11a.64.64,0,0,0-.1.13h-35.23l.55-8.55a2.36,2.36,0,0,0-.4-1.33c-.85-1.27-3.23-3.93-8.67-5.1a2.4,2.4,0,0,0-2.89,2.35l-.74,12.63h-50.84a1.79,1.79,0,0,0-1.79,1.79V447a1.79,1.79,0,0,0,1.79,1.79h50.63l-1.25,21.3h-16.14a2.27,2.27,0,0,0-.39-1.23c-.85-1.27-3.23-3.94-8.67-5.1a2.4,2.4,0,0,0-2.9,2.34v59.61h-25.92a1.8,1.8,0,0,0-1.8,1.79v.08a1.8,1.8,0,0,0,1.8,1.79h128a2.25,2.25,0,0,0,1.65-3.79Zm-30.21,7.81h-51.93V515.43h51.93Zm0-13.91h-51.93V501.52h51.93Zm0-13.9h-51.93V487.62h51.93Zm0-13.9h-51.93V473.72h51.93Z" transform="translate(-251.58 -430.06)" style="fill:#94303a"/><path d="M800.34,471.45h32.75a1.55,1.55,0,0,0,1.13-2.6l-6.58-5.25a2.9,2.9,0,0,0-3.93.3l-.05.05,0,0-4,4.33H800.34a1.54,1.54,0,0,0-1.54,1.53v.07A1.54,1.54,0,0,0,800.34,471.45Z" transform="translate(-251.58 -430.06)" style="fill:#94303a"/><path d="M831.16,554.13V519.42a1.82,1.82,0,0,0-.31-1c-.65-1-2.45-3-6.59-3.88a1.83,1.83,0,0,0-2.2,1.79v1.8H810.4c-.79-1-2.62-2.78-6.38-3.59a1.83,1.83,0,0,0-2.2,1.79V556.1a1.83,1.83,0,0,0,1.82,1.82h5.46a1.83,1.83,0,0,0,1.82-1.82v-5.57h11.14v3.6a1.81,1.81,0,0,0,1.82,1.82h5.46A1.82,1.82,0,0,0,831.16,554.13Zm-9.1-6.73H810.92V535.46h11.14Zm0-15.07H810.92V521.25h11.14Z" transform="translate(-251.58 -430.06)" style="fill:#94303a"/><path d="M558.68,526.17a10.79,10.79,0,0,0-3.87,14.76c3,5.14,15.81,5.78.16,20.54,23.83-7.05,21.47-26.28,18.47-31.42A10.79,10.79,0,0,0,558.68,526.17Z" transform="translate(-251.58 -430.06)" style="fill:#94303a"/><path d="M1268,505.38a3.77,3.77,0,0,0-5.12.39l-.06.06,0,.06-5.84,6.3h-12.84v-25.7h0v-2.76a2.41,2.41,0,0,0-.41-1.35,11.54,11.54,0,0,0-4.86-3.89c18.25-2.07,24.9-19.33,25.86-23.76a8.79,8.79,0,1,0-17.18-3.72c-.07.32-.15.71-.24,1.15h-39.61a1.68,1.68,0,0,0-1.67,1.68v.07a1.68,1.68,0,0,0,1.67,1.68h38.86c-1.51,6.6-4.5,17.15-10.18,22-.46-.13-.94-.26-1.46-.37a2.43,2.43,0,0,0-2.93,2.38v6.91h0v25.7h-29.15a1.68,1.68,0,0,0-1.68,1.68v.07a1.68,1.68,0,0,0,1.68,1.68h29.15v21.23a12.63,12.63,0,0,1-20.26,10.08,16.83,16.83,0,0,0,32.43-6.33v-.08h0v-24.9h31a2,2,0,0,0,1.48-3.39Z" transform="translate(-251.58 -430.06)" style="fill:#94303a"/><path d="M486.16,504.31a1.14,1.14,0,0,1,.06.25C486.22,504.36,486.21,504.28,486.16,504.31Z" transform="translate(-251.58 -430.06)" style="fill:#94303a"/><path d="M397.18,561h-.27C396.85,561,397,561,397.18,561Z" transform="translate(-251.58 -430.06)" style="fill:#94303a"/><path d="M824.59,557.49h.06C824.54,557.47,824.51,557.46,824.59,557.49Z" transform="translate(-251.58 -430.06)" style="fill:#94303a"/><path d="M824.65,557.5a8.23,8.23,0,0,0,2.91,0A23.22,23.22,0,0,1,824.65,557.5Z" transform="translate(-251.58 -430.06)" style="fill:#94303a"/><path d="M698.13,510.6c6.16,4.18,4.51,11.06,5.1,14.63a6.56,6.56,0,0,0,12.95-2.16C715.58,519.49,714,511.19,698.13,510.6Z" transform="translate(-251.58 -430.06)" style="fill:#94303a"/><path d="M665.35,540a7.32,7.32,0,0,0,12.21,8.09c2.23-3.37,9.83-17.23-2.7-29.81C676.7,526.33,667.59,536.59,665.35,540Z" transform="translate(-251.58 -430.06)" style="fill:#94303a"/><path d="M718,516c8.92,5.28,10.42,22.35,11.56,27.26a9.14,9.14,0,1,0,17.81-4.14C746.23,534.23,740.17,515.45,718,516Z" transform="translate(-251.58 -430.06)" style="fill:#94303a"/><path d="M720.39,539.52v6.93a6.13,6.13,0,0,1-6.13,6.13H702.74a6.12,6.12,0,0,1-5.94-6.12v-26a2,2,0,0,0-.34-1.11c-.71-1.05-2.68-3.27-7.22-4.24a2,2,0,0,0-2.4,1.95v31.33h0c0,.36,0,.72,0,1.08a10.68,10.68,0,0,0,10.65,10.65h19.13a10.64,10.64,0,0,0,3.77-20.59Z" transform="translate(-251.58 -430.06)" style="fill:#94303a"/><path d="M683.87,489.06c2.72-3,12.36-15.51,1.93-29.87.57,8.28-10,17-12.74,20a7.32,7.32,0,1,0,10.81,9.87Z" transform="translate(-251.58 -430.06)" style="fill:#94303a"/><path d="M505.91,543.71h0s-19.65-3.58-33.83-8.4c5-6.45,8-14.5,12.4-26.53a46.25,46.25,0,0,1,1.68-4.47,2,2,0,0,0-.43-.8c-.86-.94-6.34-3.62-11-3.93a2,2,0,0,0-2.1,2.28s-.13.32-.82,2.64H434c.86-2,1.68-4.1,2.47-6.27a186.76,186.76,0,0,0,8.21-30.45h64.12a2,2,0,0,0,1.48-3.39l-8.58-6.84a3.76,3.76,0,0,0-5.12.39l-.07.06,0,.06c-2.48,2.67-5.55,6-5.85,6.3H445.24c1-6,1.53-10.8,1.94-14,.19-1.41.58-5.91.58-5.91a1.91,1.91,0,0,0-.34-1.1c-.71-1.06-5.91-3.28-10.44-4.25a2,2,0,0,0-2.41,1.95l-3.05,21c-.11.76-.22,1.5-.33,2.25h-39.9a1.68,1.68,0,0,0-1.68,1.68v.07a1.68,1.68,0,0,0,1.68,1.68h39.35c-10.68,63.28-48.17,90.3-47.1,90.3,0,0,30.67-10,49.1-50.56a1.65,1.65,0,0,0,1.08.4h5.89c0,.05,0,.09,0,.14,1.58,8.34,5.35,17.95,14.55,28.42-21.54,21.43-53.67,24.35-57,24.53,3.11-.06,32.75-.93,51.88-9.64a93.2,93.2,0,0,0,13-7c13.26,11.33,39.28,17,39.28,17h0a9.13,9.13,0,1,0,4.57-17.63Zm-35.23-35.19a64,64,0,0,1-10.49,21.09,53,53,0,0,1-17.89-21.69h28.55C470.8,508.12,470.74,508.31,470.68,508.52Z" transform="translate(-251.58 -430.06)" style="fill:#94303a"/><path d="M308.4,531.92s0,0,0-.06h0v-77a2,2,0,0,0-.34-1.11c-.71-1.06-2.69-3.27-7.22-4.25a2,2,0,0,0-2.4,2v4.3H276.36v-1.11a2,2,0,0,0-.33-1.11c-.71-1.05-2.69-3.27-7.22-4.25a2,2,0,0,0-2.41,2v26.54c-.69,44.95,3.86,57.05-14.82,78.91,17-12.22,23.14-15.13,24.48-44.6h22.38v16.75a10.34,10.34,0,0,1-16.58,8.25,13.77,13.77,0,0,0,26.54-5.18Zm-10-43.39v20.15H276.19c.12-3.68.17-7.73.17-12.22,0-2.53,0-4.87,0-7,0,0,0-.05,0-.08v-3.75h22.08Zm0-6.31H276.36v-23h22.08Z" transform="translate(-251.58 -430.06)" style="fill:#94303a"/><path d="M357.44,444.12a2,2,0,0,0-2.41,2v4.3H329.14v-1.11a2,2,0,0,0-.34-1.11c-.71-1.06-2.69-3.27-7.22-4.25a2,2,0,0,0-2.4,2v31.92c-.7,44.95,1.7,66.74-17,88.6,17.09-12.28,24.84-22.51,26.56-54.29H355v27.51a10.35,10.35,0,0,1-16.58,8.26A13.78,13.78,0,0,0,365,542.68v-.06h0V449.48a2,2,0,0,0-.33-1.11C364,447.31,362,445.09,357.44,444.12ZM355,483.83v24.85H328.92c.14-3.78.22-7.84.22-12.22,0-2.53,0-4.87,0-7,0,0,0-.05,0-.08V483H355Zm0-4.3H329.14V453.8H355Z" transform="translate(-251.58 -430.06)" style="fill:#94303a"/><path d="M871.36,547.92c-4.39,2.84-9.94,1.28-13.55-2.2a31.8,31.8,0,0,1-2.35-3c4.74-5.1,8.44-9.28,12.26-17.67.54-1.18,1.81-4.87,1.81-4.87a1.79,1.79,0,0,0,.07-1c-.27-1.13-3.1-4.34-6.67-6.62a1.84,1.84,0,0,0-2.69.91l-2.89,7.78c-2.17,5-4.3,9.31-6.38,13-2.9-7.81-4-18-4.09-34.17h19.48a1.54,1.54,0,0,0,1.13-2.59l-6.58-5.25a2.89,2.89,0,0,0-3.93.29l-.05,0,0,0c-1.45,1.58-3.18,3.44-4,4.33h-6a1.85,1.85,0,0,0,.22-.85v-6.41a1.85,1.85,0,0,0-.32-1c-.67-1-2.53-3.09-6.81-4a1.88,1.88,0,0,0-2.27,1.84v9.62s0,.3,0,.85H823c7.77-4.44,10.7-14.17,10.78-16.45a5,5,0,0,0-4.82-5.2c-2.76-.1-4.4,2.17-5.19,4.82-1.61,5.36-2.26,12.78-4.67,16.83h-24a1.54,1.54,0,0,0-1.54,1.54v.06a1.53,1.53,0,0,0,1.54,1.53h42.61c.07,7.77.71,25.25,4.71,37.32a69.41,69.41,0,0,0,2.47,6.51c-7.58,10.36-13.82,13-17.3,13.59a39.67,39.67,0,0,0,20.37-8,18.38,18.38,0,0,0,7.34,6.24c4.54,2.31,9.78,3.37,14.3.45a12.59,12.59,0,0,0,5.52-12.93A9.4,9.4,0,0,1,871.36,547.92Z" transform="translate(-251.58 -430.06)" style="fill:#94303a"/><path d="M1193.22,532.93c-2.22-3.45-6.08-5.4-9.76-7.2,8.83-15.33,11.3-33.62,10.56-51.29a4.31,4.31,0,0,0-.48-2.16,4.19,4.19,0,0,0-1.65-1.31,34.18,34.18,0,0,0-6.47-2.6,3.62,3.62,0,0,0-1.69-.18c-1.87.39-2,3-1.69,4.86l-4.87,0a126.58,126.58,0,0,0,1.09-13.89,9.17,9.17,0,0,0-.53-4.07c-1-2.2-3.47-3.28-5.72-4.18-1.17-.47-3.45-1.21-4.43.06a4.61,4.61,0,0,0-.36,2.39c-.1,5.16-.64,10.32-1,14.64-.09,1.17-.47,3.89-.57,5.06l-8.75,0c-1.31,0-3.05.38-3.1,1.68s1.8,1.81,3.16,1.8l8.21,0a341.58,341.58,0,0,1-7.15,42.15,1.78,1.78,0,0,0,0,1.07,1.82,1.82,0,0,0,1,.88l13.35,6.92A103.84,103.84,0,0,1,1152.08,558a131.91,131.91,0,0,0,26-24.31c1.17,3,2.41,6,4.7,8.27s6,3.37,8.77,1.82c3.24-1.81,3.78-6.41,2.2-9.82A8.92,8.92,0,0,0,1193.22,532.93ZM1182,479.21a122.07,122.07,0,0,1-7,41.69h0l-.24.66-.56-.28-.18-.09c-1.45-.71-2.94-1.36-4.45-1.94-1.17-.45-2.36-.86-3.56-1.22.24.08,2-5.75,2.07-6.14q1.34-4.36,2.61-8.74c1.52-5.24,2.84-10.55,4-15.89q.35-1.58.66-3.15c.48-2.39.92-4.79,1.3-7.2l.06-.42H1182Z" transform="translate(-251.58 -430.06)" style="fill:#94303a"/><path d="M1322.45,523.65a14.72,14.72,0,1,0,14.72,14.72A14.73,14.73,0,0,0,1322.45,523.65Zm0,24.26a9.54,9.54,0,1,1,9.54-9.54A9.55,9.55,0,0,1,1322.45,547.91Z" transform="translate(-251.58 -430.06)" style="fill:#94303a"/></svg>