<svg id="圖層_1" data-name="圖層 1" xmlns="http://www.w3.org/2000/svg" viewBox="0 0 1284.93 379.97"><path d="M526.32,674H458.4a6,6,0,0,0-.93-2.33c-2.2-3.29-8.37-10.2-22.47-13.22a6.22,6.22,0,0,0-7.5,6.08V800.93a6.2,6.2,0,0,0,6.2,6.2h18.61a6.19,6.19,0,0,0,6.2-6.2v-4h72.32a6.79,6.79,0,0,0-.09,1v44.42H372.85a5.23,5.23,0,0,0-5.22,5.23v.21a5.22,5.22,0,0,0,5.22,5.22H530.74v37.72a6.21,6.21,0,0,0,6.2,6.2h18.61a6.2,6.2,0,0,0,6.2-6.2V853.05H687.19a5.11,5.11,0,0,0,1.35-.18,5.3,5.3,0,0,0,1.35.18h43.75a5.26,5.26,0,0,0,3.87-8.84l-22.44-17.9a9.86,9.86,0,0,0-13.4,1l-.16.18-.13.13-13.69,14.79a4.19,4.19,0,0,0-.5,0H561.75V797h70v4a6.2,6.2,0,0,0,6.2,6.2H656.6a6.2,6.2,0,0,0,6.2-6.2V675.16a6.17,6.17,0,0,0-1-3.45c-2.2-3.29-8.36-10.2-22.47-13.22a6.22,6.22,0,0,0-7.5,6.08V674H526.32Zm-1.17,63.59H631.78v48.66H458.51V737.63Zm0-52.93H631.78V727H458.51V684.7Z" transform="translate(546.01 -517)" style="fill:#94303a"/><path d="M587.36,523.22v56H498V533.81a6.16,6.16,0,0,0-1-3.45c-2.21-3.29-8.37-10.2-22.48-13.22a6.21,6.21,0,0,0-7.49,6.08v56H362.8a5.23,5.23,0,0,0-5.23,5.23v.21a5.22,5.22,0,0,0,5.23,5.22H467v46.43a6.2,6.2,0,0,0,6.2,6.2h18.61a6.2,6.2,0,0,0,6.2-6.2V589.89h89.32v46.43a6.21,6.21,0,0,0,6.2,6.2h18.62a6.21,6.21,0,0,0,6.2-6.2V589.89h58.75a5,5,0,0,0,1.35-.18,5.45,5.45,0,0,0,1.36.18h43.75a5.26,5.26,0,0,0,3.87-8.84L705,563.15a9.86,9.86,0,0,0-13.4,1l-.17.18-.12.13c-5,5.38-10.88,11.74-13.69,14.79l-.51,0H618.38V533.81a6.24,6.24,0,0,0-1-3.45c-2.21-3.29-8.37-10.2-22.48-13.22A6.22,6.22,0,0,0,587.36,523.22Z" transform="translate(546.01 -517)" style="fill:#94303a"/><path d="M-440.95,668.75a4,4,0,0,0-4-4h-54.93a4,4,0,0,0-4,4v.16a4,4,0,0,0,4,4h54.93a4,4,0,0,0,4-4Z" transform="translate(546.01 -517)" style="fill:#94303a"/><path d="M-438.41,702.19V702a4,4,0,0,0-4-4h-60a4,4,0,0,0-4,4v.17a4,4,0,0,0,4,4h60A4,4,0,0,0-438.41,702.19Z" transform="translate(546.01 -517)" style="fill:#94303a"/><path d="M-319.07,668.75a4,4,0,0,0-4-4H-378a4,4,0,0,0-4,4v.16a4,4,0,0,0,4,4H-323a4,4,0,0,0,4-4Z" transform="translate(546.01 -517)" style="fill:#94303a"/><path d="M-316.52,702a4,4,0,0,0-4-4h-60a4,4,0,0,0-4,4v.17a4,4,0,0,0,4,4h60a4,4,0,0,0,4-4Z" transform="translate(546.01 -517)" style="fill:#94303a"/><path d="M-399.78,731.5V640.65h90.43c1.4,9,2.72,20.39-7.17,30.06,39.09-8.48,39.23-29.72,39.13-38.83a16.49,16.49,0,0,0-16.67-16.31,16.5,16.5,0,0,0-16.31,16.68c0,.1,0,.2,0,.3h-89.42V598.92h71a2.85,2.85,0,0,0,.29,0h34.21a4.76,4.76,0,0,0,3.5-8L-311,574.72a8.91,8.91,0,0,0-12.11.91l-.15.16-.11.12-13.81,14.91H-516a4,4,0,0,0-4,4V595a4,4,0,0,0,4,4h92.65v33.63h-89.83a86,86,0,0,0-9.36-13.84c2.28,18.57-13.46,26.83-19.23,33.87a16.49,16.49,0,0,0,2.32,23.21,16.48,16.48,0,0,0,23.2-2.32c4.23-5.16,12.41-15.48,6.59-32.82h86.31V731.5a4.7,4.7,0,0,0,4.7,4.71h14.13A4.71,4.71,0,0,0-399.78,731.5Z" transform="translate(546.01 -517)" style="fill:#94303a"/><path d="M-313.38,760.17h19.11a4.76,4.76,0,0,0,3.5-8L-311,736a8.91,8.91,0,0,0-12.11.91l-.15.16-.11.12-13.81,14.91H-516a4,4,0,0,0-4,4v.16a4,4,0,0,0,4,4h187.2c.1,0,.19,0,.29,0Z" transform="translate(546.01 -517)" style="fill:#94303a"/><path d="M-518.88,836.84c.07-.08.13-.17.21-.25C-519,836.85-519.07,836.91-518.88,836.84Z" transform="translate(546.01 -517)" style="fill:#94303a"/><path d="M-300.67,842.71c-4.37-11.09-25-52.86-76.55-43.89,11.69,4.78,19.83,17.56,25.59,30.33-39.53-2.78-70.62-2.76-104.15-.49,8.74-4.53,18.1-9.77,28-16.18,7.18-4.63,9.33-9.08,9-9.89-.82-2.08-8.39-8.7-16.13-13.43H-311.6a2.85,2.85,0,0,0,.29,0h34.21a4.76,4.76,0,0,0,3.5-8L-293.88,765a8.94,8.94,0,0,0-12.11.91l-.15.17-.11.12-13.81,14.91H-542a4,4,0,0,0-4,4v.17a4,4,0,0,0,4,4h95.23c-1.59,3.44-.58,2.24-9.21,12.16-10.44,12-22.19,21.74-33.17,30.22-5.45.56-11,1.15-16.79,1.8a44.18,44.18,0,0,0-12.89,3.5,4.68,4.68,0,0,0-1,2.2c-.48,3,1.17,13,7.41,22,1.7,2.46,1.17,4.21,7.49,2.33,3.93-1.17,2.06-.59,16.51-3.88,69.07-15.69,115.86-17.89,142-17.5,2.52,7,4.34,13.12,5.68,16.52a21.58,21.58,0,0,0,28,12.18A21.59,21.59,0,0,0-300.67,842.71Z" transform="translate(546.01 -517)" style="fill:#94303a"/><path d="M-145,657a20.55,20.55,0,0,0-28.58-5.34c-9.37,6.41-37.79,32.44-60.61,27.64,15,14.51,30.56,19.09,44.2,19v30.36h-52.4a3.61,3.61,0,0,0-3.61,3.61v.14a3.61,3.61,0,0,0,3.61,3.61h43.95c-2,5.87-14.63,43.12-24.31,64.14C-233.68,824-259,855.67-259,855.67s33.92-25.25,53.45-50.47c5.61-7.26,11-17.54,15.62-28.05v73.54a4.27,4.27,0,0,0,4.27,4.28h12.84a4.27,4.27,0,0,0,4.28-4.28V758.83c11,8.64,10.28,22.9,12.8,30.32a16.19,16.19,0,0,0,20.54,10.13,16.19,16.19,0,0,0,10.13-20.54c-2.73-8.06-9.27-26.2-43.47-23.75V736h15.85a3.92,3.92,0,0,0,.91-.13,3.69,3.69,0,0,0,1,.13h30.18a3.63,3.63,0,0,0,2.67-6.1l-15.48-12.35a6.81,6.81,0,0,0-9.24.7l-.11.12-.09.09-9.46,10.22c-.11,0-.22,0-.33,0h-15.85V694.56a77.44,77.44,0,0,0,18.25-9A20.55,20.55,0,0,0-145,657Z" transform="translate(546.01 -517)" style="fill:#94303a"/><path d="M-85.42,712a16.19,16.19,0,0,0,20.54,10.13,16.19,16.19,0,0,0,10.13-20.54c-2.87-8.47-9.92-28.1-48.9-23.23C-87,686.14-88.3,703.55-85.42,712Z" transform="translate(546.01 -517)" style="fill:#94303a"/><path d="M-85.42,781.39a16.2,16.2,0,0,0,20.54,10.14A16.19,16.19,0,0,0-54.75,771c-2.87-8.47-9.92-28.1-48.9-23.23C-87,755.51-88.3,772.92-85.42,781.39Z" transform="translate(546.01 -517)" style="fill:#94303a"/><path d="M-15.31,873.08V819.82h7.43a3.84,3.84,0,0,0,.91-.13,3.71,3.71,0,0,0,1,.13H24.17a3.63,3.63,0,0,0,2.66-6.1L11.36,801.37a6.82,6.82,0,0,0-9.25.69l-.11.13-.09.09c-3.44,3.72-7.52,8.13-9.46,10.21-.11,0-.21,0-.33,0h-7.43V629.22a4.29,4.29,0,0,0-.72-2.38c-1.52-2.27-5.77-7-15.5-9.12a4.29,4.29,0,0,0-5.17,4.19V812.46H-139.56a3.6,3.6,0,0,0-3.6,3.6v.15a3.61,3.61,0,0,0,3.6,3.61H-36.7v53.26a4.27,4.27,0,0,0,4.27,4.27h12.84A4.28,4.28,0,0,0-15.31,873.08Z" transform="translate(546.01 -517)" style="fill:#94303a"/><path d="M210.59,620.05c18.62,8.67,17.16,28.12,20.37,37.59A18.1,18.1,0,0,0,265.24,646C262,636.54,254.16,614.6,210.59,620.05Z" transform="translate(546.01 -517)" style="fill:#94303a"/><path d="M309.06,767.45a19,19,0,0,0,25.09,9.44c9.54-4.33,12.52-15.09,9.44-25.1-5.95-19.32-37.87-54.35-82.71-44.17C281.18,714.73,304.74,757.92,309.06,767.45Z" transform="translate(546.01 -517)" style="fill:#94303a"/><path d="M122.85,646c-1.71-2.53-6.46-7.86-17.33-10.19a4.79,4.79,0,0,0-5.78,4.68v61.09H48.93a4,4,0,0,0-4,4v.17a4,4,0,0,0,4,4H90.3C88.09,716.32,74,758,63.13,781.44c-12.26,26.61-40.58,62-40.58,62s37.92-28.21,59.73-56.41c6.28-8.11,12.26-19.6,17.46-31.34V868.93a4.78,4.78,0,0,0,4.78,4.78h14.35a4.78,4.78,0,0,0,4.78-4.78V735.26c12.25,9.66,11.49,25.6,14.3,33.89a18.1,18.1,0,1,0,34.28-11.63c-3.06-9-10.34-29.31-48.58-26.56v-21.2h17.71a4.33,4.33,0,0,0,1-.14,4.05,4.05,0,0,0,1.06.14h33.73a4.06,4.06,0,0,0,3-6.81l-17.29-13.8a7.61,7.61,0,0,0-10.33.77l-.13.14-.1.11-10.57,11.41c-.12,0-.24,0-.37,0H123.65V648.62A4.75,4.75,0,0,0,122.85,646Z" transform="translate(546.01 -517)" style="fill:#94303a"/><path d="M263,672.66h-82.6a4,4,0,0,0-4,4v.17a4,4,0,0,0,4,4H336.15a4.06,4.06,0,0,0,3-6.82l-17.29-13.8a7.6,7.6,0,0,0-10.33.78l-.13.13-.09.11-10.54,11.38H263Z" transform="translate(546.01 -517)" style="fill:#94303a"/><path d="M212.21,874.36c14.23-6.38,25.35-12.17,34.3-18.12,26.76,24.32,80.42,34,80.42,34h0A19.52,19.52,0,1,0,338.12,853h0l-.17,0a18,18,0,0,0-2.46-.39c-8.79-1.46-41.91-6.87-66.33-17.33,10.36-14.15,16.29-32.18,24.62-59.88,2.69-8.91,2.92-12.13,2.24-12.79-2.18-2.14-15.71-7.76-26.83-7.83-3,0-4.15,1.41-4.9,4.35-1,4-.56,2.91-3.6,17.65a127.54,127.54,0,0,1-17.4,42.56c-18.27-15.41-28-34-32.54-45,14.73-16.64,22.28-34.1,22-50.06-.19-10.75-8.13-19.72-18.88-20.05s-18.49,8.24-20,18.88c-7.12,48.52-19.82,71.4-53,98.4,27.78-11.69,49.63-26.35,65-42a230.08,230.08,0,0,0,25,56.58c-34,40.08-82.2,57.41-80.36,57C150.55,893.1,171.59,892.6,212.21,874.36Z" transform="translate(546.01 -517)" style="fill:#94303a"/></svg>