<svg width="143" height="143" viewBox="0 0 143 143" fill="none" xmlns="http://www.w3.org/2000/svg">
<path d="M71.5 143C62.1105 143 52.8129 141.151 44.1381 137.557C35.4634 133.964 27.5813 128.698 20.9419 122.058C7.53301 108.649 0 90.463 0 71.5C0 52.537 7.53301 34.3507 20.9419 20.9419C34.3507 7.53301 52.537 0 71.5 0C110.825 0 143 28.6 143 64.35C143 75.7278 138.48 86.6396 130.435 94.6849C122.39 102.73 111.478 107.25 100.1 107.25H87.23C85.085 107.25 83.655 108.68 83.655 110.825C83.655 111.54 84.37 112.255 84.37 112.97C87.23 116.545 88.66 120.835 88.66 125.125C89.375 135.135 81.51 143 71.5 143V143ZM71.5 14.3C56.3296 14.3 41.7806 20.3264 31.0535 31.0535C20.3264 41.7806 14.3 56.3296 14.3 71.5C14.3 86.6704 20.3264 101.219 31.0535 111.947C41.7806 122.674 56.3296 128.7 71.5 128.7C73.645 128.7 75.075 127.27 75.075 125.125C75.075 123.695 74.36 122.98 74.36 122.265C71.5 118.69 70.07 115.115 70.07 110.825C70.07 100.815 77.935 92.95 87.945 92.95H100.1C107.685 92.95 114.96 89.9368 120.323 84.5733C125.687 79.2097 128.7 71.9352 128.7 64.35C128.7 36.465 102.96 14.3 71.5 14.3V14.3ZM32.175 57.2C37.895 57.2 42.9 62.205 42.9 67.925C42.9 73.645 37.895 78.65 32.175 78.65C26.455 78.65 21.45 73.645 21.45 67.925C21.45 62.205 26.455 57.2 32.175 57.2ZM53.625 28.6C59.345 28.6 64.35 33.605 64.35 39.325C64.35 45.045 59.345 50.05 53.625 50.05C47.905 50.05 42.9 45.045 42.9 39.325C42.9 33.605 47.905 28.6 53.625 28.6ZM89.375 28.6C95.095 28.6 100.1 33.605 100.1 39.325C100.1 45.045 95.095 50.05 89.375 50.05C83.655 50.05 78.65 45.045 78.65 39.325C78.65 33.605 83.655 28.6 89.375 28.6ZM110.825 57.2C116.545 57.2 121.55 62.205 121.55 67.925C121.55 73.645 116.545 78.65 110.825 78.65C105.105 78.65 100.1 73.645 100.1 67.925C100.1 62.205 105.105 57.2 110.825 57.2Z" fill="#513A2D"/>
</svg>
