<svg width="119" height="119" viewBox="0 0 119 119" fill="none" xmlns="http://www.w3.org/2000/svg">
<path d="M87.5192 56.2567L97.8973 45.8766L73.109 21.0834L62.7309 31.4635L35.3646 4.15793C30.2087 -0.999058 21.8137 -0.999058 16.6577 4.15793L4.09833 16.7198C-1.05763 21.8768 -1.05763 30.2734 4.09833 35.4304L31.3985 62.736L0.991533 93.2151C0.330511 93.8762 0 94.6696 0 95.5952V115.694C0 117.545 1.45425 119 3.30511 119H23.4002C24.2595 119 25.1188 118.669 25.7137 118.008L56.2529 87.4631L83.5531 114.769C92.2786 123.496 101.797 115.231 102.26 114.769L114.819 102.207C119.975 97.0498 119.975 88.6531 114.819 83.4961L87.5192 56.2567V56.2567ZM40.8511 53.3476L13.4848 26.0421L25.9781 13.4802L34.3731 21.8768L31.2663 25.1164C30.0303 26.3526 29.336 28.0293 29.336 29.7776C29.336 31.5258 30.0303 33.2025 31.2663 34.4387C32.5023 35.6749 34.1786 36.3694 35.9265 36.3694C37.6744 36.3694 39.3508 35.6749 40.5867 34.4387L43.7596 31.2652L53.3444 40.8519L40.8511 53.3476V53.3476ZM92.9396 105.512L65.6394 78.2069L78.1988 65.645L87.7836 75.2317L84.6107 78.4053C83.9988 79.0174 83.5133 79.7441 83.1821 80.5438C82.8509 81.3436 82.6804 82.2007 82.6804 83.0664C82.6804 83.932 82.8509 84.7892 83.1821 85.589C83.5133 86.3887 83.9988 87.1154 84.6107 87.7275C85.2227 88.3396 85.9493 88.8252 86.7489 89.1564C87.5485 89.4877 88.4055 89.6582 89.2709 89.6582C90.1364 89.6582 90.9934 89.4877 91.793 89.1564C92.5926 88.8252 93.3191 88.3396 93.9311 87.7275L97.104 84.554L105.499 92.9506L92.9396 105.512V105.512ZM117.067 26.7032C117.68 26.0915 118.166 25.365 118.498 24.5652C118.829 23.7654 119 22.908 119 22.0421C119 21.1762 118.829 20.3188 118.498 19.519C118.166 18.7191 117.68 17.9926 117.067 17.381L101.599 1.91001C98.4922 -1.1974 94.1955 -0.00733122 92.2786 1.91001L80.1819 14.0091L104.97 38.8023L117.067 26.7032V26.7032Z" fill="#513A2D"/>
</svg>
