<svg width="164" height="148" viewBox="0 0 164 148" fill="none" xmlns="http://www.w3.org/2000/svg">
<path d="M147.6 16.4444H121.606L106.6 0H57.4L42.394 16.4444H16.4C12.0504 16.4444 7.87904 18.177 4.80345 21.2609C1.72785 24.3448 0 28.5276 0 32.8889V131.556C0 135.917 1.72785 140.1 4.80345 143.184C7.87904 146.267 12.0504 148 16.4 148H147.6C151.95 148 156.121 146.267 159.197 143.184C162.272 140.1 164 135.917 164 131.556V32.8889C164 28.5276 162.272 24.3448 159.197 21.2609C156.121 18.177 151.95 16.4444 147.6 16.4444V16.4444ZM147.6 131.556H16.4V32.8889H49.61L64.616 16.4444H99.384L114.39 32.8889H147.6V131.556ZM82 41.1111C71.1261 41.1111 60.6976 45.4424 53.0086 53.1523C45.3196 60.8621 41 71.3189 41 82.2222C41 93.1256 45.3196 103.582 53.0086 111.292C60.6976 119.002 71.1261 123.333 82 123.333C92.8739 123.333 103.302 119.002 110.991 111.292C118.68 103.582 123 93.1256 123 82.2222C123 71.3189 118.68 60.8621 110.991 53.1523C103.302 45.4424 92.8739 41.1111 82 41.1111V41.1111ZM82 106.889C75.4757 106.889 69.2186 104.29 64.6052 99.6642C59.9918 95.0383 57.4 88.7642 57.4 82.2222C57.4 75.6802 59.9918 69.4062 64.6052 64.7803C69.2186 60.1544 75.4757 57.5556 82 57.5556C88.5243 57.5556 94.7814 60.1544 99.3948 64.7803C104.008 69.4062 106.6 75.6802 106.6 82.2222C106.6 88.7642 104.008 95.0383 99.3948 99.6642C94.7814 104.29 88.5243 106.889 82 106.889Z" fill="#513A2D"/>
</svg>
