<svg width="142" height="122" viewBox="0 0 142 122" fill="none" xmlns="http://www.w3.org/2000/svg">
<path d="M13.5 97.15H53V107.45H42.25H41.5V108.2V120V120.75H42.25H88.25H89V120V108.2V107.45H88.25H77.5V97.15H88.25H89V96.4V84.6V83.85H88.25H14.25V14.55H116.25V43.3V44.05H117H128.5H129.25V43.3V13.8C129.25 10.4777 127.964 7.28766 125.669 4.93268C123.373 2.57705 120.255 1.25 117 1.25H13.5C6.6852 1.25 1.25 6.85511 1.25 13.8V84.6C1.25 87.9223 2.53605 91.1123 4.83116 93.4673C7.1269 95.823 10.2448 97.15 13.5 97.15ZM134.25 54.35H105.5C103.77 54.35 102.114 55.0554 100.897 56.3046C99.6802 57.5531 99 59.2425 99 61V114.1C99 115.858 99.6802 117.547 100.897 118.795C102.114 120.045 103.77 120.75 105.5 120.75H134.25C135.98 120.75 137.636 120.045 138.853 118.795C140.07 117.547 140.75 115.858 140.75 114.1V61C140.75 59.2425 140.07 57.5531 138.853 56.3046C137.636 55.0554 135.98 54.35 134.25 54.35ZM133.5 107.45H106.25V67.65H133.5V107.45Z" fill="#513A2D" stroke="#513A2D" stroke-width="1.5"/>
</svg>
