<svg width="139" height="139" viewBox="0 0 139 139" fill="none" xmlns="http://www.w3.org/2000/svg">
<path fill-rule="evenodd" clip-rule="evenodd" d="M46.3336 69.5H28.8196C27.1197 72.4444 24.4958 74.7455 21.3547 76.0466C18.2137 77.3477 14.7311 77.5759 11.4471 76.696C8.1631 75.816 5.26123 73.877 3.19153 71.1798C1.12184 68.4825 0 65.1776 0 61.7778C0 58.3779 1.12184 55.0731 3.19153 52.3758C5.26123 49.6785 8.1631 47.7395 11.4471 46.8596C14.7311 45.9796 18.2137 46.2079 21.3547 47.509C24.4958 48.81 27.1197 51.1112 28.8196 54.0556H46.3336V15.4444C46.3336 11.3483 47.9608 7.41997 50.8572 4.52357C53.7535 1.62718 57.6819 0 61.778 0H123.556C127.652 0 131.58 1.62718 134.476 4.52357C137.373 7.41997 139 11.3483 139 15.4444V123.556C139 127.652 137.373 131.58 134.476 134.476C131.58 137.373 127.652 139 123.556 139H61.778C57.6819 139 53.7535 137.373 50.8572 134.476C47.9608 131.58 46.3336 127.652 46.3336 123.556V69.5ZM61.778 69.5V123.556H123.556V15.4444H61.778V54.0556H79.2919C80.9919 51.1112 83.6158 48.81 86.7569 47.509C89.8979 46.2079 93.3805 45.9796 96.6645 46.8596C99.9485 47.7395 102.85 49.6785 104.92 52.3758C106.99 55.0731 108.112 58.3779 108.112 61.7778C108.112 65.1776 106.99 68.4825 104.92 71.1798C102.85 73.877 99.9485 75.816 96.6645 76.696C93.3805 77.5759 89.8979 77.3477 86.7569 76.0466C83.6158 74.7455 80.9919 72.4444 79.2919 69.5H61.778Z" fill="#513A2D"/>
</svg>
