<svg width="159" height="112" viewBox="0 0 159 112" fill="none" xmlns="http://www.w3.org/2000/svg">
<path d="M45.2196 93.0336C43.286 93.0364 41.4189 92.3278 39.974 91.0428L0 55.5086L42.1939 17.9994C43.7666 16.6539 45.8045 15.9794 47.8694 16.1209C49.9343 16.2624 51.8611 17.2086 53.2356 18.7559C54.6102 20.3033 55.3225 22.3283 55.2196 24.3954C55.1166 26.4626 54.2066 28.4067 52.6851 29.8099L23.779 55.5086L50.4652 79.2244C51.6641 80.2882 52.5111 81.6915 52.8937 83.248C53.2762 84.8045 53.1763 86.4405 52.6071 87.9389C52.0379 89.4373 51.0265 90.7271 49.707 91.637C48.3875 92.547 46.8224 93.034 45.2196 93.0336ZM115.885 93.0178L158.079 55.5086L118.105 19.9744C116.539 18.5831 114.484 17.8711 112.393 17.9948C110.302 18.1185 108.345 19.0678 106.954 20.634C105.563 22.2002 104.851 24.2549 104.975 26.3461C105.098 28.4372 106.048 30.3936 107.614 31.7849L134.3 55.5086L105.394 81.1994C103.827 82.5906 102.876 84.5474 102.752 86.6393C102.627 88.7313 103.339 90.7869 104.73 92.3542C106.122 93.9214 108.078 94.8717 110.17 94.9962C112.262 95.1206 114.318 94.409 115.885 93.0178ZM78.9289 104.212L94.7289 9.41206C94.9309 8.376 94.9233 7.30996 94.7064 6.2769C94.4895 5.24384 94.0678 4.26472 93.4662 3.39738C92.8646 2.53003 92.0952 1.79206 91.2036 1.22704C90.312 0.662015 89.3162 0.281409 88.275 0.107702C87.2338 -0.0660048 86.1684 -0.0292911 85.1416 0.215676C84.1148 0.460643 83.1476 0.908896 82.297 1.53395C81.4464 2.15901 80.7296 2.9482 80.1891 3.8549C79.6487 4.7616 79.2953 5.76742 79.1501 6.81296L63.3501 101.613C63.1481 102.649 63.1557 103.715 63.3726 104.748C63.5895 105.781 64.0112 106.76 64.6128 107.628C65.2144 108.495 65.9838 109.233 66.8754 109.798C67.767 110.363 68.7628 110.744 69.804 110.917C70.8452 111.091 71.9106 111.054 72.9374 110.809C73.9641 110.564 74.9314 110.116 75.782 109.491C76.6326 108.866 77.3494 108.077 77.8898 107.17C78.4303 106.263 78.7837 105.258 78.9289 104.212Z" fill="#513A2D"/>
<path d="M45.2196 93.0336C43.286 93.0364 41.4189 92.3278 39.974 91.0428L0 55.5086L42.1939 17.9994C43.7666 16.6539 45.8045 15.9794 47.8694 16.1209C49.9343 16.2624 51.8611 17.2086 53.2356 18.7559C54.6102 20.3033 55.3225 22.3283 55.2196 24.3954C55.1166 26.4626 54.2066 28.4067 52.6851 29.8099L23.779 55.5086L50.4652 79.2244C51.6641 80.2882 52.5111 81.6915 52.8937 83.248C53.2762 84.8045 53.1763 86.4405 52.6071 87.9389C52.0379 89.4373 51.0265 90.7271 49.707 91.637C48.3875 92.547 46.8224 93.034 45.2196 93.0336ZM115.885 93.0178L158.079 55.5086L118.105 19.9744C116.539 18.5831 114.484 17.8711 112.393 17.9948C110.302 18.1185 108.345 19.0678 106.954 20.634C105.563 22.2002 104.851 24.2549 104.975 26.3461C105.098 28.4372 106.048 30.3936 107.614 31.7849L134.3 55.5086L105.394 81.1994C103.827 82.5906 102.876 84.5474 102.752 86.6393C102.627 88.7313 103.339 90.7869 104.73 92.3542C106.122 93.9214 108.078 94.8717 110.17 94.9962C112.262 95.1206 114.318 94.409 115.885 93.0178ZM78.9289 104.212L94.7289 9.41206C94.9309 8.376 94.9233 7.30996 94.7064 6.2769C94.4895 5.24384 94.0678 4.26472 93.4662 3.39738C92.8646 2.53003 92.0952 1.79206 91.2036 1.22704C90.312 0.662015 89.3162 0.281409 88.275 0.107702C87.2338 -0.0660048 86.1684 -0.0292911 85.1416 0.215676C84.1148 0.460643 83.1476 0.908896 82.297 1.53395C81.4464 2.15901 80.7296 2.9482 80.1891 3.8549C79.6487 4.7616 79.2953 5.76742 79.1501 6.81296L63.3501 101.613C63.1481 102.649 63.1557 103.715 63.3726 104.748C63.5895 105.781 64.0112 106.76 64.6128 107.628C65.2144 108.495 65.9838 109.233 66.8754 109.798C67.767 110.363 68.7628 110.744 69.804 110.917C70.8452 111.091 71.9106 111.054 72.9374 110.809C73.9641 110.564 74.9314 110.116 75.782 109.491C76.6326 108.866 77.3494 108.077 77.8898 107.17C78.4303 106.263 78.7837 105.258 78.9289 104.212Z" stroke="black"/>
</svg>
