<svg width="19" height="28" viewBox="0 0 19 28" fill="none" xmlns="http://www.w3.org/2000/svg">
<path d="M16.2857 0.142883H10.8571V5.65153C12.7997 5.86504 14.6619 6.5443 16.2857 7.6316V0.142883ZM8.14286 0.142883H2.71429V7.6316C4.33808 6.5443 6.20035 5.86504 8.14286 5.65153V0.142883ZM9.5 27.2857C12.0196 27.2857 14.4359 26.2848 16.2175 24.5033C17.9991 22.7217 19 20.3053 19 17.7857C19 15.2662 17.9991 12.8498 16.2175 11.0682C14.4359 9.28663 12.0196 8.28574 9.5 8.28574C6.98044 8.28574 4.56408 9.28663 2.78249 11.0682C1.00089 12.8498 0 15.2662 0 17.7857C0 20.3053 1.00089 22.7217 2.78249 24.5033C4.56408 26.2848 6.98044 27.2857 9.5 27.2857V27.2857ZM7.8375 15.7242L9.5 12.3572L11.1625 15.7242L14.8784 16.263L12.1899 18.885L12.825 22.586L9.5 20.8393L6.17636 22.586L6.8115 18.885L4.123 16.263L7.8375 15.7242V15.7242Z" fill="white"/>
</svg>
