<svg width="27" height="22" viewBox="0 0 27 22" fill="none" xmlns="http://www.w3.org/2000/svg">
<path d="M25.3125 4.59445V3.41154C23.2979 1.38179 20.5999 0.1773 17.7458 0.0335143C16.9551 -0.0604818 16.1535 0.0439887 15.4132 0.337513C14.6729 0.631037 14.0172 1.10439 13.5051 1.71492C12.9768 1.12359 12.3182 0.663723 11.5815 0.371848C10.8448 0.0799735 10.0502 -0.0358709 9.261 0.0335143C6.40447 0.175643 3.70375 1.38025 1.6875 3.41154V4.59445L0 5.1014V22L11.3062 19.6342L11.8125 20.3101H15.1875L15.6938 19.6342L27 22V5.1014L25.3125 4.59445ZM9.2475 15.7644C7.17519 15.8201 5.14181 16.341 3.29737 17.2887L3.375 4.12129C4.91924 2.66127 6.93822 1.8091 9.06019 1.72168C10.355 1.80219 11.6084 2.20972 12.7035 2.90628L12.6714 16.2038C11.5547 15.8774 10.3934 15.7297 9.23062 15.7661L9.2475 15.7644ZM23.625 17.2515C21.8089 16.3263 19.8096 15.8183 17.7727 15.7644L17.5011 15.761C16.3873 15.761 15.3124 15.9233 14.2965 16.2241L14.3758 2.87079C15.4412 2.1997 16.6569 1.80532 17.9128 1.72337C20.0454 1.80424 22.0759 2.6582 23.6267 4.12635L23.6216 17.2532L23.625 17.2515Z" fill="white"/>
</svg>
