<svg width="112" height="37" viewBox="0 0 112 37" fill="none" xmlns="http://www.w3.org/2000/svg">
<path d="M30.2284 0.0226435C32.3902 -0.0896366 34.2457 0.561588 35.7947 2.01281C37.487 3.59876 37.7876 6.57699 36.4533 8.47733C36.2557 8.75803 36.0295 9.06961 35.663 9.00786C35.328 8.95172 35.4053 8.55593 35.308 8.30891C35.0274 7.58751 35.0904 6.79875 34.5549 6.09699C33.799 5.10893 32.7825 4.657 31.6744 4.42964C29.5698 3.99736 27.5139 4.27525 25.4838 5.00507C24.1209 5.49349 22.7178 5.95384 21.521 6.70331C19.8745 7.73348 18.0849 8.56154 16.616 9.86961C15.3619 10.9868 13.9245 11.9215 12.7562 13.1117C11.001 14.8998 9.23146 16.6962 7.88855 18.8352C6.71458 20.7046 5.79831 22.6751 5.01375 24.7383C4.02876 27.3235 5.05957 30.4225 7.43901 31.666C8.82773 32.3902 10.3854 32.5221 11.9201 32.4463C13.8901 32.3537 15.8286 32.0533 17.7585 31.5621C19.571 31.099 21.2489 30.3074 23.0213 29.7797C24.2669 29.4063 25.3607 28.713 26.5805 28.306C28.0236 27.8204 28.9313 26.7032 29.9192 25.6618C32.2556 23.2057 34.7181 20.8759 37.3495 18.7201C38.2916 17.9482 39.3797 17.412 40.545 17.0247C41.9882 16.5447 42.9073 17.238 42.8014 18.7257C42.7784 19.026 42.4635 19.4667 42.9159 19.5903C43.2881 19.6913 43.6403 19.3601 43.8551 19.0204C44.1013 18.6331 44.2989 18.212 44.5537 17.8303C44.6883 17.631 44.8229 17.3138 45.1235 17.3839C45.4385 17.4569 45.6332 17.7376 45.6962 18.052C45.9968 19.4836 45.805 20.8113 45.3698 22.2541C44.8343 24.0281 44.4363 25.92 44.5165 27.8232C44.5709 29.0891 45.2094 29.4681 46.4951 29.3053C47.9468 29.1228 49.2152 28.5306 50.3062 27.666C51.6205 26.6218 52.5911 25.2857 53.0579 23.6408C53.4129 22.3888 54.0314 21.2408 54.7759 20.1825C55.0479 19.798 55.5862 19.5285 56.0615 19.3573C56.7716 19.1018 57.1668 18.6583 57.3787 17.9734C57.476 17.6562 57.5361 17.1734 58.0143 17.2352C58.4066 17.2857 58.5469 17.659 58.6013 18.0436C58.8046 19.419 58.5412 20.7636 58.3465 22.1166C58.2233 22.9699 58.0802 23.8232 57.9885 24.6793C57.7423 26.9418 59.4489 27.4246 60.975 27.2871C62.6071 27.1411 64.0302 26.3495 65.5191 25.7516C67.1312 25.1032 68.3052 23.9046 69.6252 22.8941C72.8121 20.4576 76.1909 18.4057 80.2339 17.6983C81.405 17.4934 82.642 17.6394 83.73 18.1896C85.7058 19.1889 87.4467 20.5362 88.9958 22.0829C90.8999 23.9832 93.1075 24.7636 95.7905 24.3229C98.0182 23.9579 100.157 23.2955 102.296 22.6078C103.101 22.3495 103.822 21.673 104.587 21.6815C105.889 21.6955 106.72 20.8141 107.699 20.3397C108.624 19.8934 109.686 19.5622 110.491 18.8576C110.869 18.5264 111.419 18.8043 111.782 18.459C111.797 18.445 112.006 18.5853 112 18.6022C111.94 18.7369 111.88 18.8969 111.765 18.9783C108.744 21.1622 105.354 22.7229 102.03 24.3706C99.2036 25.7713 96.1942 26.8295 92.9472 26.793C91.1919 26.7734 89.5627 26.2541 88.1138 25.2211C86.4273 24.0197 84.8582 22.6611 82.9713 21.732C81.259 20.8899 79.5954 21.0471 77.8487 21.6197C75.5094 22.3888 73.4907 23.7334 71.4234 24.9685C69.9144 25.8695 68.6001 27.0737 67.1599 28.087C65.5363 29.2295 63.8756 30.3186 62.2177 31.4105C59.698 33.0723 55.8353 32.7607 53.6219 30.7453C53.3012 30.4534 53.1495 30.0941 53.0493 29.6842C52.9891 29.44 52.8288 29.1734 52.5682 29.1228C52.2848 29.0667 52.2475 29.4007 52.1015 29.5635C51.3971 30.3411 50.6527 31.099 49.7936 31.7025C48.1844 32.8337 46.4034 33.6028 44.4277 33.934C42.5608 34.2484 40.5565 33.2604 39.9609 31.374C39.7633 30.7453 39.4512 30.167 39.4484 29.4709C39.4455 28.9179 39.0933 29.092 38.8528 29.353C38.0682 30.2063 37.1749 30.9502 36.2786 31.6772C34.5864 33.0442 32.7195 34.1165 30.5205 34.5039C28.9284 34.7846 27.6972 34.2175 26.7294 32.9628C26.4975 32.6597 26.506 32.3537 26.4459 32.0449C26.3571 31.5958 26.1567 31.4863 25.7415 31.68C24.9255 32.0618 24.118 32.4688 23.2819 32.8056C18.6261 34.6835 13.9646 36.581 8.78478 36.4154C5.95579 36.3256 3.55917 35.1803 1.61496 33.1902C0.973568 32.5333 0.907711 31.5453 0.495389 30.7341C-0.269125 29.2239 0.0343895 27.593 0.209054 25.993C0.443848 23.8429 1.26849 21.8864 2.3222 20.0225C3.45895 18.0099 4.82191 16.1797 6.47979 14.5124C8.58148 12.3987 10.7691 10.3777 12.9767 8.38751C16.4929 5.22402 20.536 2.82403 24.9684 1.12299C26.6378 0.482992 28.3815 -0.126128 30.2284 0.0226435ZM39.8979 23.1495C39.4341 23.4583 38.9387 23.7334 38.5092 24.0843C36.983 25.3362 35.3423 26.4225 33.6301 27.4021C32.6508 27.9607 32.0008 28.7242 31.6801 29.9453C35.5055 28.8141 38.2715 26.6555 39.8979 23.1495Z" fill="white"/>
<path d="M67.1723 12.6739C67.2896 14.3216 65.9496 14.9111 64.7728 14.7567C63.8994 14.6416 63.2495 14.0914 62.714 13.4739C61.8292 12.4549 60.9931 11.3883 60.1885 10.3076C59.8908 9.90898 59.8965 9.34477 59.613 8.9125C59.5472 8.81144 59.6245 8.63741 59.7505 8.58969C60.3976 8.33425 60.8987 7.7897 61.6088 7.67461C61.8579 7.63531 62.0096 7.62127 62.0955 7.32373C62.2988 6.61637 62.7341 6.43111 63.447 6.69216C64.0884 6.92795 64.6496 7.30408 65.0992 7.80654C66.3991 9.26337 67.2496 10.9083 67.1723 12.6739Z" fill="white"/>
</svg>
