<svg width="22" height="23" viewBox="0 0 22 23" fill="none" xmlns="http://www.w3.org/2000/svg">
<path d="M15.4758 4.66727e-06C14.4926 -0.000213531 13.5221 0.221761 12.6367 0.649341C11.7513 1.07692 10.974 1.69905 10.3629 2.46925C9.75177 3.23945 9.32259 4.13779 9.10742 5.09717C8.89226 6.05654 8.89669 7.05214 9.12037 8.00956L0.88243 16.5493C0.299694 17.1674 -0.0169497 17.9897 0.00070016 18.839C0.01835 19.6883 0.368882 20.4967 0.976794 21.09C1.58471 21.6834 2.40136 22.0143 3.25085 22.0113C4.10034 22.0084 4.91469 21.672 5.51851 21.0744L13.6847 12.8006C14.7269 13.0968 15.8264 13.1291 16.8842 12.8944C17.9419 12.6598 18.9247 12.1656 19.7439 11.4565C20.5631 10.7474 21.1929 9.84555 21.5767 8.83231C21.9604 7.81906 22.086 6.72626 21.9422 5.65237C21.9219 5.5017 21.8599 5.35969 21.7633 5.24237C21.6666 5.12505 21.539 5.03709 21.395 4.9884C21.251 4.93972 21.0962 4.93225 20.9482 4.96685C20.8002 5.00144 20.6648 5.07672 20.5572 5.18419L17.1071 8.63434L13.3666 4.89383L16.8167 1.44368C16.9247 1.33622 17.0004 1.20067 17.0352 1.05239C17.0701 0.90412 17.0628 0.749042 17.014 0.604726C16.9653 0.460409 16.8771 0.332621 16.7595 0.235835C16.6419 0.139049 16.4995 0.0771329 16.3485 0.0570992C16.0592 0.0187306 15.7677 -0.000342977 15.4758 4.66727e-06Z" fill="white"/>
</svg>
